<?xml version="1.0" encoding="utf-8"?>
<!-- Generator: Adobe Illustrator 23.0.0, SVG Export Plug-In . SVG Version: 6.00 Build 0)  -->
<svg version="1.1" id="Layer_1" xmlns="http://www.w3.org/2000/svg" xmlns:xlink="http://www.w3.org/1999/xlink" x="0px" y="0px"
	 viewBox="0 0 236 297.5" style="enable-background:new 0 0 236 297.5;" xml:space="preserve">
<style type="text/css">
	.st0{fill-rule:evenodd;clip-rule:evenodd;fill:#FDB338;}
	.st1{fill:#FDB338;}
</style>
<title>botellas</title>
<path class="st0" d="M198.4,37.6C154-6.8,82-6.8,37.6,37.6s-44.4,116.4,0,160.8s116.4,44.4,160.8,0c21.3-21.3,33.3-50.3,33.3-80.4
	C231.8,87.8,219.8,58.9,198.4,37.6 M118,0c65.2,0,118,52.8,118,118s-52.8,118-118,118S0,183.2,0,118S52.8,0,118,0z"/>
<path class="st0" d="M92.5,188.9c0,1.9,1.3,2.6,3.2,2.6h44.5c1.9,0,3.2-0.7,3.2-2.6v-36.1H92.5V188.9z M92.5,89v13.2h50.9V89
	c0-1.3-2.2-3.9-3.4-5.7c-0.7-1-2.9-5-4.1-5h-36c-1.1,0-3.4,3.9-4.1,5C95,84.6,92.5,87.7,92.5,89L92.5,89z M83.2,86.4v102.2
	c0,6.6,5.3,11.9,10.3,11.9h49.1c1.5-0.2,2.9-0.6,4.1-1.3c3.9-2.1,6.2-6.2,6.1-10.6V86.4c0-2-7.1-11.2-8.4-13.2L132.6,56
	c-1.3-2-1.5-2.8-4.6-2.8h-20c-3.1,0-3.3,0.7-4.5,2.6C101,59.6,83.2,84.5,83.2,86.4z"/>
<path class="st0" d="M105.1,38.4v11.9h25.8V38.7c0-1.5-0.6-3.2-1.9-3.2h-21.3c-1.5,0-2.6,1.2-2.6,2.7
	C105.1,38.2,105.1,38.3,105.1,38.4"/>
<path class="st1" d="M70.7,273.2v-17.5h5.2c1.2-0.1,2.4,0.3,3.3,1c0.8,0.9,1.2,2.1,1.1,3.3c0.1,0.9-0.1,1.9-0.5,2.7
	c-0.3,0.6-0.9,1-1.6,1.1c0.8,0.1,1.5,0.5,1.9,1.2c0.5,0.8,0.7,1.8,0.7,2.8c0.1,1.5-0.3,2.9-1.2,4.1c-1,0.9-2.3,1.4-3.6,1.3
	L70.7,273.2z M73.8,262.8h1.1c0.6,0.1,1.2-0.1,1.7-0.5c0.4-0.6,0.6-1.3,0.5-2c0.3-1-0.3-2-1.3-2.2c-0.3-0.1-0.7-0.1-1,0h-1V262.8z
	 M73.8,270.7h1.3c0.7,0.1,1.3-0.1,1.8-0.6c0.4-0.6,0.6-1.4,0.5-2.1c0.1-0.8-0.1-1.6-0.6-2.2c-0.6-0.5-1.3-0.7-2.1-0.6h-1L73.8,270.7
	z"/>
<path class="st1" d="M83,264.5c0-1.5,0.1-3,0.3-4.5c0.1-0.9,0.4-1.7,0.8-2.5c0.4-0.7,1.1-1.3,1.8-1.7c1.8-0.7,3.8-0.7,5.6,0
	c0.8,0.4,1.4,1,1.8,1.7c0.4,0.8,0.7,1.6,0.8,2.5c0.3,2.9,0.3,5.9,0,8.9c-0.1,0.9-0.4,1.7-0.8,2.5c-0.4,0.7-1.1,1.3-1.8,1.7
	c-1.8,0.7-3.8,0.7-5.6,0c-0.8-0.4-1.4-1-1.8-1.7c-0.4-0.8-0.7-1.6-0.8-2.5C83.1,267.4,83,265.9,83,264.5z M86.3,264.5
	c0,2.9,0.2,4.7,0.5,5.4c0.5,1,1.8,1.4,2.8,0.9c0.4-0.2,0.7-0.5,0.9-0.9c0.3-0.7,0.5-2.5,0.5-5.5s-0.2-4.7-0.5-5.5
	c-0.5-1-1.8-1.4-2.8-0.9c-0.4,0.2-0.7,0.5-0.9,0.9C86.5,259.7,86.3,261.5,86.3,264.5z"/>
<path class="st1" d="M99.5,273.2v-14.6h-3.8v-2.9h10.8v2.9h-3.8v14.6H99.5z"/>
<path class="st1" d="M108.2,273.2v-17.5h9v2.9h-5.8v4h5.3v2.8h-5.3v4.8h5.9v3L108.2,273.2z"/>
<path class="st1" d="M119.8,273.2v-17.5h3.2v14.5h5.9v3L119.8,273.2z"/>
<path class="st1" d="M131.1,273.2v-17.5h3.3v14.5h5.9v3L131.1,273.2z"/>
<path class="st1" d="M141.2,273.2l3.9-17.5h4.4l4,17.5H150l-0.9-4.4h-3.8l-0.8,4.4H141.2z M145.9,266.2h2.8l-1.4-7.4L145.9,266.2z"
	/>
<path class="st1" d="M154.9,267.1h3.3v1.1c-0.1,0.8,0.1,1.5,0.4,2.2c0.3,0.4,0.9,0.6,1.4,0.6c0.6,0,1.1-0.1,1.6-0.5
	c0.4-0.4,0.6-1,0.5-1.5c0-0.5-0.1-0.9-0.4-1.4c-0.5-0.6-1-1.1-1.6-1.5l-1.7-1.2c-1.1-0.6-2-1.5-2.7-2.5c-0.4-0.8-0.6-1.6-0.6-2.5
	c-0.1-1.3,0.4-2.5,1.3-3.5c2.2-1.7,5.2-1.7,7.3,0.1c0.9,1,1.4,2.4,1.3,3.8c0,0.2,0,0.3,0,0.4s0,0.2,0,0.2h-3.1v-0.5
	c0.1-0.7-0.1-1.4-0.5-2c-0.4-0.4-1-0.7-1.5-0.6c-0.5,0-0.9,0.1-1.2,0.5c-0.3,0.3-0.5,0.8-0.4,1.3c0,0.7,0.7,1.5,2,2.4l0,0l1.8,1.2
	c1,0.6,1.9,1.4,2.6,2.4c0.5,0.9,0.7,1.9,0.7,2.9c0.1,1.4-0.4,2.7-1.4,3.7c-1.1,0.9-2.5,1.4-3.9,1.3c-1.4,0.1-2.9-0.4-3.9-1.4
	c-0.9-1.2-1.4-2.7-1.3-4.2C154.8,267.9,154.8,267.6,154.9,267.1L154.9,267.1z"/>
<path class="st1" d="M57.1,297.1v-17.5h5.2c0.9,0,1.7,0.1,2.6,0.3c0.6,0.2,1.1,0.5,1.6,0.9c0.6,0.6,1.1,1.4,1.3,2.3
	c0.3,1.4,0.4,2.8,0.4,4.3c0,1.8,0,3.5-0.3,5.3c-0.1,0.9-0.4,1.8-0.9,2.6c-0.4,0.7-1,1.2-1.7,1.5c-1.2,0.4-2.5,0.5-3.7,0.4H57.1z
	 M60.3,294.5h1.5c0.5,0,1,0,1.5-0.2c0.3-0.1,0.5-0.3,0.7-0.5c0.3-0.6,0.6-1.2,0.6-1.9c0.2-1.3,0.2-2.5,0.2-3.8c0-1.2,0-2.5-0.2-3.7
	c-0.1-0.6-0.4-1.2-0.8-1.8c-0.2-0.2-0.5-0.3-0.7-0.4c-0.5-0.1-0.9-0.1-1.4-0.1h-1.4L60.3,294.5z"/>
<path class="st1" d="M70.8,297.1v-17.5h9v2.9H74v4h5.4v2.8H74v4.8h5.9v3L70.8,297.1z"/>
<path class="st1" d="M88.1,297.1v-17.5h5.7c1.3-0.1,2.7,0.3,3.7,1.2c0.9,1.1,1.3,2.4,1.1,3.8c0.1,1.4-0.3,2.8-1.2,3.9
	c-1,0.9-2.3,1.4-3.7,1.3h-2.4v7.4L88.1,297.1z M91.3,287.2h1.4c0.8,0.1,1.5-0.1,2.1-0.6c0.8-1.2,0.8-2.8,0-4.1
	c-0.6-0.5-1.4-0.7-2.1-0.6h-1.4V287.2z"/>
<path class="st1" d="M100.8,297.1v-17.5h3.3v14.5h5.9v3L100.8,297.1z"/>
<path class="st1" d="M110.9,297.1l4-17.5h4.4l4,17.5h-3.5l-0.9-4.4h-3.8l-0.8,4.4H110.9z M115.6,290.1h2.8l-1.3-7.4L115.6,290.1z"/>
<path class="st1" d="M124.6,290.9h3.3v1.1c-0.1,0.8,0.1,1.5,0.4,2.2c0.3,0.4,0.9,0.6,1.4,0.6c0.6,0,1.1-0.2,1.6-0.5
	c0.4-0.4,0.6-1,0.5-1.5c0-0.5-0.1-0.9-0.4-1.4c-0.5-0.6-1-1.1-1.6-1.5l-1.7-1.2c-1.1-0.6-2-1.5-2.8-2.5c-0.4-0.7-0.6-1.6-0.6-2.5
	c-0.1-1.3,0.4-2.5,1.3-3.5c2.2-1.7,5.2-1.7,7.3,0.1c0.9,1.1,1.4,2.4,1.3,3.8v0.4c0,0.1,0,0.2,0,0.2h-3.1v-0.5c0.1-0.7-0.1-1.4-0.5-2
	c-0.4-0.4-1-0.7-1.5-0.6c-0.5,0-0.9,0.1-1.2,0.5c-0.3,0.3-0.5,0.8-0.4,1.3c0,0.7,0.7,1.5,2,2.4l0,0l1.8,1.2c1,0.6,1.9,1.4,2.6,2.4
	c0.5,0.9,0.7,1.9,0.7,2.9c0.1,1.4-0.4,2.7-1.4,3.7c-1.1,0.9-2.5,1.4-3.9,1.3c-1.4,0.1-2.9-0.4-3.9-1.4c-1-1.2-1.4-2.7-1.3-4.2
	C124.5,291.7,124.5,291.4,124.6,290.9L124.6,290.9z"/>
<path class="st1" d="M140.1,297.1v-14.6h-3.8v-2.9h10.8v2.9h-3.8v14.6H140.1z"/>
<path class="st1" d="M148.9,297.1v-17.5h3.3v17.5H148.9z"/>
<path class="st1" d="M162.1,290.8h3.2c0,0.1,0,0.2,0,0.3s0,0.3,0,0.4c0.1,1.6-0.3,3.2-1.3,4.5c-1,1-2.5,1.6-3.9,1.5
	c-0.7,0-1.5-0.1-2.1-0.3c-0.6-0.2-1.1-0.5-1.5-1c-0.6-0.7-1.1-1.6-1.3-2.5c-0.3-1.8-0.4-3.7-0.4-5.5c0-1.4,0.1-2.9,0.2-4.3
	c0.1-0.8,0.3-1.6,0.7-2.4c0.4-0.7,1-1.3,1.8-1.8c0.8-0.4,1.7-0.6,2.7-0.5c1.4-0.1,2.8,0.4,3.9,1.4c0.9,1.3,1.4,2.9,1.2,4.5H162v-0.4
	c0.1-0.7-0.1-1.5-0.5-2.1c-0.3-0.5-0.8-0.7-1.4-0.7c-0.7,0-1.3,0.4-1.6,1c-0.3,0.6-0.4,2.4-0.4,5.3c0,3.2,0.1,5.1,0.4,5.8
	c0.3,0.6,0.9,1.1,1.6,1c0.6,0.1,1.2-0.3,1.5-0.8c0.4-1,0.5-2,0.4-3L162.1,290.8z"/>
<path class="st1" d="M167.5,288.3c0-1.5,0.1-3,0.3-4.5c0.1-0.9,0.4-1.7,0.8-2.5c0.4-0.7,1.1-1.3,1.8-1.7c1.8-0.7,3.8-0.7,5.6,0
	c0.8,0.4,1.4,1,1.8,1.7c0.4,0.8,0.7,1.6,0.8,2.5c0.2,1.5,0.3,2.9,0.3,4.4c0,1.5-0.1,3-0.3,4.4c-0.1,0.9-0.4,1.7-0.8,2.5
	c-0.4,0.7-1.1,1.3-1.8,1.7c-1.8,0.7-3.8,0.7-5.6,0c-0.8-0.4-1.4-1-1.8-1.7c-0.4-0.8-0.7-1.6-0.8-2.5
	C167.6,291.3,167.5,289.8,167.5,288.3z M170.9,288.3c0,2.9,0.2,4.7,0.5,5.4c0.3,0.7,1.1,1.2,1.9,1.1c0.8,0.1,1.5-0.4,1.8-1.1
	c0.3-0.7,0.5-2.6,0.5-5.5s-0.2-4.7-0.5-5.5c-0.5-1-1.8-1.4-2.8-0.9c-0.4,0.2-0.7,0.5-0.9,0.9C171,283.6,170.9,285.4,170.9,288.3z"/>
</svg>
