<?xml version="1.0" encoding="utf-8"?>
<!-- Generator: Adobe Illustrator 23.0.0, SVG Export Plug-In . SVG Version: 6.00 Build 0)  -->
<svg version="1.1" id="Layer_1" xmlns="http://www.w3.org/2000/svg" xmlns:xlink="http://www.w3.org/1999/xlink" x="0px" y="0px"
	 viewBox="0 0 236 273.8" style="enable-background:new 0 0 236 273.8;" xml:space="preserve">
<style type="text/css">
	.st0{fill-rule:evenodd;clip-rule:evenodd;fill:#024A8C;}
	.st1{fill:#024A8C;}
</style>
<title>carton</title>
<path class="st0" d="M198.4,37.6C154-6.8,82-6.8,37.6,37.6s-44.4,116.4,0,160.8s116.4,44.4,160.8,0c21.3-21.3,33.3-50.2,33.3-80.4
	C231.8,87.8,219.8,58.9,198.4,37.6 M118,0c65.2,0,118,52.8,118,118s-52.8,118-118,118S0,183.2,0,118S52.8,0,118,0z"/>
<path class="st0" d="M115.3,73.1c-1-1.4-3.6-8.5-4.4-10.7c-1.5-3.6-2.9-6.9-4.3-10.6c-1.7-4.3-4.4-5.5-9.6-4.1l-35.4,9.4
	c-4.3,1.2-8.4,1.4-9.8,5.3s1.9,8,2.8,11.6c-2.5-0.6-11.8-3.8-13.7-3.4c-1.9,0.5-3,2.4-2.6,4.2c0.1,0.5,0.3,0.9,0.6,1.3l18.7,16
	c1.6,1.3,3.1,2.6,4.6,3.9c0,22.4-0.3,46.6,0,68.8c0.1,6-1.3,5.4,4.4,7.2c2.8,0.9,5.6,2,8.4,2.9c11.5,3.7,22.8,8,34.2,11.8
	c2.4,0.8,6.7,2.9,9,2.1l25.2-8.9c8.4-3.1,17.5-6,25.6-9c6.1-2.3,6-1.1,6-5.2V97.1c0-3-0.4-3.9,0.8-5.1l8.6-8.4
	c3.9-3.8,7.6-7.5,11.5-11.3c0.8-0.8,2.1-1.8,2-3.7c-0.3-6.3-9.2-1.2-11.3-0.8c1.8-4.6,0.2-8.3-4-9.5c-4.1-1.1-8.1-1.8-12.2-2.7
	c-8.2-1.9-16.4-3.6-24.6-5.4c-4.2-0.9-8.2-1.8-12.4-2.8c-5.6-1.2-7.6,0.7-9.3,4.9C123.1,54.7,115.9,72.3,115.3,73.1 M121.4,67.8
	c8.9-20.7,4.6-18.3,18.2-15.4s27.1,6,40.6,9c5.2,1.1,3.8,3.6,1.8,7.4c-0.6,1.1-0.6,0.9-1.9,1.4c-0.8,0.3-1.4,0.5-2.2,0.8
	c-5.8,2-27.9,9.5-31.5,11.7c-2,1.2-1.9,1.8-4.5,1c-4.3-1.3-22.8-5.9-24.1-6.7L121.4,67.8z M112.8,77c-2.2,0.4-14.1,4.5-17.5,5.6
	c-1.4,0.4-3,1-4.4,1.4c-2.2,0.8-2.3,0.1-4.3-0.7c-5.9-2.1-19.6-5.6-26.5-7.7c-1.7-0.5-1.1-0.2-2.4-3.3c-0.8-1.8-3.3-7-2.6-8.7
	c0.6-1.5,1.9-1.6,3.5-2c12.1-3.1,24.2-6.5,36.3-9.7c8.1-2.2,6.7-3,11.4,8.7C107.3,63.2,112.5,75.4,112.8,77z M111.5,109.7
	c-2.8-0.6-7.2-2.4-10-3.3l-29.2-9.9c-4.6-1.6-5.8-1.5-9.1-4.1l-10.5-9c-1.3-1-2.2-1.8-3.6-3l-5.4-4.6c-0.3-0.3-0.6-0.4-0.9-0.7
	l-0.7-0.8c3.2,0.6,7.2,2.1,10.4,3L82.9,86c4.3,1.2,6.1,2.1,8.8,4.4l6.6,6.4c1.2,1.1,2.3,2,3.4,3.2l3.2,3.4
	C106.2,104.6,110.9,108.6,111.5,109.7L111.5,109.7z M116.6,109.5c-0.9-0.4-4.4-4.2-5.8-5.5c-2-1.9-4.1-3.6-6-5.6l-5.7-5.6
	c-1.1-1-1.9-1.8-3-2.8c-0.9-1-1.9-2-2.9-2.8c0.6-0.5,9.7-3.3,11.2-3.8c13.9-4.2,7.4-4.4,23.6,0c4,1.1,8,2.2,11.8,3.3
	c-1,1.2-2.1,1.5-3,2.7L116.6,109.5z M124.6,108.3l-2.2,0.7l12.4-12.4c5.1-5.4,9.1-9.8,17.9-13.2c6.7-2.6,13.9-5.1,20.7-7.4
	c5.8-2,15.5-5.8,20.5-7.2l-23.1,23.1C165.6,95.2,134.2,105.3,124.6,108.3L124.6,108.3z M121.9,113c4.9-1.7,10.3-3.6,15.3-5.3
	c3.9-1.3,7.6-2.7,11.4-4s7.7-2.7,11.4-4c3-1.1,8.7-3.4,11.4-4v70.5l-52.9,18.7v-70.6L121.9,113z M65.6,167.9V98.1
	c6,1.5,28.8,9.9,37,12.5l12.2,4.3v70C113,184.6,66.6,168.5,65.6,167.9z"/>
<path class="st1" d="M87.2,267.1h3.2c0,0.1,0,0.2,0,0.3s0,0.3,0,0.4c0.1,1.6-0.3,3.2-1.3,4.5c-1,1-2.5,1.6-3.9,1.5
	c-0.7,0-1.5-0.1-2.2-0.3c-0.6-0.2-1.1-0.5-1.5-1c-0.6-0.7-1.1-1.6-1.3-2.5c-0.3-1.8-0.4-3.7-0.4-5.5c0-1.4,0.1-2.9,0.2-4.3
	c0.1-0.8,0.3-1.6,0.7-2.4c0.4-0.7,1-1.3,1.8-1.7c0.8-0.4,1.7-0.6,2.7-0.5c1.4-0.1,2.8,0.4,3.9,1.4c0.9,1.3,1.4,2.9,1.2,4.5h-3.1
	v-0.4c0.1-0.7-0.1-1.5-0.5-2.1c-0.3-0.5-0.8-0.7-1.4-0.7c-0.7,0-1.3,0.4-1.6,1c-0.3,0.7-0.4,2.4-0.4,5.3c0,3.2,0.1,5.1,0.4,5.8
	c0.3,0.6,0.9,1.1,1.6,1c0.6,0.1,1.2-0.3,1.5-0.8c0.4-1,0.5-2,0.4-3V267.1z"/>
<path class="st1" d="M91.7,273.3l4-17.5h4.4l4,17.5h-3.5l-0.9-4.4h-3.8l-0.8,4.4H91.7z M96.4,266.3h2.8l-1.4-7.3L96.4,266.3z"/>
<path class="st1" d="M105.7,273.3v-17.5h5.8c1.4-0.1,2.7,0.3,3.8,1.1c0.9,1,1.3,2.2,1.2,3.5c0,0.9-0.2,1.9-0.6,2.7
	c-0.4,0.6-1.1,1.1-1.8,1.1c1.5,0.4,2.3,1.7,2.4,3.9v0.2l0.1,2.3c0,0.5,0.1,1.1,0.3,1.6c0.1,0.4,0.4,0.7,0.6,1h-3.9
	c-0.1-0.3-0.2-0.7-0.2-1c-0.1-0.6-0.1-1.1-0.1-1.7v-1.8v-0.5c0.1-0.8-0.2-1.5-0.7-2.1c-0.8-0.5-1.7-0.7-2.6-0.6h-1.1v7.7
	L105.7,273.3z M108.9,263.2h1.9c0.7,0.1,1.4-0.1,2-0.6c0.4-0.6,0.6-1.3,0.6-2c0.1-0.7-0.1-1.3-0.6-1.8c-0.7-0.4-1.4-0.6-2.2-0.5
	h-1.6L108.9,263.2z"/>
<path class="st1" d="M121.7,273.3v-14.6h-3.8v-2.9h10.8v2.9h-3.8v14.6H121.7z"/>
<path class="st1" d="M130.1,264.6c0-1.5,0.1-3,0.3-4.5c0.1-0.9,0.4-1.7,0.8-2.5c0.4-0.7,1.1-1.3,1.8-1.7c1.8-0.7,3.8-0.7,5.6,0
	c0.8,0.4,1.4,1,1.8,1.7c0.4,0.8,0.7,1.6,0.8,2.5c0.2,1.5,0.3,2.9,0.3,4.4c0,1.5-0.1,3-0.3,4.4c-0.1,0.9-0.4,1.7-0.8,2.5
	c-0.4,0.7-1.1,1.3-1.8,1.7c-1.8,0.7-3.8,0.7-5.6,0c-0.8-0.4-1.4-1-1.8-1.7c-0.4-0.8-0.7-1.6-0.8-2.5
	C130.1,267.5,130,266.1,130.1,264.6z M133.4,264.6c0,2.9,0.2,4.7,0.5,5.4c0.3,0.7,1.1,1.2,1.9,1.1c0.8,0.1,1.5-0.4,1.8-1.1
	c0.3-0.7,0.5-2.6,0.5-5.5s-0.2-4.7-0.5-5.5c-0.5-1-1.8-1.4-2.8-0.9c-0.4,0.2-0.7,0.5-0.9,0.9C133.5,259.8,133.4,261.7,133.4,264.6z"
	/>
<path class="st1" d="M144.1,273.3v-17.5h3.4l4.6,12.2l-0.1-12.2h3.1v17.5h-3.3l-4.7-12.3l0.1,12.3H144.1z"/>
</svg>
