<?xml version="1.0" encoding="utf-8"?>
<!-- Generator: Adobe Illustrator 23.0.0, SVG Export Plug-In . SVG Version: 6.00 Build 0)  -->
<svg version="1.1" id="Layer_1" xmlns="http://www.w3.org/2000/svg" xmlns:xlink="http://www.w3.org/1999/xlink" x="0px" y="0px"
	 viewBox="0 0 236 283" style="enable-background:new 0 0 236 283;" xml:space="preserve">
<style type="text/css">
	.st0{fill:#FF9900;}
	.st1{fill-rule:evenodd;clip-rule:evenodd;fill:#FF9900;}
	.st2{enable-background:new    ;}
</style>
<title>cascaras</title>
<path class="st0" d="M110,140.6c-2.5,2.3-4.8,4.7-7.3,6.7c-15,11.6-31.7,14.6-49.9,9c-4-1.2-6.5-5-6.2-9.1c0.2-4.1,3.2-7.4,7.3-8.1
	c3.8-0.8,7.8-1.1,11.5-2.3c17.8-5.4,31.2-21.9,33-40.4c0.3-3.3,0.6-6.5,0.8-9.8c0.2-4.4,2.4-8.5,6.1-11.1c0.7-0.4,1-1.2,0.7-2
	c-1.2-4.6-2.3-9.2-3.3-13.8c-0.6-2.5,0.1-3.5,2.6-4c5-0.8,9.9-1.7,14.8-2.5c2.7-0.5,3.8,0.6,3.4,3.3c-0.8,5.7-1.7,11.3-2.6,17
	c-0.2,0.8,0.2,1.6,0.9,2c3.7,2.6,6.4,6.3,6.1,10.8c-0.6,9.8,4.6,16.5,11.1,22.6c6.7,6.3,15.5,10,24.6,10.4c1.6,0.1,3.2,0.4,4.7,1.1
	c3,1.4,4.7,4.6,4.2,7.9c-0.2,3.2-2.3,6-5.4,6.9c-4.9,1.8-10.1,2.8-15.3,2.9c0.7,0.6,1.1,0.9,1.5,1.1c7.4,5,16,8,24.9,8.8
	c2.8,0.2,5.5,0.6,7.7,2.6c2.7,2.3,4,5.9,3.2,9.4c-0.6,3.5-3.1,6.5-6.6,7.5c-26.1,9.1-55.1-0.6-70.5-23.6
	C111.4,143,110.8,141.8,110,140.6z M69.4,154.5c15.1-0.3,27.7-6.1,37.5-17.7c0.6-0.6,0.6-1.5,0.1-2.2c-2.6-5.9-4.3-12.3-4.9-18.7
	c-0.3-1.3,0.5-2.6,1.8-3c0,0,0.1,0,0.1,0c1.5-0.3,2.6,0.8,2.8,2.9c1.8,15.8,8.7,29,21.4,38.7c15.9,12.2,33.7,15,52.9,8.9
	c2.8-0.9,4.3-3.9,3.3-6.7c-0.7-2-2.4-3.4-4.5-3.6c-2.8-0.3-5.6-0.6-8.3-1.1c-23.9-4.8-43.3-25-47-49.2c-0.8-5.2-0.8-10.4-1.1-15.6
	c-0.2-5.4-4.8-9.6-10.3-9.4c-5.1,0.2-9.2,4.3-9.4,9.4c-0.2,3.4-0.4,6.9-0.9,10.3c-3,20.8-14.4,35-33.7,43.1
	c-4.6,1.9-9.5,2.4-14.3,3.2c-2.1,0.2-3.7,1.8-3.8,3.9c-0.2,2.1,1.2,4,3.3,4.5C59.3,153.7,64.3,154.5,69.4,154.5z M129.8,107.1
	l0.4-0.5c0.1,0.4,0.1,0.8,0.3,1.2c2.5,8.5,6.9,16.3,12.8,22.9c1.5,1.8,3.7,2.8,6,2.8c5.6,0.1,11.1-0.8,16.4-2.6
	c1.6-0.5,2.6-2.2,2.4-3.9c-0.2-1.6-1.6-2.9-3.2-2.9c-0.7-0.1-1.4-0.2-2.1-0.3c-9.8-0.7-19.1-4.6-26.4-11.2L129.8,107.1z M107.6,60.2
	c1.1,4.4,2.1,8.7,3.1,12.8h5.7c0.7-4.8,1.5-9.7,2.2-14.7L107.6,60.2z"/>
<path class="st1" d="M198.4,37.6C154-6.9,82-6.9,37.5,37.6s-44.4,116.4,0,160.9s116.4,44.4,160.9,0c21.3-21.3,33.3-50.3,33.3-80.5
	C231.8,87.8,219.8,58.9,198.4,37.6 M118,0c65.2,0,118,52.8,118,118s-52.8,118-118,118S0,183.2,0,118S52.8,0,118,0z"/>
<g class="st2">
	<path class="st0" d="M75.1,271.2h3.2c0,0.1,0,0.2,0,0.3c0,0.1,0,0.3,0,0.3c0,2-0.4,3.5-1.3,4.5s-2.2,1.5-3.9,1.5
		c-0.8,0-1.5-0.1-2.1-0.3s-1.1-0.6-1.5-1c-0.6-0.6-1-1.4-1.3-2.5c-0.2-1.1-0.4-2.9-0.4-5.5c0-1.8,0.1-3.2,0.2-4.3s0.4-1.9,0.7-2.4
		c0.5-0.8,1.1-1.4,1.8-1.7c0.7-0.4,1.6-0.5,2.7-0.5c1.8,0,3.1,0.5,3.9,1.4c0.8,0.9,1.2,2.4,1.2,4.5H75v-0.4c0-0.9-0.2-1.7-0.5-2.1
		c-0.3-0.5-0.8-0.7-1.4-0.7c-0.8,0-1.3,0.3-1.6,1c-0.3,0.6-0.4,2.4-0.4,5.3c0,3.2,0.1,5.1,0.4,5.8c0.3,0.7,0.8,1,1.6,1
		c0.7,0,1.2-0.3,1.5-0.8s0.4-1.5,0.4-3V271.2z"/>
	<path class="st0" d="M79.6,277.4l3.9-17.5h4.4l4,17.5h-3.5l-0.9-4.4h-3.8l-0.8,4.4H79.6z M84.2,258.5l2-3.2h2.9l-3.5,3.2H84.2z
		 M84.3,270.4h2.8l-1.4-7.3L84.3,270.4z"/>
	<path class="st0" d="M93.3,271.3h3.3v1.1c0,1.1,0.1,1.8,0.4,2.2c0.3,0.4,0.7,0.6,1.4,0.6c0.7,0,1.2-0.2,1.6-0.5
		c0.4-0.3,0.5-0.9,0.5-1.5c0-0.5-0.1-1-0.4-1.3s-0.8-0.9-1.6-1.4l-1.7-1.2c-1.4-1-2.4-1.8-2.7-2.5c-0.4-0.7-0.6-1.5-0.6-2.5
		c0-1.5,0.4-2.6,1.3-3.5c0.9-0.8,2.1-1.3,3.6-1.3c1.6,0,2.9,0.4,3.7,1.3c0.9,0.9,1.3,2.2,1.3,3.8c0,0.2,0,0.3,0,0.4
		c0,0.1,0,0.2,0,0.2h-3.1v-0.5c0-0.9-0.2-1.6-0.5-2s-0.8-0.6-1.5-0.6c-0.5,0-0.9,0.2-1.2,0.5c-0.3,0.3-0.4,0.7-0.4,1.3
		c0,0.7,0.7,1.5,2,2.4c0,0,0,0,0,0l1.8,1.2c1.3,0.8,2.1,1.7,2.6,2.4s0.7,1.7,0.7,2.9c0,1.6-0.5,2.8-1.4,3.7
		c-0.9,0.9-2.2,1.3-3.9,1.3c-1.8,0-3.1-0.5-3.9-1.4c-0.9-0.9-1.3-2.3-1.3-4.2C93.3,272.1,93.3,271.8,93.3,271.3L93.3,271.3z"/>
	<path class="st0" d="M113.4,271.2h3.2c0,0.1,0,0.2,0,0.3c0,0.1,0,0.3,0,0.3c0,2-0.4,3.5-1.3,4.5s-2.2,1.5-3.9,1.5
		c-0.8,0-1.5-0.1-2.1-0.3s-1.1-0.6-1.5-1c-0.6-0.6-1-1.4-1.3-2.5c-0.2-1.1-0.4-2.9-0.4-5.5c0-1.8,0.1-3.2,0.2-4.3s0.4-1.9,0.7-2.4
		c0.5-0.8,1.1-1.4,1.8-1.7c0.7-0.4,1.6-0.5,2.7-0.5c1.8,0,3.1,0.5,3.9,1.4c0.8,0.9,1.2,2.4,1.2,4.5h-3.2v-0.4c0-0.9-0.2-1.7-0.5-2.1
		c-0.3-0.5-0.8-0.7-1.4-0.7c-0.8,0-1.3,0.3-1.6,1c-0.3,0.6-0.4,2.4-0.4,5.3c0,3.2,0.1,5.1,0.4,5.8c0.3,0.7,0.8,1,1.6,1
		c0.7,0,1.2-0.3,1.5-0.8s0.4-1.5,0.4-3V271.2z"/>
	<path class="st0" d="M117.9,277.4l3.9-17.5h4.4l4,17.5h-3.5l-0.9-4.4H122l-0.8,4.4H117.9z M122.6,270.4h2.8l-1.4-7.3L122.6,270.4z"
		/>
	<path class="st0" d="M131.9,277.4v-17.5h5.8c1.8,0,3,0.4,3.8,1.1c0.8,0.7,1.2,1.9,1.2,3.5c0,1.1-0.2,2-0.6,2.7s-1,1-1.8,1.2
		c1.5,0.4,2.4,1.7,2.4,3.9c0,0.1,0,0.2,0,0.2l0.1,2.3c0,0.7,0.1,1.2,0.3,1.6c0.1,0.4,0.3,0.7,0.6,1h-3.9c-0.1-0.3-0.2-0.6-0.2-1
		c0-0.4-0.1-1-0.1-1.7l0-1.8v-0.5c0-1-0.2-1.7-0.6-2.1c-0.4-0.4-1.3-0.6-2.6-0.6H135v7.7H131.9z M135,267.3h1.9c0.9,0,1.6-0.2,2-0.6
		c0.4-0.4,0.6-1.1,0.6-2c0-0.9-0.2-1.5-0.6-1.8c-0.4-0.3-1.1-0.5-2.2-0.5H135V267.3z"/>
	<path class="st0" d="M144,277.4l3.9-17.5h4.4l4,17.5h-3.5L152,273h-3.8l-0.8,4.4H144z M148.7,270.4h2.8l-1.4-7.3L148.7,270.4z"/>
	<path class="st0" d="M157.7,271.3h3.3v1.1c0,1.1,0.1,1.8,0.4,2.2c0.3,0.4,0.7,0.6,1.4,0.6c0.7,0,1.2-0.2,1.6-0.5
		c0.4-0.3,0.5-0.9,0.5-1.5c0-0.5-0.1-1-0.4-1.3s-0.8-0.9-1.6-1.4l-1.7-1.2c-1.4-1-2.4-1.8-2.7-2.5c-0.4-0.7-0.6-1.5-0.6-2.5
		c0-1.5,0.4-2.6,1.3-3.5c0.9-0.8,2.1-1.3,3.6-1.3c1.6,0,2.9,0.4,3.7,1.3c0.9,0.9,1.3,2.2,1.3,3.8c0,0.2,0,0.3,0,0.4
		c0,0.1,0,0.2,0,0.2h-3.1v-0.5c0-0.9-0.2-1.6-0.5-2s-0.8-0.6-1.5-0.6c-0.5,0-0.9,0.2-1.2,0.5c-0.3,0.3-0.4,0.7-0.4,1.3
		c0,0.7,0.7,1.5,2,2.4c0,0,0,0,0,0l1.8,1.2c1.3,0.8,2.1,1.7,2.6,2.4c0.5,0.8,0.7,1.7,0.7,2.9c0,1.6-0.5,2.8-1.4,3.7
		c-0.9,0.9-2.2,1.3-3.9,1.3c-1.8,0-3.1-0.5-3.9-1.4s-1.3-2.3-1.3-4.2C157.7,272.1,157.7,271.8,157.7,271.3L157.7,271.3z"/>
</g>
</svg>
