<?xml version="1.0" encoding="utf-8"?>
<!-- Generator: Adobe Illustrator 23.0.0, SVG Export Plug-In . SVG Version: 6.00 Build 0)  -->
<svg version="1.1" id="Layer_1" xmlns="http://www.w3.org/2000/svg" xmlns:xlink="http://www.w3.org/1999/xlink" x="0px" y="0px"
	 viewBox="0 0 236 283" style="enable-background:new 0 0 236 283;" xml:space="preserve">
<style type="text/css">
	.st0{fill-rule:evenodd;clip-rule:evenodd;fill:#FEFEFE;}
	.st1{fill-rule:evenodd;clip-rule:evenodd;fill:#171415;}
	.st2{fill:none;stroke:#171415;stroke-width:0.71;stroke-linecap:round;stroke-linejoin:round;}
	.st3{enable-background:new    ;}
	.st4{fill:#171415;}
</style>
<title>comida</title>
<path class="st0" d="M118,0c65.2,0,118,52.8,118,118s-52.8,118-118,118S0,183.2,0,118S52.8,0,118,0"/>
<path class="st1" d="M198.4,37.6C154-6.8,82-6.8,37.6,37.6s-44.4,116.4,0,160.8s116.4,44.4,160.8,0c21.3-21.3,33.3-50.3,33.3-80.4
	C231.8,87.8,219.8,58.9,198.4,37.6 M118,0c65.2,0,118,52.8,118,118s-52.8,118-118,118S0,183.2,0,118S52.8,0,118,0z"/>
<path class="st1" d="M79.5,60.3c2.6,2.3,5.7,4,8.7,7c5.8,5.7,4.2,8.6,8.8,8.1c-0.5-5.2-8.7-11.5-12.8-14.6
	C82.3,59.4,81,57.7,79.5,60.3z M120.3,176.5c17.1,2.1,41.2-12,50.6-28.6l1.7-3.7c-4.8,3.5-9,6.2-13.8,9.5c-2.1,1.4-2.3,3.1-4,5
	c-9.6,10.6-18.7,8.2-21,8.8C133,167.7,123.3,174.9,120.3,176.5z M66.8,106.2c15.7,1,28.3,8.3,36.8,22.8c12.3,21,3.6,42.4,3.7,45.1
	c10.3,4.9,22.5-9.2,25.6-10c2.5-0.6,5.2,0.7,9.4-0.8c9.9-3.4,9.4-9.3,14.9-12.4s13.1-8,16.8-12.8l-8.8-4.7
	c-10-5.3-20.6-14.8-25.5-25.7c-6.4-14.1-3.5-23.2-0.6-33.4l3.5-10.3c-7.4,4.1-8.8,6.8-13.2,12.7c-2.7,3.6-12.2,5.8-17.4,9.2
	c-6.2,4-8.9,9.6-15.7,10.2c-12.1,1-9.5,4.7-17.3,9.3C73.9,102.7,68.4,104.5,66.8,106.2z M61.6,105c15.1-9.3,13.1,0,20.6-6.7
	c10.3-9.2,11.6-1.2,20.8-9.4c7.8-7,11.7-8.3,20.9-12.1c5.1-2.1,4.2-8.2,16.6-15.3c-4.3-3.9-22.3-4.4-34.3,7.2c-3,3-5.8,8.4-7.1,9.5
	c-4.3,3.6-9.6-3.4-24.1,7.7C69.8,89.9,61.8,99.5,61.6,105z M90.3,75.4C79.5,78.2,74.1,81,66.4,89.4c-4.1,4.5-11,15.2-9,20.8
	c5.5,1,9.9-3.2,22.9,2.1c19.6,8,27.9,29.5,25.8,49c-0.9,7.8-3.2,12.7-3.2,15.9c3.8,3.5,17.1,3.1,21.8,2.7
	c37.2-2.7,56.3-39,53.9-43.6l-7-3.4c-19.9-9.3-36.7-26.9-31.3-50.8c2.4-10.7,7.3-19.4,7.5-20.7c-4.1-4.8-17.4-6.3-23.6-5.5
	c-5.2,0.7-10.1,2.5-14.5,5.4c-4.8,3.2-7.4,7.4-10.7,9.7c-20.6-26.4-24.4-11-23.3-9c0.9,1.5,3.4,2.2,5.2,3.5
	C84.6,68.2,87.8,71.6,90.3,75.4z"/>
<path class="st2" d="M79.5,60.3c2.6,2.3,5.7,4,8.7,7c5.8,5.7,4.2,8.6,8.8,8.1c-0.5-5.2-8.7-11.5-12.8-14.6
	C82.3,59.4,81,57.7,79.5,60.3z M120.3,176.5c17.1,2.1,41.2-12,50.6-28.6l1.7-3.7c-4.8,3.5-9,6.2-13.8,9.5c-2.1,1.4-2.3,3.1-4,5
	c-9.6,10.6-18.7,8.2-21,8.8C133,167.7,123.3,174.9,120.3,176.5z M66.8,106.2c15.7,1,28.3,8.3,36.8,22.8c12.3,21,3.6,42.4,3.7,45.1
	c10.3,4.9,22.5-9.2,25.6-10c2.5-0.6,5.2,0.7,9.4-0.8c9.9-3.4,9.4-9.3,14.9-12.4s13.1-8,16.8-12.8l-8.8-4.7
	c-10-5.3-20.6-14.8-25.5-25.7c-6.4-14.1-3.5-23.2-0.6-33.4l3.5-10.3c-7.4,4.1-8.8,6.8-13.2,12.7c-2.7,3.6-12.2,5.8-17.4,9.2
	c-6.2,4-8.9,9.6-15.7,10.2c-12.1,1-9.5,4.7-17.3,9.3C73.9,102.7,68.4,104.5,66.8,106.2z M61.6,105c15.1-9.3,13.1,0,20.6-6.7
	c10.3-9.2,11.6-1.2,20.8-9.4c7.8-7,11.7-8.3,20.9-12.1c5.1-2.1,4.2-8.2,16.6-15.3c-4.3-3.9-22.3-4.4-34.3,7.2c-3,3-5.8,8.4-7.1,9.5
	c-4.3,3.6-9.6-3.4-24.1,7.7C69.8,89.9,61.8,99.5,61.6,105z M90.3,75.4C79.5,78.2,74.1,81,66.4,89.4c-4.1,4.5-11,15.2-9,20.8
	c5.5,1,9.9-3.2,22.9,2.1c19.6,8,27.9,29.5,25.8,49c-0.9,7.8-3.2,12.7-3.2,15.9c3.8,3.5,17.1,3.1,21.8,2.7
	c37.2-2.7,56.3-39,53.9-43.6l-7-3.4c-19.9-9.3-36.7-26.9-31.3-50.8c2.4-10.7,7.3-19.4,7.5-20.7c-4.1-4.8-17.4-6.3-23.6-5.5
	c-5.2,0.7-10.1,2.5-14.5,5.4c-4.8,3.2-7.4,7.4-10.7,9.7c-20.6-26.4-24.4-11-23.3-9c0.9,1.5,3.4,2.2,5.2,3.5
	C84.6,68.2,87.8,71.6,90.3,75.4z"/>
<g class="st3">
	<path class="st4" d="M25,277.4v-17.5h5.8c1.8,0,3,0.4,3.8,1.1c0.8,0.7,1.2,1.9,1.2,3.5c0,1.1-0.2,2-0.6,2.7c-0.4,0.7-1,1-1.8,1.2
		c1.5,0.4,2.4,1.7,2.4,3.9c0,0.1,0,0.2,0,0.2l0.1,2.3c0,0.7,0.1,1.2,0.3,1.6c0.1,0.4,0.3,0.7,0.6,1h-3.9c-0.1-0.3-0.2-0.6-0.2-1
		s-0.1-1-0.1-1.7l0-1.8v-0.5c0-1-0.2-1.7-0.6-2.1c-0.4-0.4-1.3-0.6-2.6-0.6h-1.1v7.7H25z M28.2,267.3h1.9c0.9,0,1.6-0.2,2-0.6
		c0.4-0.4,0.6-1.1,0.6-2c0-0.9-0.2-1.5-0.6-1.8c-0.4-0.3-1.1-0.5-2.2-0.5h-1.6V267.3z"/>
	<path class="st4" d="M38.5,277.4v-17.5h9v2.9h-5.8v4h5.4v2.8h-5.4v4.8h5.9v3H38.5z"/>
	<path class="st4" d="M49.7,271.3h3.3v1.1c0,1.1,0.1,1.8,0.4,2.2c0.3,0.4,0.7,0.6,1.4,0.6c0.7,0,1.2-0.2,1.6-0.5
		c0.4-0.3,0.5-0.9,0.5-1.5c0-0.5-0.1-1-0.4-1.3s-0.8-0.9-1.6-1.4l-1.7-1.2c-1.4-1-2.4-1.8-2.7-2.5c-0.4-0.7-0.6-1.5-0.6-2.5
		c0-1.5,0.4-2.6,1.3-3.5c0.9-0.8,2.1-1.3,3.6-1.3c1.6,0,2.9,0.4,3.7,1.3c0.9,0.9,1.3,2.2,1.3,3.8c0,0.2,0,0.3,0,0.4
		c0,0.1,0,0.2,0,0.2h-3.1v-0.5c0-0.9-0.2-1.6-0.5-2s-0.8-0.6-1.5-0.6c-0.5,0-0.9,0.2-1.2,0.5c-0.3,0.3-0.4,0.7-0.4,1.3
		c0,0.7,0.7,1.5,2,2.4c0,0,0,0,0,0l1.8,1.2c1.3,0.8,2.1,1.7,2.6,2.4s0.7,1.7,0.7,2.9c0,1.6-0.5,2.8-1.4,3.7
		c-0.9,0.9-2.2,1.3-3.9,1.3c-1.8,0-3.1-0.5-3.9-1.4c-0.9-0.9-1.3-2.3-1.3-4.2C49.6,272.1,49.6,271.8,49.7,271.3L49.7,271.3z"/>
	<path class="st4" d="M65.2,277.4v-14.6h-3.8v-2.9h10.8v2.9h-3.8v14.6H65.2z"/>
	<path class="st4" d="M73.6,268.7c0-1.9,0.1-3.3,0.3-4.5c0.2-1.1,0.4-1.9,0.8-2.5c0.5-0.8,1.1-1.4,1.8-1.7c0.7-0.3,1.6-0.5,2.8-0.5
		c1.2,0,2.1,0.2,2.8,0.5c0.7,0.3,1.3,0.9,1.8,1.7c0.4,0.6,0.6,1.4,0.8,2.5s0.3,2.6,0.3,4.4c0,1.8-0.1,3.3-0.3,4.4
		c-0.2,1.1-0.4,2-0.8,2.5c-0.5,0.8-1.1,1.4-1.8,1.7s-1.6,0.5-2.8,0.5c-1.2,0-2.1-0.2-2.8-0.5c-0.7-0.3-1.3-0.9-1.8-1.7
		c-0.4-0.6-0.6-1.4-0.8-2.5C73.7,272,73.6,270.5,73.6,268.7z M77,268.7c0,2.9,0.2,4.7,0.5,5.4c0.3,0.7,1,1.1,1.9,1.1
		c0.9,0,1.5-0.4,1.8-1.1c0.3-0.7,0.5-2.6,0.5-5.5s-0.2-4.7-0.5-5.5c-0.3-0.7-0.9-1.1-1.8-1.1c-0.9,0-1.5,0.4-1.8,1.1
		C77.1,264,77,265.8,77,268.7z"/>
	<path class="st4" d="M87.3,271.3h3.3v1.1c0,1.1,0.1,1.8,0.4,2.2c0.3,0.4,0.7,0.6,1.4,0.6c0.7,0,1.2-0.2,1.6-0.5
		c0.4-0.3,0.5-0.9,0.5-1.5c0-0.5-0.1-1-0.4-1.3s-0.8-0.9-1.6-1.4l-1.7-1.2c-1.4-1-2.4-1.8-2.7-2.5c-0.4-0.7-0.6-1.5-0.6-2.5
		c0-1.5,0.4-2.6,1.3-3.5c0.9-0.8,2.1-1.3,3.6-1.3c1.6,0,2.9,0.4,3.7,1.3c0.9,0.9,1.3,2.2,1.3,3.8c0,0.2,0,0.3,0,0.4
		c0,0.1,0,0.2,0,0.2h-3.1v-0.5c0-0.9-0.2-1.6-0.5-2s-0.8-0.6-1.5-0.6c-0.5,0-0.9,0.2-1.2,0.5c-0.3,0.3-0.4,0.7-0.4,1.3
		c0,0.7,0.7,1.5,2,2.4c0,0,0,0,0,0l1.8,1.2c1.3,0.8,2.1,1.7,2.6,2.4s0.7,1.7,0.7,2.9c0,1.6-0.5,2.8-1.4,3.7
		c-0.9,0.9-2.2,1.3-3.9,1.3c-1.8,0-3.1-0.5-3.9-1.4c-0.9-0.9-1.3-2.3-1.3-4.2C87.3,272.1,87.3,271.8,87.3,271.3L87.3,271.3z"/>
	<path class="st4" d="M106.2,277.4v-17.5h5.2c1.1,0,1.9,0.1,2.6,0.3s1.2,0.5,1.6,0.9c0.6,0.6,1,1.4,1.3,2.3c0.3,0.9,0.4,2.3,0.4,4.3
		c0,2.5-0.1,4.2-0.3,5.3c-0.2,1-0.5,1.9-0.9,2.6c-0.4,0.7-1,1.2-1.7,1.5c-0.7,0.3-2,0.4-3.7,0.4H106.2z M109.4,274.9h1.4
		c0.7,0,1.3-0.1,1.5-0.2s0.5-0.3,0.7-0.5c0.3-0.5,0.5-1.1,0.6-1.9s0.2-2.1,0.2-3.8c0-1.7-0.1-2.9-0.2-3.7c-0.2-0.8-0.4-1.4-0.8-1.8
		c-0.2-0.2-0.4-0.3-0.7-0.4c-0.3-0.1-0.8-0.1-1.4-0.1h-1.4V274.9z"/>
	<path class="st4" d="M119.9,277.4v-17.5h9v2.9h-5.8v4h5.4v2.8h-5.4v4.8h5.9v3H119.9z"/>
	<path class="st4" d="M144.2,271.2h3.2c0,0.1,0,0.2,0,0.3c0,0.1,0,0.3,0,0.3c0,2-0.4,3.5-1.3,4.5s-2.2,1.5-3.9,1.5
		c-0.8,0-1.5-0.1-2.1-0.3s-1.1-0.6-1.5-1c-0.6-0.6-1-1.4-1.3-2.5c-0.2-1.1-0.4-2.9-0.4-5.5c0-1.8,0.1-3.2,0.2-4.3
		c0.1-1.1,0.4-1.9,0.7-2.4c0.5-0.8,1.1-1.4,1.8-1.7c0.7-0.4,1.6-0.5,2.7-0.5c1.8,0,3.1,0.5,3.9,1.4s1.2,2.4,1.2,4.5h-3.2v-0.4
		c0-0.9-0.2-1.7-0.5-2.1s-0.8-0.7-1.4-0.7c-0.8,0-1.3,0.3-1.6,1c-0.3,0.6-0.4,2.4-0.4,5.3c0,3.2,0.1,5.1,0.4,5.8
		c0.3,0.7,0.8,1,1.6,1c0.7,0,1.2-0.3,1.5-0.8s0.4-1.5,0.4-3V271.2z"/>
	<path class="st4" d="M149.6,268.7c0-1.9,0.1-3.3,0.3-4.5s0.4-1.9,0.8-2.5c0.5-0.8,1.1-1.4,1.8-1.7c0.7-0.3,1.6-0.5,2.8-0.5
		s2.1,0.2,2.8,0.5c0.7,0.3,1.3,0.9,1.8,1.7c0.4,0.6,0.6,1.4,0.8,2.5c0.2,1.1,0.3,2.6,0.3,4.4c0,1.8-0.1,3.3-0.3,4.4
		c-0.2,1.1-0.4,2-0.8,2.5c-0.5,0.8-1.1,1.4-1.8,1.7s-1.6,0.5-2.8,0.5s-2.1-0.2-2.8-0.5s-1.3-0.9-1.8-1.7c-0.4-0.6-0.6-1.4-0.8-2.5
		C149.7,272,149.6,270.5,149.6,268.7z M153,268.7c0,2.9,0.2,4.7,0.5,5.4s1,1.1,1.9,1.1c0.9,0,1.5-0.4,1.8-1.1
		c0.3-0.7,0.5-2.6,0.5-5.5s-0.2-4.7-0.5-5.5c-0.3-0.7-0.9-1.1-1.8-1.1s-1.5,0.4-1.8,1.1C153.1,264,153,265.8,153,268.7z"/>
	<path class="st4" d="M163.7,277.4v-17.5h4.9l2.4,11.3l2.4-11.3h4.9v17.5h-3.1l0.1-15.5l-3.3,15.5h-2l-3.3-15.5l0.1,15.5H163.7z"/>
	<path class="st4" d="M181.3,277.4v-17.5h3.3v17.5H181.3z"/>
	<path class="st4" d="M187.5,277.4v-17.5h5.2c1.1,0,1.9,0.1,2.6,0.3s1.2,0.5,1.6,0.9c0.6,0.6,1,1.4,1.3,2.3c0.3,0.9,0.4,2.3,0.4,4.3
		c0,2.5-0.1,4.2-0.3,5.3c-0.2,1-0.5,1.9-0.9,2.6c-0.4,0.7-1,1.2-1.7,1.5c-0.7,0.3-2,0.4-3.7,0.4H187.5z M190.7,274.9h1.4
		c0.7,0,1.3-0.1,1.5-0.2c0.3-0.1,0.5-0.3,0.7-0.5c0.3-0.5,0.5-1.1,0.6-1.9s0.2-2.1,0.2-3.8c0-1.7-0.1-2.9-0.2-3.7
		c-0.2-0.8-0.4-1.4-0.8-1.8c-0.2-0.2-0.4-0.3-0.7-0.4c-0.3-0.1-0.8-0.1-1.4-0.1h-1.4V274.9z"/>
	<path class="st4" d="M199.9,277.4l3.9-17.5h4.4l4,17.5h-3.5l-0.9-4.4h-3.8l-0.8,4.4H199.9z M204.6,270.4h2.8l-1.4-7.3L204.6,270.4z
		"/>
</g>
</svg>
