<svg xmlns="http://www.w3.org/2000/svg" viewBox="0 0 235.99 273.75"><defs><style>.cls-1,.cls-2{fill:#024a8c;}.cls-1{fill-rule:evenodd;}</style></defs><title>cuadernos</title><g id="Layer_2" data-name="Layer 2"><g id="Layer_1-2" data-name="Layer 1"><path class="cls-1" d="M198.43,37.57A113.75,113.75,0,1,0,231.74,118a113.38,113.38,0,0,0-33.31-80.43M118,0A118,118,0,1,1,0,118,118,118,0,0,1,118,0Z"/><path class="cls-2" d="M167.41,56.21H69.05c-2.34,0-4.23,1.57-4.23,3.51V178.28c0,1.94,1.89,3.51,4.23,3.51h98.36c2.33,0,4.23-1.57,4.23-3.51V59.72C171.64,57.78,169.74,56.21,167.41,56.21Zm2.65,120.37c0,1.88-1.84,3.41-4.1,3.41H70.47c-2.27,0-4.11-1.53-4.11-3.41V61.4c0-1.88,1.84-3.41,4.11-3.41H166c2.26,0,4.1,1.53,4.1,3.41Z"/><path class="cls-2" d="M61.24,63.41h6a2.64,2.64,0,0,0,1.9.81,2.42,2.42,0,1,0,0-4.84,2.64,2.64,0,0,0-1.9.81h-6a1.61,1.61,0,1,0,0,3.22Z"/><path class="cls-2" d="M69.15,69.71a2.64,2.64,0,0,0-1.9.81h-6a1.62,1.62,0,1,0,0,3.23h6a2.63,2.63,0,0,0,1.9.8,2.42,2.42,0,1,0,0-4.84Z"/><path class="cls-2" d="M69.15,80.05a2.63,2.63,0,0,0-1.9.8h-6a1.62,1.62,0,1,0,0,3.23h6a2.63,2.63,0,0,0,1.9.8,2.42,2.42,0,1,0,0-4.83Z"/><path class="cls-2" d="M69.15,90.38a2.6,2.6,0,0,0-1.9.81h-6a1.61,1.61,0,1,0,0,3.22h6a2.64,2.64,0,0,0,1.9.81,2.42,2.42,0,1,0,0-4.84Z"/><path class="cls-2" d="M69.15,100.71a2.62,2.62,0,0,0-1.9.81h-6a1.61,1.61,0,1,0,0,3.22h6a2.64,2.64,0,0,0,1.9.81,2.42,2.42,0,1,0,0-4.84Z"/><path class="cls-2" d="M69.15,111a2.64,2.64,0,0,0-1.9.81h-6a1.61,1.61,0,1,0,0,3.22h6a2.64,2.64,0,0,0,1.9.81,2.42,2.42,0,1,0,0-4.84Z"/><path class="cls-2" d="M69.15,121.37a2.64,2.64,0,0,0-1.9.81h-6a1.62,1.62,0,1,0,0,3.23h6a2.62,2.62,0,0,0,1.9.8,2.42,2.42,0,1,0,0-4.84Z"/><path class="cls-2" d="M69.15,131.71a2.58,2.58,0,0,0-1.9.81h-6a1.61,1.61,0,1,0,0,3.22h6a2.63,2.63,0,0,0,1.9.8,2.42,2.42,0,1,0,0-4.83Z"/><path class="cls-2" d="M69.15,142a2.64,2.64,0,0,0-1.9.81h-6a1.61,1.61,0,1,0,0,3.22h6a2.64,2.64,0,0,0,1.9.81,2.42,2.42,0,1,0,0-4.84Z"/><path class="cls-2" d="M69.15,152.37a2.64,2.64,0,0,0-1.9.81h-6a1.61,1.61,0,1,0,0,3.22h6a2.64,2.64,0,0,0,1.9.81,2.42,2.42,0,1,0,0-4.84Z"/><path class="cls-2" d="M69.15,162.7a2.62,2.62,0,0,0-1.9.81h-6a1.62,1.62,0,1,0,0,3.23h6a2.63,2.63,0,0,0,1.9.8,2.42,2.42,0,1,0,0-4.84Z"/><path class="cls-2" d="M69.15,173a2.63,2.63,0,0,0-1.9.8h-6a1.62,1.62,0,1,0,0,3.23h6a2.62,2.62,0,0,0,1.9.8,2.42,2.42,0,1,0,0-4.83Z"/><path class="cls-2" d="M67.11,267.09h3.17c0,.07,0,.18,0,.33s0,.26,0,.35A6.73,6.73,0,0,1,69,272.28a4.9,4.9,0,0,1-3.91,1.47,6.23,6.23,0,0,1-2.15-.33,3.91,3.91,0,0,1-1.55-1,5.14,5.14,0,0,1-1.25-2.5,28.9,28.9,0,0,1-.36-5.55,34.58,34.58,0,0,1,.21-4.3,7,7,0,0,1,.67-2.39,4.38,4.38,0,0,1,1.76-1.74,5.76,5.76,0,0,1,2.67-.54A4.87,4.87,0,0,1,69,256.79a6.72,6.72,0,0,1,1.22,4.45H67v-.42a3.9,3.9,0,0,0-.46-2.12,1.78,1.78,0,0,0-3,.27c-.29.64-.43,2.42-.43,5.34,0,3.16.14,5.07.42,5.75a1.54,1.54,0,0,0,1.58,1,1.6,1.6,0,0,0,1.53-.8,7.14,7.14,0,0,0,.43-3Z"/><path class="cls-2" d="M72.91,255.82h3.26v11.8a5.29,5.29,0,0,0,.49,2.75,2,2,0,0,0,1.76.72,1.91,1.91,0,0,0,1.73-.73,5.5,5.5,0,0,0,.49-2.79V255.82h3.21V267.9a11.46,11.46,0,0,1-.2,2.58,3.83,3.83,0,0,1-.66,1.43,4.31,4.31,0,0,1-1.87,1.38,7.57,7.57,0,0,1-2.75.46c-2,0-3.41-.44-4.23-1.3s-1.23-2.39-1.23-4.55Z"/><path class="cls-2" d="M85.52,273.33l4-17.51h4.38l4,17.51H94.31l-.86-4.4H89.7l-.85,4.4Zm4.69-7H93L91.58,259Z"/><path class="cls-2" d="M99.54,273.33V255.82h5.24a9.62,9.62,0,0,1,2.55.27,3.61,3.61,0,0,1,1.57.89,5,5,0,0,1,1.3,2.27,17.47,17.47,0,0,1,.38,4.26,36.64,36.64,0,0,1-.26,5.26,7.76,7.76,0,0,1-.89,2.62,3.26,3.26,0,0,1-1.67,1.51,11.12,11.12,0,0,1-3.73.43Zm3.2-2.58h1.44a5.44,5.44,0,0,0,1.55-.16,1.41,1.41,0,0,0,.7-.55,4.8,4.8,0,0,0,.65-1.87,26.32,26.32,0,0,0,.19-3.8,20.59,20.59,0,0,0-.23-3.71,3.6,3.6,0,0,0-.77-1.75,1.59,1.59,0,0,0-.73-.41,6,6,0,0,0-1.41-.12h-1.39Z"/><path class="cls-2" d="M113.23,273.33V255.82h9v2.91h-5.75v4h5.35v2.77h-5.35v4.82h5.89v3Z"/><path class="cls-2" d="M124.76,273.33V255.82h5.84a5.54,5.54,0,0,1,3.81,1.07,4.58,4.58,0,0,1,1.17,3.51,5,5,0,0,1-.63,2.69,2.44,2.44,0,0,1-1.84,1.15c1.55.41,2.35,1.72,2.42,3.93v.22l.09,2.32a6.15,6.15,0,0,0,.25,1.59,2.68,2.68,0,0,0,.64,1h-3.86a5.45,5.45,0,0,1-.21-1c0-.4-.07-1-.09-1.69l0-1.83v-.47a2.72,2.72,0,0,0-.64-2.09,4.27,4.27,0,0,0-2.64-.57h-1.11v7.69Zm3.15-10.11h1.87a2.7,2.7,0,0,0,2-.57,2.89,2.89,0,0,0,.55-2,2.34,2.34,0,0,0-.6-1.83,3.4,3.4,0,0,0-2.19-.53h-1.6Z"/><path class="cls-2" d="M138.19,273.33V255.82h3.36l4.55,12.24L146,255.82h3.08v17.51h-3.33l-4.59-12.27.09,12.27Z"/><path class="cls-2" d="M151.72,264.57a30.69,30.69,0,0,1,.26-4.45,6.51,6.51,0,0,1,.82-2.5,4.48,4.48,0,0,1,1.82-1.71,7.83,7.83,0,0,1,5.56,0,4.5,4.5,0,0,1,1.83,1.71,6.53,6.53,0,0,1,.81,2.52,37.87,37.87,0,0,1,0,8.86,7,7,0,0,1-.81,2.53,4.5,4.5,0,0,1-1.83,1.71,7.83,7.83,0,0,1-5.56,0,4.48,4.48,0,0,1-1.82-1.71A6.51,6.51,0,0,1,152,269,30.59,30.59,0,0,1,151.72,264.57Zm3.33,0c0,2.88.17,4.7.51,5.44a1.84,1.84,0,0,0,1.86,1.12,1.82,1.82,0,0,0,1.83-1.09c.33-.74.5-2.56.5-5.47s-.17-4.73-.5-5.48a2.1,2.1,0,0,0-3.7,0C155.22,259.84,155.05,261.66,155.05,264.57Z"/><path class="cls-2" d="M165.41,267.18h3.26v1.12a4.15,4.15,0,0,0,.41,2.2,1.56,1.56,0,0,0,1.39.59,2.16,2.16,0,0,0,1.57-.53,2,2,0,0,0,.54-1.54,2.4,2.4,0,0,0-.37-1.35,6.73,6.73,0,0,0-1.63-1.45L168.91,265a9.74,9.74,0,0,1-2.74-2.48,4.61,4.61,0,0,1-.59-2.45,4.53,4.53,0,0,1,1.31-3.46,5.85,5.85,0,0,1,7.33.08,5.27,5.27,0,0,1,1.29,3.82v.39a1.66,1.66,0,0,1,0,.24H172.4v-.47a3.44,3.44,0,0,0-.47-2,1.79,1.79,0,0,0-1.53-.61,1.61,1.61,0,0,0-1.23.46,1.75,1.75,0,0,0-.45,1.28c0,.73.67,1.55,2,2.44l0,0,1.8,1.21a8.34,8.34,0,0,1,2.6,2.41,5.44,5.44,0,0,1,.68,2.88,4.82,4.82,0,0,1-1.36,3.68,5.42,5.42,0,0,1-3.9,1.3,5.17,5.17,0,0,1-3.93-1.37,5.86,5.86,0,0,1-1.29-4.16c0-.19,0-.52,0-1Z"/><path class="cls-2" d="M155.55,66.88H80.9a3.07,3.07,0,0,0-3.2,2.92v98.4a3.06,3.06,0,0,0,3.2,2.91h74.65a3.07,3.07,0,0,0,3.21-2.91V69.8A3.08,3.08,0,0,0,155.55,66.88Zm2,99.9a3,3,0,0,1-3.12,2.84H82a3,3,0,0,1-3.12-2.84V71.2A3,3,0,0,1,82,68.37h72.47a3,3,0,0,1,3.12,2.83Z"/></g></g></svg>