<?xml version="1.0" encoding="utf-8"?>
<!-- Generator: Adobe Illustrator 23.0.0, SVG Export Plug-In . SVG Version: 6.00 Build 0)  -->
<svg version="1.1" id="Layer_1" xmlns="http://www.w3.org/2000/svg" xmlns:xlink="http://www.w3.org/1999/xlink" x="0px" y="0px"
	 viewBox="0 0 236 283.2" style="enable-background:new 0 0 236 283.2;" xml:space="preserve">
<style type="text/css">
	.st0{enable-background:new    ;}
	.st1{fill:#171415;}
	.st2{fill-rule:evenodd;clip-rule:evenodd;fill:#FEFEFE;}
	.st3{fill-rule:evenodd;clip-rule:evenodd;fill:#171415;}
	.st4{fill-rule:evenodd;clip-rule:evenodd;}
	.st5{fill-rule:evenodd;clip-rule:evenodd;fill:#7D7D7C;}
</style>
<title>desechables</title>
<g class="st0">
	<path class="st1" d="M50.9,277.7v-17.5h5.2c1.1,0,1.9,0.1,2.6,0.3s1.2,0.5,1.6,0.9c0.6,0.6,1,1.4,1.3,2.3c0.3,0.9,0.4,2.3,0.4,4.3
		c0,2.5-0.1,4.2-0.3,5.3c-0.2,1-0.5,1.9-0.9,2.6c-0.4,0.7-1,1.2-1.7,1.5c-0.7,0.3-2,0.4-3.7,0.4H50.9z M54.1,275.1h1.4
		c0.7,0,1.3-0.1,1.5-0.2s0.5-0.3,0.7-0.5c0.3-0.5,0.5-1.1,0.6-1.9s0.2-2.1,0.2-3.8c0-1.7-0.1-2.9-0.2-3.7c-0.2-0.8-0.4-1.4-0.8-1.8
		c-0.2-0.2-0.4-0.3-0.7-0.4c-0.3-0.1-0.8-0.1-1.4-0.1h-1.4V275.1z"/>
	<path class="st1" d="M64.6,277.7v-17.5h9v2.9h-5.8v4h5.4v2.8h-5.4v4.8h5.9v3H64.6z"/>
	<path class="st1" d="M75.8,271.6H79v1.1c0,1.1,0.1,1.8,0.4,2.2c0.3,0.4,0.7,0.6,1.4,0.6c0.7,0,1.2-0.2,1.6-0.5
		c0.4-0.3,0.5-0.9,0.5-1.5c0-0.5-0.1-1-0.4-1.3s-0.8-0.9-1.6-1.4l-1.7-1.2c-1.4-1-2.4-1.8-2.7-2.5c-0.4-0.7-0.6-1.5-0.6-2.5
		c0-1.5,0.4-2.6,1.3-3.5c0.9-0.8,2.1-1.3,3.6-1.3c1.6,0,2.9,0.4,3.7,1.3c0.9,0.9,1.3,2.2,1.3,3.8c0,0.2,0,0.3,0,0.4
		c0,0.1,0,0.2,0,0.2h-3.1v-0.5c0-0.9-0.2-1.6-0.5-2s-0.8-0.6-1.5-0.6c-0.5,0-0.9,0.2-1.2,0.5c-0.3,0.3-0.4,0.7-0.4,1.3
		c0,0.7,0.7,1.5,2,2.4c0,0,0,0,0,0l1.8,1.2c1.3,0.8,2.1,1.7,2.6,2.4s0.7,1.7,0.7,2.9c0,1.6-0.5,2.8-1.4,3.7
		c-0.9,0.9-2.2,1.3-3.9,1.3c-1.8,0-3.1-0.5-3.9-1.4c-0.9-0.9-1.3-2.3-1.3-4.2C75.7,272.4,75.7,272.1,75.8,271.6L75.8,271.6z"/>
	<path class="st1" d="M88.8,277.7v-17.5h9v2.9h-5.8v4h5.4v2.8h-5.4v4.8H98v3H88.8z"/>
	<path class="st1" d="M107.3,271.5h3.2c0,0.1,0,0.2,0,0.3c0,0.1,0,0.3,0,0.3c0,2-0.4,3.5-1.3,4.5s-2.2,1.5-3.9,1.5
		c-0.8,0-1.5-0.1-2.1-0.3s-1.1-0.6-1.5-1c-0.6-0.6-1-1.4-1.3-2.5c-0.2-1.1-0.4-2.9-0.4-5.5c0-1.8,0.1-3.2,0.2-4.3s0.4-1.9,0.7-2.4
		c0.5-0.8,1.1-1.4,1.8-1.7c0.7-0.4,1.6-0.5,2.7-0.5c1.8,0,3.1,0.5,3.9,1.4c0.8,0.9,1.2,2.4,1.2,4.5h-3.2v-0.4c0-0.9-0.2-1.7-0.5-2.1
		c-0.3-0.5-0.8-0.7-1.4-0.7c-0.8,0-1.3,0.3-1.6,1c-0.3,0.6-0.4,2.4-0.4,5.3c0,3.2,0.1,5.1,0.4,5.8c0.3,0.7,0.8,1,1.6,1
		c0.7,0,1.2-0.3,1.5-0.8s0.4-1.5,0.4-3V271.5z"/>
	<path class="st1" d="M113.1,277.7v-17.5h3.2v6.9h4.5v-6.9h3.2v17.5h-3.2v-7.9h-4.5v7.9H113.1z"/>
	<path class="st1" d="M125.8,277.7l3.9-17.5h4.4l4,17.5h-3.5l-0.9-4.4h-3.8l-0.8,4.4H125.8z M130.4,270.7h2.8l-1.4-7.3L130.4,270.7z
		"/>
	<path class="st1" d="M139.8,277.7v-17.5h5.2c1.5,0,2.6,0.3,3.3,1c0.7,0.7,1.1,1.8,1.1,3.2c0,1.2-0.2,2.1-0.5,2.7
		c-0.4,0.6-0.9,1-1.6,1.1c0.8,0.1,1.5,0.5,1.9,1.2c0.5,0.7,0.7,1.6,0.7,2.8c0,1.9-0.4,3.2-1.2,4.1c-0.8,0.9-2,1.3-3.6,1.3H139.8z
		 M142.9,267.3h1.1c0.8,0,1.4-0.2,1.7-0.5c0.3-0.4,0.5-1,0.5-2c0-0.9-0.2-1.4-0.5-1.8s-0.9-0.5-1.8-0.5h-1V267.3z M142.9,275.2h1.3
		c0.8,0,1.4-0.2,1.8-0.6c0.3-0.4,0.5-1.1,0.5-2.2c0-1.1-0.2-1.8-0.6-2.2c-0.4-0.4-1.1-0.6-2.1-0.6h-1V275.2z"/>
	<path class="st1" d="M152.5,277.7v-17.5h3.3v14.5h5.9v3H152.5z"/>
	<path class="st1" d="M163.8,277.7v-17.5h9v2.9h-5.8v4h5.4v2.8h-5.4v4.8h5.9v3H163.8z"/>
	<path class="st1" d="M175,271.6h3.3v1.1c0,1.1,0.1,1.8,0.4,2.2c0.3,0.4,0.7,0.6,1.4,0.6c0.7,0,1.2-0.2,1.6-0.5
		c0.4-0.3,0.5-0.9,0.5-1.5c0-0.5-0.1-1-0.4-1.3s-0.8-0.9-1.6-1.4l-1.7-1.2c-1.4-1-2.4-1.8-2.7-2.5c-0.4-0.7-0.6-1.5-0.6-2.5
		c0-1.5,0.4-2.6,1.3-3.5c0.9-0.8,2.1-1.3,3.6-1.3c1.6,0,2.9,0.4,3.7,1.3c0.9,0.9,1.3,2.2,1.3,3.8c0,0.2,0,0.3,0,0.4
		c0,0.1,0,0.2,0,0.2H182v-0.5c0-0.9-0.2-1.6-0.5-2s-0.8-0.6-1.5-0.6c-0.5,0-0.9,0.2-1.2,0.5c-0.3,0.3-0.4,0.7-0.4,1.3
		c0,0.7,0.7,1.5,2,2.4c0,0,0,0,0,0l1.8,1.2c1.3,0.8,2.1,1.7,2.6,2.4c0.5,0.8,0.7,1.7,0.7,2.9c0,1.6-0.5,2.8-1.4,3.7
		c-0.9,0.9-2.2,1.3-3.9,1.3c-1.8,0-3.1-0.5-3.9-1.4s-1.3-2.3-1.3-4.2C175,272.4,175,272.1,175,271.6L175,271.6z"/>
</g>
<path class="st2" d="M118,0c65.2,0,118,52.8,118,118s-52.8,118-118,118S0,183.2,0,118S52.8,0,118,0"/>
<path class="st3" d="M198.4,37.6C154-6.9,82-6.9,37.5,37.6s-44.4,116.4,0,160.9s116.4,44.4,160.9,0c21.3-21.3,33.3-50.3,33.3-80.5
	C231.8,87.8,219.8,58.9,198.4,37.6 M118,0c65.2,0,118,52.8,118,118s-52.8,118-118,118S0,183.2,0,118S52.8,0,118,0z"/>
<path class="st4" d="M125.1,85.2c-3.4,0.5-39-0.3-42.5,0.1c-2.9,0.4-2,3.5-1.7,5.9c0.2,1.5,1.2,10.1,1.8,11s1.7,0.7,3.1,1.1
	c0.7,7.7,2,16,3,23.7l5.9,47.2c0.3,2.3,0.6,3.5,3,3.6c5,0.2,15,0,20.3,0h13.3c8.2,0,9.4,0.9,9.9-3.5l5.9-47.2
	c0.9-7.8,2.4-16.1,2.9-23.9c4.1-0.1,3.5-1.4,4.4-7.6c0.5-3.4,1.9-8.8-0.2-9.9c-1.2-0.6-21-0.3-24.1-0.3c0.6-3,3.8-12.8,5.1-17
	c0.4-1.4,1-4.5,2-5.2s3.5-1.8,4.8-2.4c4.3-2.2,10.5-5.5,14.5-7.3l-2-4.3c-1.3,0.3-21.3,10.5-21.7,11.1
	C131.8,61.4,126.2,82.9,125.1,85.2"/>
<polygon class="st2" points="93.2,123 142.7,123.1 145.3,103.1 90.7,103.1 "/>
<path class="st2" d="M99.5,172.8l37.1,0.1l2.5-20.2l-42.2-0.1C97.1,155.2,99,171.6,99.5,172.8"/>
<path class="st2" d="M85.8,90.7l1,7.6c10.4,0.2,20.9,0,31.3,0c3.9,0,29.6,0.4,31.1-0.2l0.9-6.8l0.1-1.3h-64
	C85.6,90.3,85.9,90,85.8,90.7"/>
<path class="st5" d="M85.8,90.7c0.2-0.7-0.1-0.4,0.5-0.6h64l-0.1,1.3c0.4-0.7,0.4-0.6,0.3-1.5H85.6L85.8,90.7z"/>
</svg>
