<?xml version="1.0" encoding="utf-8"?>
<!-- Generator: Adobe Illustrator 23.0.0, SVG Export Plug-In . SVG Version: 6.00 Build 0)  -->
<svg version="1.1" id="Layer_1" xmlns="http://www.w3.org/2000/svg" xmlns:xlink="http://www.w3.org/1999/xlink" x="0px" y="0px"
	 viewBox="0 0 236 283" style="enable-background:new 0 0 236 283;" xml:space="preserve">
<style type="text/css">
	.st0{fill-rule:evenodd;clip-rule:evenodd;fill:#FEFEFE;}
	.st1{fill-rule:evenodd;clip-rule:evenodd;fill:#171415;}
	.st2{enable-background:new    ;}
	.st3{fill:#171415;}
</style>
<title>envoltorios</title>
<path class="st0" d="M118,0c65.2,0,118,52.8,118,118s-52.8,118-118,118S0,183.2,0,118S52.8,0,118,0"/>
<path class="st1" d="M198.4,37.6C154-6.9,82-6.9,37.5,37.6s-44.4,116.4,0,160.9s116.4,44.4,160.9,0c21.3-21.3,33.3-50.3,33.3-80.5
	C231.8,87.8,219.8,58.9,198.4,37.6 M118,0c65.2,0,118,52.8,118,118s-52.8,118-118,118S0,183.2,0,118S52.8,0,118,0z"/>
<path class="st1" d="M132.9,162.3c-1.4,2.2-2.6,2.7-4.1,4.1l49.3,13.5c-0.2-2.2-2.7-2.6-0.4-10.8l7.2-26.2c0.4-2.1,1.2-4.1,2.3-5.9
	c0.5-0.7,1.1-1.3,1.7-1.8c1.9-1.8,1.1-0.3,1.9-1.5l-49.2-13.5c0.2,1.1,0.9,1.6,1.3,4.2C141.5,129.5,140.4,132.6,132.9,162.3"/>
<path class="st1" d="M144.9,110.3c-1.7,0.9-2,4.5-2.5,6.4l49.6,13.6c0.6-2.1,1.7-4.8,1.4-6.5l-1-0.4c-0.2,0-0.3,0-0.5,0.1
	c-1.2,0.4-3.1,2.7-4.2,2.1l-1.4-2.2c-1.5-2.3-0.8-3.2-4.1-0.9c-0.9,0.6-1.3,1.3-2.7,0.8c-0.9-1.1-1.4-4-2.8-4.2
	c-1.5-0.2-3.2,2.8-4.9,2.1c-1.4-0.6-1.3-3.9-2.9-4.3c-1-0.2-3.9,2.5-4.9,2.2c-0.9-0.7-1-1.3-1.4-2.2c-0.2-0.4-0.3-0.8-0.6-1.2
	c-1.5-2.6-2.3,0.1-5.7,1.2c-1.3-0.7-2.1-3.9-3.1-4.3c-1.8-0.2-4,2.4-5,2.1C147.1,114.3,146.8,110.9,144.9,110.3"/>
<path class="st1" d="M126.4,176c1.8,1.2,2-0.2,4.1-1.2c0.6-0.3,1.1-0.6,1.4-0.6c1.6,0.7,1.7,3.6,3.3,4.4l3.1-1.5l0.1-0.1l0.3-0.2
	c3.1-1.9,2.4,3.8,4.4,4c0.9,0.1,3.8-2.5,4.8-2.1s1.4,2.1,1.9,3.3c1.5,2.9,4.1-1.6,5.8-1.2c1.3,0.4,1.5,3.6,2.9,4.2
	c1.6,0.8,3.1-2.1,4.7-2.1c1,0,1.3,1.2,1.6,1.8c0.4,1,0.8,1.2,1.3,2.4c1.5,0.5,1.1,0.3,2.9-0.9c0.6-0.4,1.7-1.5,2.6-1
	c1.4,0.7,1.1,3.9,3.8,4.4c0.9-1.6,1.4-4.4,2-6.4L128,169.6C127.3,171.1,126.3,174.6,126.4,176"/>
<path class="st1" d="M151.7,87l-0.6,0.4c-10.4,9.7-25.4,12.8-29.1,13.5l-2.7-2c0.3-0.2,0.5-0.4,0.7-0.7c2.3-3.6,4.2-3.9,7.9-4.5
	c1.3-0.2,2.8-0.4,4.5-0.9c1.2-0.3,1.9-1.5,1.6-2.6c0,0,0,0,0,0c-0.3-1.2-1.5-1.9-2.6-1.6c-1.5,0.4-2.9,0.6-4.1,0.8
	c-1.6,0.2-3.2,0.6-4.8,1.1c3.2-5.8,4.2-12.6,2.6-19c-0.3-1.2-1.5-1.9-2.7-1.6s-1.9,1.5-1.6,2.7c2,7.7-0.9,16.7-6.6,20.9
	c-0.3,0.2-0.5,0.6-0.7,0.9l-2.8-2.2c-0.4-19.5,5-32.3,5.1-32.4l0.2-0.5V59c0.1-0.8,0.8-4,3.3-4.1c0.6,0,1.3,0.1,1.8,0.4v0.3
	c0.2,3,2.7,5.2,5.6,5.1c0.3,0,0.5,0,0.8-0.1l1.5-0.4c0.4,0.1,0.7,0.3,0.9,0.7v1.6c0.2,3,2.7,5.2,5.6,5.1c0.3,0,0.5,0,0.8-0.1L138,67
	c0.4,0.1,0.7,0.3,0.9,0.7v1.6c0,1.6,0.8,3.1,2.1,4c1.2,1,2.8,1.4,4.3,1l1.5-0.4c0.4,0.1,0.7,0.3,0.9,0.7v1.6c0,1.6,0.8,3.1,2.1,4
	c1.2,1,2.8,1.3,4.3,1c0.5,0.5,0.9,1.1,0.9,1.8C155.5,85.1,152.3,86.7,151.7,87L151.7,87z M127.4,118.9l-3.5,4.5L91.5,89.6
	c2.3-2.1,5.9-2.3,8.4-0.3l26.4,20.5C129.1,112,129.6,116.1,127.4,118.9L127.4,118.9z M106.9,145.3c-2.2,2.9-6.3,3.4-9.2,1.2
	c0,0,0,0,0,0l-6.3-4.9l-14.3-11l-5.8-4.5c-2.8-2.2-3.4-6.3-1.2-9.2l4.7-6l32.5,34L106.9,145.3z M82.1,176.2l-0.2,0.5v0.3
	c-0.1,0.8-0.8,4-3.3,4.1c-0.6,0-1.3-0.1-1.8-0.4v-0.3c0-1.6-0.8-3.1-2.1-4c-1.1-0.9-2.4-1.3-3.8-1.1c-0.2,0-0.4,0.1-0.6,0.1
	l-1.5,0.4c-0.4-0.1-0.7-0.3-0.9-0.7v-1.6c-0.2-3-2.7-5.2-5.6-5.1c-0.3,0-0.5,0-0.8,0.1L60,169c-0.4-0.1-0.7-0.3-0.9-0.7v-1.6
	c0-1.6-0.8-3.1-2.1-4c-1.2-1-2.8-1.4-4.3-1l-1.5,0.4c-0.4-0.1-0.8-0.3-1-0.7v-1.6c0-1.6-0.8-3.1-2.1-4c-1.2-1-2.8-1.3-4.3-1
	c-0.5-0.5-0.9-1.1-1-1.9c-0.4-2.1,2.8-3.8,3.4-4.1l0.3-0.2l0.2-0.2c10.4-9.6,25.4-12.8,29.2-13.4l2.7,2.1c-0.2,0.2-0.4,0.4-0.6,0.6
	c-2.3,3.6-4.2,3.9-7.9,4.5c-1.3,0.2-2.8,0.4-4.5,0.9c-1.2,0.3-1.8,1.5-1.5,2.7c0.3,1,1.3,1.7,2.3,1.6l0.3-0.1
	c1.5-0.4,2.8-0.6,4.1-0.8c1.6-0.2,3.2-0.6,4.8-1.1c-3.3,5.8-4.2,12.6-2.6,19c0.3,1.1,1.3,1.8,2.4,1.6h0.3c1.2-0.3,1.9-1.5,1.6-2.6
	c-2-7.7,0.9-16.7,6.6-20.9c0.3-0.2,0.5-0.5,0.7-0.8l2.7,2.1C87.6,163.3,82.2,176.1,82.1,176.2L82.1,176.2z M110.1,141.3l-32.5-34
	L86.3,96l2.4-3l32.5,34L110.1,141.3z M156.3,77.4c-1-0.6-2.2-0.8-3.4-0.5c-0.4-0.1-0.7-0.3-0.9-0.7v-1.6c-0.2-3-2.7-5.2-5.6-5.1
	c-0.3,0-0.5,0-0.8,0.1l-1.5,0.4c-0.4-0.1-0.7-0.3-0.9-0.7v-1.6c-0.2-3-2.7-5.2-5.7-5.1c-0.3,0-0.5,0-0.8,0.1l-1.5,0.4
	c-0.4-0.1-0.7-0.3-0.9-0.7v-1.6c-0.2-3-2.7-5.2-5.6-5.1c-0.3,0-0.5,0-0.8,0.1l-1.5,0.4c-0.4-0.1-0.7-0.3-0.9-0.7v-0.3
	c0-1.2-0.4-2.3-1.3-3.1c-1.4-1.2-3.2-1.8-5.1-1.7c-1.9,0.1-3.7,1-5,2.5c-1.2,1.6-2.1,3.4-2.4,5.4c-0.8,1.9-5.1,13.3-5.3,30.5l-3.9-3
	c-4.2-3.2-10.1-3-14.1,0.6l-0.1-0.1l-1.1,1.4l-20.5,26.4c-3.7,4.8-2.8,11.6,1.9,15.3l2.8,2.1c-6.5,1.5-18.2,5.3-27.3,13.6
	c-4.2,2.1-6.2,5.4-5.5,8.8c0.4,1.9,1.4,3.6,3,4.6c1,0.6,2.2,0.8,3.4,0.5c0.4,0.1,0.8,0.3,1,0.7v1.6c0.2,3,2.7,5.3,5.7,5.1
	c0.3,0,0.5,0,0.7-0.1l1.4-0.4c0.4,0.1,0.7,0.3,0.9,0.7v1.6c0,1.6,0.8,3.1,2.1,4c1.2,1,2.8,1.4,4.3,1l1.5-0.4c0.4,0.1,0.8,0.3,1,0.7
	v1.6c0,1.6,0.8,3.1,2.1,4c1.2,1,2.8,1.4,4.3,1l1.5-0.4c0.4,0.1,0.7,0.3,0.9,0.7v0.3c0,1.2,0.4,2.3,1.3,3.1c1.4,1.2,3.2,1.8,5.1,1.7
	h0.7c1.7-0.2,3.2-1.1,4.3-2.4c1.3-1.6,2.1-3.4,2.4-5.4c0.8-1.9,5.2-13.3,5.3-30.5l3.5,2.8c4.8,3.6,11.6,2.7,15.2-2l16.6-21.4l3.9-5
	c3.7-4.8,2.8-11.6-1.9-15.3l-2.4-1.9c6.5-1.5,18.2-5.3,27.3-13.6c4.2-2.1,6.2-5.4,5.5-8.8C159,80.2,158,78.5,156.3,77.4L156.3,77.4z
	"/>
<g class="st2">
	<path class="st3" d="M52.4,277.4v-17.5h9v2.9h-5.8v4H61v2.8h-5.4v4.8h5.9v3H52.4z"/>
	<path class="st3" d="M63.9,277.4v-17.5h3.4l4.6,12.2l-0.1-12.2h3.1v17.5h-3.3l-4.6-12.3l0.1,12.3H63.9z"/>
	<path class="st3" d="M80.6,277.4l-3.9-17.5h3.5l2.6,14l2.4-14h3.4l-3.7,17.5H80.6z"/>
	<path class="st3" d="M90.2,268.7c0-1.9,0.1-3.3,0.3-4.5c0.2-1.1,0.4-1.9,0.8-2.5c0.5-0.8,1.1-1.4,1.8-1.7c0.7-0.3,1.6-0.5,2.8-0.5
		c1.2,0,2.1,0.2,2.8,0.5c0.7,0.3,1.3,0.9,1.8,1.7c0.4,0.6,0.6,1.4,0.8,2.5s0.3,2.6,0.3,4.4c0,1.8-0.1,3.3-0.3,4.4
		c-0.2,1.1-0.4,2-0.8,2.5c-0.5,0.8-1.1,1.4-1.8,1.7s-1.6,0.5-2.8,0.5c-1.2,0-2.1-0.2-2.8-0.5c-0.7-0.3-1.3-0.9-1.8-1.7
		c-0.4-0.6-0.6-1.4-0.8-2.5C90.3,272,90.2,270.5,90.2,268.7z M93.5,268.7c0,2.9,0.2,4.7,0.5,5.4c0.3,0.7,1,1.1,1.9,1.1
		c0.9,0,1.5-0.4,1.8-1.1c0.3-0.7,0.5-2.6,0.5-5.5s-0.2-4.7-0.5-5.5c-0.3-0.7-0.9-1.1-1.8-1.1c-0.9,0-1.5,0.4-1.8,1.1
		C93.7,264,93.5,265.8,93.5,268.7z"/>
	<path class="st3" d="M104.2,277.4v-17.5h3.3v14.5h5.9v3H104.2z"/>
	<path class="st3" d="M116.2,277.4v-14.6h-3.8v-2.9h10.8v2.9h-3.8v14.6H116.2z"/>
	<path class="st3" d="M124.5,268.7c0-1.9,0.1-3.3,0.3-4.5s0.4-1.9,0.8-2.5c0.5-0.8,1.1-1.4,1.8-1.7c0.7-0.3,1.6-0.5,2.8-0.5
		s2.1,0.2,2.8,0.5c0.7,0.3,1.3,0.9,1.8,1.7c0.4,0.6,0.6,1.4,0.8,2.5c0.2,1.1,0.3,2.6,0.3,4.4c0,1.8-0.1,3.3-0.3,4.4
		c-0.2,1.1-0.4,2-0.8,2.5c-0.5,0.8-1.1,1.4-1.8,1.7s-1.6,0.5-2.8,0.5s-2.1-0.2-2.8-0.5s-1.3-0.9-1.8-1.7c-0.4-0.6-0.6-1.4-0.8-2.5
		C124.6,272,124.5,270.5,124.5,268.7z M127.9,268.7c0,2.9,0.2,4.7,0.5,5.4s1,1.1,1.9,1.1c0.9,0,1.5-0.4,1.8-1.1
		c0.3-0.7,0.5-2.6,0.5-5.5s-0.2-4.7-0.5-5.5c-0.3-0.7-0.9-1.1-1.8-1.1s-1.5,0.4-1.8,1.1C128,264,127.9,265.8,127.9,268.7z"/>
	<path class="st3" d="M138.5,277.4v-17.5h5.8c1.8,0,3,0.4,3.8,1.1c0.8,0.7,1.2,1.9,1.2,3.5c0,1.1-0.2,2-0.6,2.7s-1,1-1.8,1.2
		c1.5,0.4,2.4,1.7,2.4,3.9c0,0.1,0,0.2,0,0.2l0.1,2.3c0,0.7,0.1,1.2,0.3,1.6c0.1,0.4,0.3,0.7,0.6,1h-3.9c-0.1-0.3-0.2-0.6-0.2-1
		c0-0.4-0.1-1-0.1-1.7l0-1.8v-0.5c0-1-0.2-1.7-0.6-2.1c-0.4-0.4-1.3-0.6-2.6-0.6h-1.1v7.7H138.5z M141.7,267.3h1.9
		c0.9,0,1.6-0.2,2-0.6c0.4-0.4,0.6-1.1,0.6-2c0-0.9-0.2-1.5-0.6-1.8c-0.4-0.3-1.1-0.5-2.2-0.5h-1.6V267.3z"/>
	<path class="st3" d="M152,277.4v-17.5h3.3v17.5H152z"/>
	<path class="st3" d="M157.9,268.7c0-1.9,0.1-3.3,0.3-4.5s0.4-1.9,0.8-2.5c0.5-0.8,1.1-1.4,1.8-1.7c0.7-0.3,1.6-0.5,2.8-0.5
		s2.1,0.2,2.8,0.5c0.7,0.3,1.3,0.9,1.8,1.7c0.4,0.6,0.6,1.4,0.8,2.5c0.2,1.1,0.3,2.6,0.3,4.4c0,1.8-0.1,3.3-0.3,4.4
		c-0.2,1.1-0.4,2-0.8,2.5c-0.5,0.8-1.1,1.4-1.8,1.7s-1.6,0.5-2.8,0.5s-2.1-0.2-2.8-0.5s-1.3-0.9-1.8-1.7c-0.4-0.6-0.6-1.4-0.8-2.5
		C158,272,157.9,270.5,157.9,268.7z M161.2,268.7c0,2.9,0.2,4.7,0.5,5.4s1,1.1,1.9,1.1c0.9,0,1.5-0.4,1.8-1.1
		c0.3-0.7,0.5-2.6,0.5-5.5s-0.2-4.7-0.5-5.5c-0.3-0.7-0.9-1.1-1.8-1.1s-1.5,0.4-1.8,1.1C161.4,264,161.2,265.8,161.2,268.7z"/>
	<path class="st3" d="M171.6,271.3h3.3v1.1c0,1.1,0.1,1.8,0.4,2.2c0.3,0.4,0.7,0.6,1.4,0.6c0.7,0,1.2-0.2,1.6-0.5
		c0.4-0.3,0.5-0.9,0.5-1.5c0-0.5-0.1-1-0.4-1.3s-0.8-0.9-1.6-1.4l-1.7-1.2c-1.4-1-2.4-1.8-2.7-2.5c-0.4-0.7-0.6-1.5-0.6-2.5
		c0-1.5,0.4-2.6,1.3-3.5c0.9-0.8,2.1-1.3,3.6-1.3c1.6,0,2.9,0.4,3.7,1.3c0.9,0.9,1.3,2.2,1.3,3.8c0,0.2,0,0.3,0,0.4
		c0,0.1,0,0.2,0,0.2h-3.1v-0.5c0-0.9-0.2-1.6-0.5-2s-0.8-0.6-1.5-0.6c-0.5,0-0.9,0.2-1.2,0.5c-0.3,0.3-0.4,0.7-0.4,1.3
		c0,0.7,0.7,1.5,2,2.4c0,0,0,0,0,0l1.8,1.2c1.3,0.8,2.1,1.7,2.6,2.4c0.5,0.8,0.7,1.7,0.7,2.9c0,1.6-0.5,2.8-1.4,3.7
		c-0.9,0.9-2.2,1.3-3.9,1.3c-1.8,0-3.1-0.5-3.9-1.4s-1.3-2.3-1.3-4.2C171.5,272.1,171.5,271.8,171.6,271.3L171.6,271.3z"/>
</g>
</svg>
