<?xml version="1.0" encoding="utf-8"?>
<!-- Generator: Adobe Illustrator 23.0.0, SVG Export Plug-In . SVG Version: 6.00 Build 0)  -->
<svg version="1.1" id="Layer_1" xmlns="http://www.w3.org/2000/svg" xmlns:xlink="http://www.w3.org/1999/xlink" x="0px" y="0px"
	 viewBox="0 0 236 273.6" style="enable-background:new 0 0 236 273.6;" xml:space="preserve">
<style type="text/css">
	.st0{fill-rule:evenodd;clip-rule:evenodd;fill:#FDB338;}
	.st1{fill:#FDB338;}
</style>
<title>latas</title>
<path class="st0" d="M198.4,37.6C154-6.8,82-6.8,37.6,37.6s-44.4,116.4,0,160.8s116.4,44.4,160.8,0c21.3-21.3,33.3-50.3,33.3-80.4
	C231.8,87.8,219.8,58.9,198.4,37.6 M118,0c65.2,0,118,52.8,118,118s-52.8,118-118,118S0,183.2,0,118S52.8,0,118,0z"/>
<path class="st0" d="M90.4,186.6h55.1l5.3-8.8H85.2L90.4,186.6z M133.1,51c-1.7-1.9-4.7-2-6.6-0.3c0,0,0,0,0,0l-0.3,0.3
	c-0.9,1-1.2,2.3-1,3.7l1.1,6.3h6.7l1.1-6.4C134.3,53.3,133.9,52,133.1,51z M150.8,75.7h-9.4l0,0c-1.6,0.2-2.8,1.6-2.6,3.2
	c0.1,1.4,1.2,2.5,2.6,2.6l0,0H153V172H82.9V81.5h32.1c1.6,0,2.9-1.4,2.8-3c0-1.6-1.4-2.9-3-2.8H85.2l5.3-8.8h55.1L150.8,75.7z
	 M77.1,78.6c0-0.5,0.2-1,0.5-1.5l0,0l8.8-14.6c0.5-0.9,1.4-1.5,2.5-1.5h31.6l-0.9-5.5c-1.1-5.6,2.6-11,8.2-12.2
	c5.6-1.1,11,2.6,12.2,8.2c0,0.2,0.1,0.4,0.1,0.6c0.2,1.1,0.2,2.3,0,3.4L139,61h8.2c1,0,2,0.5,2.5,1.4l8.8,14.6l0,0
	c0.3,0.4,0.4,1,0.4,1.5l0,0V175c0,0.5-0.2,1-0.4,1.5l0,0l-8.8,14.6c-0.5,0.9-1.5,1.4-2.5,1.4H88.8c-1,0-2-0.5-2.5-1.4l-8.8-14.6l0,0
	c-0.3-0.4-0.4-1-0.4-1.5V78.6z"/>
<path class="st1" d="M90.2,273.2v-17.5h3.3v14.5h5.9v3L90.2,273.2z"/>
<path class="st1" d="M100.3,273.2l3.9-17.5h4.4l4,17.5h-3.5l-0.9-4.4h-3.8l-0.8,4.4H100.3z M104.9,266.2h2.8l-1.4-7.4L104.9,266.2z"
	/>
<path class="st1" d="M115.5,273.2v-14.6h-3.8v-2.9h10.8v2.9h-3.8v14.6H115.5z"/>
<path class="st1" d="M121.7,273.2l4-17.5h4.3l4,17.5h-3.5l-0.9-4.4h-3.8l-0.8,4.4H121.7z M126.4,266.2h2.8l-1.4-7.4L126.4,266.2z"/>
<path class="st1" d="M135.4,267.1h3.3v1.1c-0.1,0.8,0.1,1.5,0.4,2.2c0.3,0.4,0.9,0.6,1.4,0.6c0.6,0,1.1-0.1,1.6-0.5
	c0.4-0.4,0.6-1,0.5-1.5c0-0.5-0.1-0.9-0.4-1.4c-0.5-0.6-1-1.1-1.6-1.5l-1.7-1.2c-1.1-0.6-2-1.5-2.7-2.5c-0.4-0.8-0.6-1.6-0.6-2.5
	c-0.1-1.3,0.4-2.5,1.3-3.5c2.2-1.7,5.2-1.7,7.3,0.1c0.9,1,1.4,2.4,1.3,3.8c0,0.2,0,0.3,0,0.4s0,0.2,0,0.2h-3.1v-0.5
	c0.1-0.7-0.1-1.4-0.5-2c-0.4-0.4-1-0.7-1.5-0.6c-0.5,0-0.9,0.1-1.2,0.5c-0.3,0.3-0.5,0.8-0.4,1.3c0,0.7,0.7,1.5,2,2.4l0,0l1.8,1.2
	c1,0.6,1.9,1.4,2.6,2.4c0.5,0.9,0.7,1.9,0.7,2.9c0.1,1.4-0.4,2.7-1.4,3.7c-1.1,0.9-2.5,1.4-3.9,1.3c-1.4,0.1-2.9-0.4-3.9-1.4
	c-0.9-1.2-1.4-2.7-1.3-4.2C135.3,267.9,135.3,267.6,135.4,267.1L135.4,267.1z"/>
</svg>
