<?xml version="1.0" encoding="utf-8"?>
<!-- Generator: Adobe Illustrator 23.0.0, SVG Export Plug-In . SVG Version: 6.00 Build 0)  -->
<svg version="1.1" id="Layer_1" xmlns="http://www.w3.org/2000/svg" xmlns:xlink="http://www.w3.org/1999/xlink" x="0px" y="0px"
	 viewBox="0 0 236 283" style="enable-background:new 0 0 236 283;" xml:space="preserve">
<style type="text/css">
	.st0{enable-background:new    ;}
	.st1{fill:#171415;}
	.st2{fill-rule:evenodd;clip-rule:evenodd;fill:#FEFEFE;}
	.st3{fill-rule:evenodd;clip-rule:evenodd;fill:#171415;}
	.st4{fill:#F89E3A;}
</style>
<title>papelsucio</title>
<g class="st0">
	<path class="st1" d="M56.4,277.4v-17.5h5.7c1.7,0,3,0.4,3.7,1.2c0.8,0.8,1.1,2,1.1,3.8c0,1.7-0.4,3-1.2,3.9c-0.8,0.8-2,1.3-3.7,1.3
		h-2.4v7.4H56.4z M59.6,267.6h1.4c1,0,1.7-0.2,2.1-0.6c0.4-0.4,0.6-1.1,0.6-2c0-1-0.2-1.6-0.6-2s-1.1-0.6-2.1-0.6h-1.4V267.6z"/>
	<path class="st1" d="M66.8,277.4l3.9-17.5h4.4l4,17.5h-3.5l-0.9-4.4h-3.8l-0.8,4.4H66.8z M71.5,270.4h2.8l-1.4-7.3L71.5,270.4z"/>
	<path class="st1" d="M80.8,277.4v-17.5h5.7c1.7,0,3,0.4,3.7,1.2c0.8,0.8,1.1,2,1.1,3.8c0,1.7-0.4,3-1.2,3.9c-0.8,0.8-2,1.3-3.7,1.3
		H84v7.4H80.8z M83.9,267.6h1.4c1,0,1.7-0.2,2.1-0.6c0.4-0.4,0.6-1.1,0.6-2c0-1-0.2-1.6-0.6-2s-1.1-0.6-2.1-0.6h-1.4V267.6z"/>
	<path class="st1" d="M93.5,277.4v-17.5h9v2.9h-5.8v4h5.4v2.8h-5.4v4.8h5.9v3H93.5z"/>
	<path class="st1" d="M105,277.4v-17.5h3.3v14.5h5.9v3H105z"/>
	<path class="st1" d="M121.8,271.3h3.3v1.1c0,1.1,0.1,1.8,0.4,2.2c0.3,0.4,0.7,0.6,1.4,0.6c0.7,0,1.2-0.2,1.6-0.5
		c0.4-0.3,0.5-0.9,0.5-1.5c0-0.5-0.1-1-0.4-1.3s-0.8-0.9-1.6-1.4l-1.7-1.2c-1.4-1-2.4-1.8-2.7-2.5s-0.6-1.5-0.6-2.5
		c0-1.5,0.4-2.6,1.3-3.5c0.9-0.8,2.1-1.3,3.6-1.3c1.6,0,2.9,0.4,3.7,1.3s1.3,2.2,1.3,3.8c0,0.2,0,0.3,0,0.4c0,0.1,0,0.2,0,0.2h-3.1
		v-0.5c0-0.9-0.2-1.6-0.5-2s-0.8-0.6-1.5-0.6c-0.5,0-0.9,0.2-1.2,0.5s-0.4,0.7-0.4,1.3c0,0.7,0.7,1.5,2,2.4c0,0,0,0,0,0l1.8,1.2
		c1.3,0.8,2.1,1.7,2.6,2.4c0.5,0.8,0.7,1.7,0.7,2.9c0,1.6-0.5,2.8-1.4,3.7c-0.9,0.9-2.2,1.3-3.9,1.3c-1.8,0-3.1-0.5-3.9-1.4
		c-0.9-0.9-1.3-2.3-1.3-4.2C121.8,272.1,121.8,271.8,121.8,271.3L121.8,271.3z"/>
	<path class="st1" d="M134.9,259.9h3.3v11.8c0,1.3,0.2,2.3,0.5,2.7c0.3,0.5,0.9,0.7,1.8,0.7c0.8,0,1.4-0.2,1.7-0.7s0.5-1.4,0.5-2.8
		v-11.8h3.2V272c0,1.2-0.1,2-0.2,2.6s-0.4,1-0.7,1.4c-0.5,0.6-1.1,1.1-1.9,1.4c-0.8,0.3-1.7,0.5-2.8,0.5c-2,0-3.4-0.4-4.2-1.3
		c-0.8-0.9-1.2-2.4-1.2-4.5V259.9z"/>
	<path class="st1" d="M155.8,271.2h3.2c0,0.1,0,0.2,0,0.3s0,0.3,0,0.3c0,2-0.4,3.5-1.3,4.5s-2.2,1.5-3.9,1.5c-0.8,0-1.5-0.1-2.1-0.3
		s-1.1-0.6-1.5-1c-0.6-0.6-1-1.4-1.3-2.5c-0.2-1.1-0.4-2.9-0.4-5.5c0-1.8,0.1-3.2,0.2-4.3c0.1-1.1,0.4-1.9,0.7-2.4
		c0.5-0.8,1.1-1.4,1.8-1.7c0.7-0.4,1.6-0.5,2.7-0.5c1.8,0,3.1,0.5,3.9,1.4c0.8,0.9,1.2,2.4,1.2,4.5h-3.2v-0.4c0-0.9-0.2-1.7-0.5-2.1
		c-0.3-0.5-0.8-0.7-1.4-0.7c-0.8,0-1.3,0.3-1.6,1c-0.3,0.6-0.4,2.4-0.4,5.3c0,3.2,0.1,5.1,0.4,5.8c0.3,0.7,0.8,1,1.6,1
		c0.7,0,1.2-0.3,1.5-0.8s0.4-1.5,0.4-3V271.2z"/>
	<path class="st1" d="M161.6,277.4v-17.5h3.3v17.5H161.6z"/>
	<path class="st1" d="M167.5,268.7c0-1.9,0.1-3.3,0.3-4.5s0.4-1.9,0.8-2.5c0.5-0.8,1.1-1.4,1.8-1.7c0.7-0.3,1.6-0.5,2.8-0.5
		s2.1,0.2,2.8,0.5c0.7,0.3,1.3,0.9,1.8,1.7c0.4,0.6,0.6,1.4,0.8,2.5c0.2,1.1,0.3,2.6,0.3,4.4c0,1.8-0.1,3.3-0.3,4.4
		c-0.2,1.1-0.4,2-0.8,2.5c-0.5,0.8-1.1,1.4-1.8,1.7s-1.6,0.5-2.8,0.5s-2.1-0.2-2.8-0.5s-1.3-0.9-1.8-1.7c-0.4-0.6-0.6-1.4-0.8-2.5
		C167.6,272,167.5,270.5,167.5,268.7z M170.8,268.7c0,2.9,0.2,4.7,0.5,5.4s1,1.1,1.9,1.1c0.9,0,1.5-0.4,1.8-1.1
		c0.3-0.7,0.5-2.6,0.5-5.5s-0.2-4.7-0.5-5.5c-0.3-0.7-0.9-1.1-1.8-1.1s-1.5,0.4-1.8,1.1C171,264,170.8,265.8,170.8,268.7z"/>
</g>
<path class="st2" d="M118,0c65.2,0,118,52.8,118,118s-52.8,118-118,118S0,183.2,0,118S52.8,0,118,0"/>
<path class="st3" d="M198.4,37.6C154-6.8,82-6.8,37.6,37.6s-44.4,116.4,0,160.8s116.4,44.4,160.8,0c21.3-21.3,33.3-50.3,33.3-80.4
	C231.8,87.8,219.8,58.9,198.4,37.6 M118,0c65.2,0,118,52.8,118,118s-52.8,118-118,118S0,183.2,0,118S52.8,0,118,0z"/>
<path class="st4" d="M7.8,105.2L7.8,105.2c0-0.2,0-0.3-0.1-0.5C7.8,104.8,7.8,105,7.8,105.2z M219.9,105.2L219.9,105.2
	c0.1-0.5,0.1-0.9,0.2-1.4l0,0C220,104.2,219.9,104.7,219.9,105.2L219.9,105.2z"/>
<path class="st3" d="M138.5,163.4c-0.6,1.7-2,3-3.8,3.3c-1.9,0.5-3.9,0-5.3-1.3L129,165c-1.6-1.8-4.6-5-8.2-4.5
	c-2.6,0.4-4.9,2.6-7,6.6c-1.2,2.3-4.5,3.8-7.8,3.4c-3.1-0.3-5.5-2.6-6.1-5.7c-0.8-3.4,0.8-5.6,2.2-7.6c1.2-1.6,2.4-3.3,1.4-5.3
	s-2.9-2.8-4.8-3.7c-2.6-1.3-4.3-2.1-4-4.2c0.1-0.9,0.5-2.4,1.9-2.8c0.2-0.1,0.5-0.1,0.7-0.1c1.7,0,3.9,1.5,5.9,3.9
	c2.3,2.8,5,2.7,6.8,1.4c0.9-0.7,1.5-1.6,1.7-2.7c0.3-1.1,0-2.3-0.7-3.2c-0.2-0.3-0.4-0.5-0.7-0.8c-1.1-1.2-1.8-2.2-1.3-3.5
	c0.2-0.7,0.7-1.4,1.4-1.7c1.1-0.3,2.3-0.2,3.3,0.4c1.4,0.9,3.2,1,4.7,0.2c1.8-1,3-3.4,3.4-7.1c0-1.5,1.3-2.8,2.9-2.7
	c2.1,0,3.9,1.5,4.2,3.5c0.2,1.3-0.9,2.6-2.1,4.1c-1.4,1.8-3.1,3.8-2.7,6.3c0.2,1,0.7,1.8,1.6,2.3c1,0.7,2.3,0.9,3.5,0.6
	c1.2-0.4,2.3-1.1,3.1-2c0.3-0.3,0.6-0.5,0.9-0.8c1.5-0.6,3.2,0,3.9,1.5c0.8,1.4,0.8,3.4-1.5,5c-1.7,1.1-2.9,2.9-3.1,5
	c-0.1,1.6,0.4,4,3.2,6.6C138,159.5,138.9,161.6,138.5,163.4"/>
<path class="st3" d="M137,156.2c-1.9-1.7-2.8-3.5-2.7-5.2c0.2-1.5,1-2.9,2.4-3.7c3.3-2.3,3.2-5.4,2-7.4c-1.2-2.3-3.9-3.2-6.2-2.2
	c-0.5,0.3-1,0.7-1.4,1.1c-0.6,0.7-1.4,1.2-2.3,1.5c-0.7,0.2-1.4,0.1-2-0.3c-0.4-0.2-0.7-0.6-0.8-1.1c-0.3-1.7,1-3.2,2.3-4.9
	c1.3-1.6,2.8-3.5,2.4-5.5c-0.5-2.9-3-5.1-6-5c-2.4,0-4.5,1.9-4.6,4.3c-0.3,3-1.2,5.1-2.4,5.8c-1,0.4-2.2,0.3-3.1-0.3
	c-1.5-0.9-3.2-1-4.8-0.5c-1.2,0.5-2.1,1.5-2.5,2.7c-0.8,2.4,0.7,4.1,1.7,5.3c0.2,0.3,0.4,0.5,0.6,0.7c0.8,1.1,0.5,2.7-0.7,3.4
	c0,0,0,0,0,0c-1.6,1.2-3.2,0.3-4.3-1.1c-2.8-3.5-6-5.2-8.5-4.4c-1.7,0.5-2.9,2.1-3.2,4.3c-0.4,3.4,2.5,4.8,5,6
	c1.6,0.8,3.3,1.6,4,2.9c0.5,0.9-0.1,1.8-1.3,3.4c-1.5,2-3.5,4.8-2.5,9c0.7,3.8,3.8,6.6,7.6,7c0.4,0.1,0.9,0.1,1.3,0.1
	c3.5,0,6.9-1.8,8.3-4.4c1.8-3.5,3.7-5.4,5.6-5.6c2.7-0.4,5.3,2.4,6.6,3.9l0.4,0.4c1.8,1.9,4.6,2.6,7.1,1.8c2.4-0.5,4.3-2.3,5-4.6
	C141,160.6,138.9,157.9,137,156.2"/>
<path class="st3" d="M98.1,127.8c-0.3,0.4-0.8,0.7-1.4,0.7c-1.8,0.1-4.3-1.3-6-3.4c-1.2-1.2-1.6-3-1-4.7c0.4-1,1.4-1.7,2.5-1.7h0.1
	c2.5,0,4.2,2.5,4.8,3.6C98.2,124.1,98.8,126.7,98.1,127.8"/>
<path class="st3" d="M100.1,125.3c-0.2-1.4-0.7-2.8-1.4-4c-1.6-2.9-4-4.6-6.5-4.5c-1.8,0.1-3.4,1.2-4.1,2.8
	c-0.9,2.2-0.4,4.8,1.3,6.5c2,2.4,4.9,4,7.2,4h0.3c1.1,0,2.1-0.6,2.8-1.5C100.1,127.7,100.3,126.4,100.1,125.3"/>
<path class="st3" d="M112.1,124.6c-0.3,0.3-1,0.2-1.9-0.2c-0.9-0.3-1.6-1.1-1.7-2.1c0-0.7,0.4-1.3,1-1.6c0.3-0.2,0.6-0.2,0.9,0
	c0.9,0.7,1.6,1.6,1.9,2.7C112.4,123.9,112.3,124.3,112.1,124.6"/>
<path class="st3" d="M114.1,123.2c-0.4-1.7-1.4-3.1-2.9-4c-0.8-0.4-1.7-0.4-2.5,0c-1.2,0.6-2,1.9-2,3.2c0.1,1.7,1.2,3.1,2.8,3.7
	c0.6,0.3,1.3,0.5,2,0.5c0.6,0,1.2-0.2,1.7-0.5C113.9,125.3,114.3,124.2,114.1,123.2"/>
<path class="st3" d="M138,131c-0.3,0.1-0.4,0-0.4-0.1c-0.4-1-0.4-2.1,0.1-3c0.2-0.9,0.9-1.7,1.9-2c1.6-0.2,1.6,0.3,1.7,0.6
	C141.4,127.9,139.5,130.7,138,131"/>
<path class="st3" d="M142.9,126.2c-0.1-0.7-0.5-1.4-1.2-1.7c-0.8-0.4-1.7-0.5-2.5-0.3c-1.6,0.4-2.8,1.6-3.3,3.1
	c-0.6,1.5-0.7,3.6,0.2,4.8c0.4,0.5,1,0.8,1.7,0.8c0.2,0,0.3,0,0.5,0c1.4-0.4,2.6-1.3,3.4-2.6C142.5,129.1,143,127.7,142.9,126.2"/>
<path class="st3" d="M146.4,174.5c-0.3,1.1-1.5,1.6-2.5,1.3c-0.1,0-0.1,0-0.2-0.1c-1.3-0.4-2.1-1.7-1.9-3.1c0.2-0.6,0.7-1,1.3-1.1
	c0.1,0,0.3,0,0.4,0c1,0,2,0.5,2.7,1.3C146.6,173.3,146.7,174,146.4,174.5"/>
<path class="st3" d="M147.6,171.7c-1.1-1.5-3-2.2-4.8-2c-1.3,0.2-2.3,1.1-2.7,2.3c-0.7,2.2,0.9,4.5,2.9,5.3c0.5,0.2,1,0.3,1.5,0.3
	c1.5,0,2.9-1,3.5-2.4C148.6,174.1,148.4,172.7,147.6,171.7"/>
<path class="st3" d="M76,59.6h60.7v21c0,1.3,1,2.4,2.3,2.4c0,0,0,0,0,0h21v93.4H76V59.6z M156.8,78.3h-15.4V62.9L156.8,78.3z
	 M71.3,57.3v121.4c0,1.3,1,2.3,2.3,2.3h88.8c1.3,0,2.3-1,2.3-2.3V80.6c0-0.1,0-0.1,0-0.2c0-0.2,0-0.4-0.1-0.6c0-0.1,0-0.1-0.1-0.2
	c-0.1-0.3-0.3-0.5-0.6-0.7l-23.3-23.4c-0.2-0.2-0.4-0.4-0.7-0.5l-0.2-0.1c-0.2-0.1-0.4-0.1-0.6-0.1c0,0-0.1,0-0.1,0H73.6
	C72.3,54.9,71.3,56,71.3,57.3L71.3,57.3z"/>
</svg>
