<?xml version="1.0" encoding="utf-8"?>
<!-- Generator: Adobe Illustrator 23.0.0, SVG Export Plug-In . SVG Version: 6.00 Build 0)  -->
<svg version="1.1" id="Layer_1" xmlns="http://www.w3.org/2000/svg" xmlns:xlink="http://www.w3.org/1999/xlink" x="0px" y="0px"
	 viewBox="0 0 236 283" style="enable-background:new 0 0 236 283;" xml:space="preserve">
<style type="text/css">
	.st0{fill:#FF9900;}
	.st1{fill-rule:evenodd;clip-rule:evenodd;fill:#FF9900;}
	.st2{enable-background:new    ;}
</style>
<title>te</title>
<path class="st0" d="M159.5,122.6c-3.3-1.2-4-3.7-3.9-7c0.2-10.4,0.4-20.8-0.1-31.2c-0.1-5.1-1.2-10.1-3.3-14.8
	c-5.9-12.4-19.6-19.1-33-16.1c-14,3-23.4,14.5-24,29.5c-0.2,5.1,0,10.1,0,16.4c-13.9-5-18.6,5.3-24.5,13.4c-1.4,2-2.2,4.3-2.3,6.8
	c-0.2,16-0.1,32.1-0.1,48.1c0,8.4,3.6,12,12.1,12.1c11.6,0.1,23.1,0.1,34.7,0c9,0,12.6-3.5,12.6-12.6c0-15.7,0-31.4,0-47.1
	c0-1.5,0.3-3.4-0.5-4.3c-6.3-7.7-9.5-19.9-23.5-17.1c-0.8,0-1.5,0-2.3-0.2c0-7.2-1-14.2,0.2-20.9c2.3-12.6,13.7-20.1,26.8-18.8
	c11.6,1.1,20.9,11.2,21.2,23.6c0.3,9.7-0.3,19.5,0.3,29.2c0.4,6.6-1.3,10.9-7.5,13.6c-1.9,0.8-3.9,3.4-4.1,5.4
	c-0.5,6.6-0.2,13.2-0.2,19.8c0,3.1,1.5,4.5,4.6,4.5c6.6,0,13.2,0,19.8,0c3.3,0,4.8-1.6,4.8-4.9c-0.1-4.3-0.4-8.6,0.1-12.9
	C168.4,129.9,166.2,125,159.5,122.6z M104.9,148.6c-0.3-3.1,1.1-4.7,7.5-7.8c3,7.4,1.9,13-3.6,16.8c0.5-1.3,0.9-2.6,1.2-4
	c0.3-2,0.3-4,0.4-6L104.9,148.6z M100.7,170.7c-2-4.6-3.6-9-5.8-13.1c-0.7-1.4-2.8-2.1-4.2-3.1c-0.3,1.7-1.2,3.7-0.7,5.2
	c1.4,4.4,3.5,8.5,5.5,13.3c-12.2-1.5-16.8-17.1-10.9-32.1C98.4,145.2,108.4,160.4,100.7,170.7L100.7,170.7z M116.1,114.8
	c0-1.1,0-2.3,0-4.3c3.7,3.5,6.1,6.4,6,11.2c-0.3,15.2-0.1,30.4-0.1,45.6c0,5.9-0.8,6.6-6.6,6.6c-3.2,0-6.3,0-9.5,0
	c1.2-2,2.1-4.2,2.8-6.5c0.4-1.3,0.8-3,1.8-3.7c9.4-7.5,11.6-15.3,7.4-26.5c-1.3-3.4-3.3-4.5-6.4-2.6c-4,2.5-7.9,5.3-12.2,8.1
	c-2.1-1.5-4.3-3.2-6.7-4.6c-10.8-6.6-12.4-5.9-15.1,6.4c-2.4,10.8-2.1,21.8,7,29.2l0.2,0.1h-4.4c-4.4,0.1-6.3-1.6-6.3-6.1
	c0.1-15.9-0.2-31.7,0.2-47.6c0.1-3.2,2.6-6.3,3.9-9.5l1.4,0.6c1.3,10,1.3,10,12,10c6,0,11.9,0,17.8,0
	C115.9,121.4,116,121.3,116.1,114.8L116.1,114.8z M110.3,104.5v11.2H85.8v-11h9l0.7,1.1c-0.9,0.5-1.7,1.1-2.5,1.7
	c-0.8,0.8-2.3,2.3-2,2.8c0.6,1.2,1.7,2.1,3,2.5c2.6,0.3,5.3,0.3,7.9,0c1.2-0.2,2.3-1.4,3.4-2.2c-0.8-1.1-1.5-2.2-2.4-3.2
	c-0.7-0.8-1.5-1.4-3.2-2.9L110.3,104.5z M161.8,137.4c-0.5,3.5-0.1,7.2-0.1,11.2h-17.8c0-5.4-0.1-10.5,0-15.6
	c0.1-4.3,7.9-8.1,11.7-6.3C160.4,128.9,162.5,132,161.8,137.4L161.8,137.4z"/>
<path class="st1" d="M198.4,37.6C154-6.9,82-6.9,37.5,37.6s-44.4,116.4,0,160.9s116.4,44.4,160.9,0c21.3-21.3,33.3-50.3,33.3-80.5
	C231.8,87.8,219.8,58.9,198.4,37.6 M118,0c65.2,0,118,52.8,118,118s-52.8,118-118,118S0,183.2,0,118S52.8,0,118,0z"/>
<g class="st2">
	<path class="st0" d="M40.9,271.3h3.3v1.1c0,1.1,0.1,1.8,0.4,2.2c0.3,0.4,0.7,0.6,1.4,0.6c0.7,0,1.2-0.2,1.6-0.5
		c0.4-0.3,0.5-0.9,0.5-1.5c0-0.5-0.1-1-0.4-1.3s-0.8-0.9-1.6-1.4l-1.7-1.2c-1.4-1-2.4-1.8-2.7-2.5c-0.4-0.7-0.6-1.5-0.6-2.5
		c0-1.5,0.4-2.6,1.3-3.5c0.9-0.8,2.1-1.3,3.6-1.3c1.6,0,2.9,0.4,3.7,1.3c0.9,0.9,1.3,2.2,1.3,3.8c0,0.2,0,0.3,0,0.4
		c0,0.1,0,0.2,0,0.2h-3.1v-0.5c0-0.9-0.2-1.6-0.5-2s-0.8-0.6-1.5-0.6c-0.5,0-0.9,0.2-1.2,0.5c-0.3,0.3-0.4,0.7-0.4,1.3
		c0,0.7,0.7,1.5,2,2.4c0,0,0,0,0,0l1.8,1.2c1.3,0.8,2.1,1.7,2.6,2.4s0.7,1.7,0.7,2.9c0,1.6-0.5,2.8-1.4,3.7
		c-0.9,0.9-2.2,1.3-3.9,1.3c-1.8,0-3.1-0.5-3.9-1.4c-0.9-0.9-1.3-2.3-1.3-4.2C40.8,272.1,40.9,271.8,40.9,271.3L40.9,271.3z"/>
	<path class="st0" d="M52.7,277.4l3.9-17.5H61l4,17.5h-3.5l-0.9-4.4h-3.8l-0.8,4.4H52.7z M57.4,270.4h2.8l-1.4-7.3L57.4,270.4z"/>
	<path class="st0" d="M74.9,277.3c-0.4,0.2-0.8,0.3-1.3,0.4s-1,0.1-1.6,0.1c-1.2,0-2.1-0.2-2.8-0.5c-0.7-0.3-1.3-0.9-1.8-1.7
		c-0.4-0.6-0.6-1.4-0.8-2.5c-0.2-1.1-0.3-2.6-0.3-4.4c0-1.8,0.1-3.3,0.3-4.4c0.2-1.1,0.4-1.9,0.8-2.5c0.5-0.8,1.1-1.4,1.8-1.7
		c0.7-0.3,1.6-0.5,2.8-0.5c1.2,0,2.1,0.2,2.8,0.5c0.7,0.3,1.3,0.9,1.8,1.7c0.4,0.6,0.6,1.4,0.8,2.5c0.2,1.1,0.3,2.6,0.3,4.4
		c0,1.9-0.1,3.5-0.3,4.6c-0.2,1.1-0.4,1.9-0.8,2.4l2,2l-1.7,1.7L74.9,277.3z M72.8,275.1l-1-1l1.6-1.6l0.7,0.7
		c0.1-0.6,0.1-1.2,0.2-1.8c0-0.6,0.1-1.3,0.1-2.1c0-3.3-0.2-5.3-0.5-6s-1-1.2-1.9-1.2c-0.9,0-1.5,0.4-1.8,1.1
		c-0.3,0.7-0.5,2.6-0.5,5.5c0,2.8,0.2,4.6,0.5,5.4c0.3,0.8,0.9,1.2,1.7,1.2c0.1,0,0.2,0,0.3,0C72.4,275.2,72.6,275.2,72.8,275.1z"/>
	<path class="st0" d="M80.4,259.9h3.3v11.8c0,1.3,0.2,2.3,0.5,2.7s0.9,0.7,1.8,0.7c0.8,0,1.4-0.2,1.7-0.7c0.3-0.5,0.5-1.4,0.5-2.8
		v-11.8h3.2V272c0,1.2-0.1,2-0.2,2.6c-0.1,0.5-0.4,1-0.7,1.4c-0.5,0.6-1.1,1.1-1.9,1.4c-0.8,0.3-1.7,0.5-2.8,0.5
		c-2,0-3.4-0.4-4.2-1.3c-0.8-0.9-1.2-2.4-1.2-4.5V259.9z"/>
	<path class="st0" d="M94.3,277.4v-17.5h3.3v17.5H94.3z"/>
	<path class="st0" d="M103,277.4v-14.6h-3.8v-2.9H110v2.9h-3.8v14.6H103z"/>
	<path class="st0" d="M111.4,268.7c0-1.9,0.1-3.3,0.3-4.5c0.2-1.1,0.4-1.9,0.8-2.5c0.5-0.8,1.1-1.4,1.8-1.7c0.7-0.3,1.6-0.5,2.8-0.5
		c1.2,0,2.1,0.2,2.8,0.5c0.7,0.3,1.3,0.9,1.8,1.7c0.4,0.6,0.6,1.4,0.8,2.5c0.2,1.1,0.3,2.6,0.3,4.4c0,1.8-0.1,3.3-0.3,4.4
		c-0.2,1.1-0.4,2-0.8,2.5c-0.5,0.8-1.1,1.4-1.8,1.7s-1.6,0.5-2.8,0.5c-1.2,0-2.1-0.2-2.8-0.5c-0.7-0.3-1.3-0.9-1.8-1.7
		c-0.4-0.6-0.6-1.4-0.8-2.5C111.5,272,111.4,270.5,111.4,268.7z M114.7,268.7c0,2.9,0.2,4.7,0.5,5.4c0.3,0.7,1,1.1,1.9,1.1
		c0.9,0,1.5-0.4,1.8-1.1c0.3-0.7,0.5-2.6,0.5-5.5s-0.2-4.7-0.5-5.5c-0.3-0.7-0.9-1.1-1.8-1.1c-0.9,0-1.5,0.4-1.8,1.1
		C114.9,264,114.7,265.8,114.7,268.7z"/>
	<path class="st0" d="M125.1,271.3h3.3v1.1c0,1.1,0.1,1.8,0.4,2.2c0.3,0.4,0.7,0.6,1.4,0.6c0.7,0,1.2-0.2,1.6-0.5
		c0.4-0.3,0.5-0.9,0.5-1.5c0-0.5-0.1-1-0.4-1.3s-0.8-0.9-1.6-1.4l-1.7-1.2c-1.4-1-2.4-1.8-2.7-2.5s-0.6-1.5-0.6-2.5
		c0-1.5,0.4-2.6,1.3-3.5c0.9-0.8,2.1-1.3,3.6-1.3c1.6,0,2.9,0.4,3.7,1.3s1.3,2.2,1.3,3.8c0,0.2,0,0.3,0,0.4c0,0.1,0,0.2,0,0.2h-3.1
		v-0.5c0-0.9-0.2-1.6-0.5-2s-0.8-0.6-1.5-0.6c-0.5,0-0.9,0.2-1.2,0.5s-0.4,0.7-0.4,1.3c0,0.7,0.7,1.5,2,2.4c0,0,0,0,0,0l1.8,1.2
		c1.3,0.8,2.1,1.7,2.6,2.4c0.5,0.8,0.7,1.7,0.7,2.9c0,1.6-0.5,2.8-1.4,3.7c-0.9,0.9-2.2,1.3-3.9,1.3c-1.8,0-3.1-0.5-3.9-1.4
		c-0.9-0.9-1.3-2.3-1.3-4.2C125,272.1,125,271.8,125.1,271.3L125.1,271.3z"/>
	<path class="st0" d="M144,277.4v-17.5h5.2c1.1,0,1.9,0.1,2.6,0.3s1.2,0.5,1.6,0.9c0.6,0.6,1,1.4,1.3,2.3s0.4,2.3,0.4,4.3
		c0,2.5-0.1,4.2-0.3,5.3c-0.2,1-0.5,1.9-0.9,2.6c-0.4,0.7-1,1.2-1.7,1.5c-0.7,0.3-2,0.4-3.7,0.4H144z M147.2,274.9h1.4
		c0.7,0,1.3-0.1,1.5-0.2c0.3-0.1,0.5-0.3,0.7-0.5c0.3-0.5,0.5-1.1,0.6-1.9s0.2-2.1,0.2-3.8c0-1.7-0.1-2.9-0.2-3.7
		c-0.2-0.8-0.4-1.4-0.8-1.8c-0.2-0.2-0.4-0.3-0.7-0.4c-0.3-0.1-0.8-0.1-1.4-0.1h-1.4V274.9z"/>
	<path class="st0" d="M157.7,277.4v-17.5h9v2.9h-5.8v4h5.4v2.8h-5.4v4.8h5.9v3H157.7z"/>
	<path class="st0" d="M177.5,277.4v-14.6h-3.8v-2.9h10.8v2.9h-3.8v14.6H177.5z"/>
	<path class="st0" d="M186.2,277.4v-17.5h9v2.9h-5.8v4h5.4v2.8h-5.4v4.8h5.9v3H186.2z M189,258.5l2-3.2h2.9l-3.5,3.2H189z"/>
</g>
</svg>
