<?xml version="1.0" encoding="utf-8"?>
<!-- Generator: Adobe Illustrator 23.0.0, SVG Export Plug-In . SVG Version: 6.00 Build 0)  -->
<svg version="1.1" id="Layer_1" xmlns="http://www.w3.org/2000/svg" xmlns:xlink="http://www.w3.org/1999/xlink" x="0px" y="0px"
	 viewBox="0 0 236 283" style="enable-background:new 0 0 236 283;" xml:space="preserve">
<style type="text/css">
	.st0{fill-rule:evenodd;clip-rule:evenodd;fill:#171415;}
	.st1{enable-background:new    ;}
	.st2{fill:#171415;}
</style>
<title>yerba2</title>
<path class="st0" d="M198.4,37.6C154-6.9,82-6.9,37.5,37.6s-44.4,116.4,0,160.9s116.4,44.4,160.9,0c21.3-21.3,33.3-50.3,33.3-80.5
	C231.8,87.8,219.8,58.9,198.4,37.6 M118,0c65.2,0,118,52.8,118,118s-52.8,118-118,118S0,183.2,0,118S52.8,0,118,0z"/>
<g class="st1">
	<path class="st2" d="M61.7,277.4V270l-4.6-10.1h3.6l2.6,6.6l2.6-6.6h3.5L65,270v7.4H61.7z"/>
	<path class="st2" d="M71.2,277.4v-17.5h9v2.9h-5.8v4h5.4v2.8h-5.4v4.8h5.9v3H71.2z"/>
	<path class="st2" d="M82.8,277.4v-17.5h5.8c1.8,0,3,0.4,3.8,1.1c0.8,0.7,1.2,1.9,1.2,3.5c0,1.1-0.2,2-0.6,2.7c-0.4,0.7-1,1-1.8,1.2
		c1.5,0.4,2.4,1.7,2.4,3.9c0,0.1,0,0.2,0,0.2l0.1,2.3c0,0.7,0.1,1.2,0.3,1.6c0.1,0.4,0.3,0.7,0.6,1h-3.9c-0.1-0.3-0.2-0.6-0.2-1
		s-0.1-1-0.1-1.7l0-1.8v-0.5c0-1-0.2-1.7-0.6-2.1c-0.4-0.4-1.3-0.6-2.6-0.6h-1.1v7.7H82.8z M85.9,267.3h1.9c0.9,0,1.6-0.2,2-0.6
		c0.4-0.4,0.6-1.1,0.6-2c0-0.9-0.2-1.5-0.6-1.8c-0.4-0.3-1.1-0.5-2.2-0.5h-1.6V267.3z"/>
	<path class="st2" d="M96.2,277.4v-17.5h5.2c1.5,0,2.6,0.3,3.3,1c0.7,0.7,1.1,1.8,1.1,3.2c0,1.2-0.2,2.1-0.5,2.7s-0.9,1-1.6,1.1
		c0.8,0.1,1.5,0.5,1.9,1.2s0.7,1.6,0.7,2.8c0,1.9-0.4,3.2-1.2,4.1c-0.8,0.9-2,1.3-3.6,1.3H96.2z M99.4,267h1.1
		c0.8,0,1.4-0.2,1.7-0.5c0.3-0.4,0.5-1,0.5-2c0-0.9-0.2-1.4-0.5-1.8s-0.9-0.5-1.8-0.5h-1V267z M99.4,275h1.3c0.8,0,1.4-0.2,1.8-0.6
		c0.3-0.4,0.5-1.1,0.5-2.2c0-1.1-0.2-1.8-0.6-2.2c-0.4-0.4-1.1-0.6-2.1-0.6h-1V275z"/>
	<path class="st2" d="M107.6,277.4l3.9-17.5h4.4l4,17.5h-3.5l-0.9-4.4h-3.8l-0.8,4.4H107.6z M112.3,270.4h2.8l-1.4-7.3L112.3,270.4z
		"/>
	<path class="st2" d="M127.4,277.4v-17.5h4.9l2.4,11.3l2.4-11.3h4.9v17.5h-3.1l0.1-15.5l-3.3,15.5h-2l-3.3-15.5l0.1,15.5H127.4z"/>
	<path class="st2" d="M143.8,277.4l3.9-17.5h4.4l4,17.5h-3.5l-0.9-4.4h-3.8l-0.8,4.4H143.8z M148.4,270.4h2.8l-1.4-7.3L148.4,270.4z
		"/>
	<path class="st2" d="M159,277.4v-14.6h-3.8v-2.9H166v2.9h-3.8v14.6H159z"/>
	<path class="st2" d="M167.7,277.4v-17.5h9v2.9H171v4h5.4v2.8H171v4.8h5.9v3H167.7z"/>
</g>
<path d="M82.7,64c0.3,0.5,0.1,1.1-0.3,1.4c-2.2,1.6-2.6,4.7-1,6.9c0.3,0.4,0.7,0.8,1.1,1.1c1.3,1,2.8,1.6,4.4,1.7
	c0.6,0,1.2,0.4,1.4,1c2.1,4.7,4.2,9.3,6.4,13.8c0.2,0.3,0.6,0.8,0.8,0.8c2.2,0.1,4.4,0,6.9,0c-0.2-0.7-0.4-1.3-0.6-1.9
	c-2.2-4.8-4.4-9.5-6.6-14.3c-0.4-0.5-0.3-1.3,0.3-1.7c0,0,0,0,0,0c2-1.7,2.2-4.7,0.5-6.7c-0.2-0.2-0.4-0.4-0.6-0.6
	c-0.8-0.8-1.8-1.3-2.9-1.6c-2.2-0.3-3.1-1.6-3.7-3.4C88.6,60,88.3,59.5,88,59c-0.3-0.6-0.7-1.1-1.1-1.6c-3.8-3.7-7.7-7.3-11.6-10.9
	c-1.3-1.4-3.5-1.5-5-0.2s-1.5,3.5-0.2,5c0.1,0.2,0.3,0.3,0.5,0.4c3.3,3.1,6.6,6.2,10,9.2C81.4,61.8,82.2,62.8,82.7,64z"/>
<path d="M162.6,121.5L162.6,121.5L162.6,121.5l-0.1-0.4c0-0.1-0.1-0.3-0.1-0.4l-0.9-2.6l0,0c-0.1-0.2-0.2-0.4-0.3-0.6l-1.6-3.6
	c-0.5-1.4-1.1-2.8-1.9-4.1c-2.7-5.7-6.6-10.8-11.2-15c-0.5-0.5-1.2-0.7-1.9-0.7c-17.2,0-34.5,0-51.7,0c-0.6,0-1.2,0.2-1.7,0.6
	c-4.4,3.9-8,8.5-10.6,13.7l0,0l0,0l-0.9,1.8c-0.2,0.5-0.5,1-0.7,1.5h0.2l-0.5,1.2l-0.1,0.1c-0.1,0.2-0.2,0.4-0.2,0.7l-1.6,3.6
	c-0.1,0.1-0.2,0.3-0.3,0.5c-1.1,3.3-2.3,6.5-3.2,9.8c-2,7.5-3.1,15.2-2.2,23c0.7,8,4.3,15.5,10,21.2c5.5,5.3,12.2,8.4,19.5,10.3
	c8.2,2,16.8,2.6,25.2,1.9c7.6-0.4,15-2.4,21.8-5.8c11.1-5.8,17.5-14.8,19-27.3C167.7,140.6,165.7,131,162.6,121.5z M87.8,109.9
	c1.7-3,3.7-5.7,6.1-8.2c0.4-0.4,1-0.6,1.5-0.7c15.5,0,31.1,0,46.6,0c0.6,0,1.2,0.2,1.6,0.7c2.6,2.7,4.8,5.7,6.6,9
	c0.1,0.2,0.3,0.4,0.4,0.5l2.3,3.2h-6.3c-0.4-0.1-0.8-0.1-1.2,0h-1.9c-0.3-0.1-0.5-0.1-0.8,0h-2.1c-0.1,0-0.1,0-0.2,0
	c-1.2,0-2.4,0-3.8,0l0,0l-51.3-0.1L87.8,109.9z M159.8,147.2c-0.5,12.4-6.8,20.9-18.1,25.8c-7.3,3.1-15.1,4.1-23,4.1
	c-7.3,0.1-14.6-1.1-21.5-3.6c-5.4-1.9-10.2-5.3-13.8-9.9c-4-5.3-5.6-11.4-5.6-17.9c0.1-8.1,1.7-16.1,4.5-23.6
	c0.2-0.3,0.4-0.5,0.7-0.6l72.4,0.5c0.4,1,0.7,2,1,3l0,0C158.8,132.1,160,139.6,159.8,147.2L159.8,147.2z"/>
</svg>
