<?xml version="1.0" encoding="utf-8"?>
<!-- Generator: Adobe Illustrator 23.0.0, SVG Export Plug-In . SVG Version: 6.00 Build 0)  -->
<svg version="1.1" id="Layer_1" xmlns="http://www.w3.org/2000/svg" xmlns:xlink="http://www.w3.org/1999/xlink" x="0px" y="0px"
	 viewBox="0 0 145.6 182.6" style="enable-background:new 0 0 145.6 182.6;" xml:space="preserve">
<style type="text/css">
	.st0{fill:url(#SVGID_1_);}
	.st1{fill:#F89E3A;}
	.st2{fill:#444444;}
	.st3{fill:#FEFEFE;}
	.st4{fill:#333333;}
</style>
<title>Asset 11</title>
<linearGradient id="SVGID_1_" gradientUnits="userSpaceOnUse" x1="18.82" y1="96.452" x2="126.6927" y2="96.452">
	<stop  offset="0" style="stop-color:#1F1F1F"/>
	<stop  offset="1" style="stop-color:#000000"/>
</linearGradient>
<path class="st0" d="M3.6,10.3C6,26.6,23.7,149.7,26.9,165.9c3.4,17.4,19.8,16.7,19.8,16.7h52.3c0,0,16.4,0.7,19.8-16.7
	c3.2-16.2,20.9-139.3,23.3-155.6L3.6,10.3z"/>
<path class="st1" d="M4.1,13.5L4.1,13.5c0-0.1,0-0.2,0-0.3C4.1,13.3,4.1,13.4,4.1,13.5z M141.5,13.5L141.5,13.5
	c0-0.3,0.1-0.6,0.1-0.9l0,0C141.6,12.9,141.5,13.2,141.5,13.5z"/>
<path class="st2" d="M141.5,13.5H4.1c0-0.1,0-0.2,0-0.3S4,12.8,4,12.6h137.6C141.6,12.9,141.5,13.2,141.5,13.5"/>
<path class="st3" d="M42,62.3c0-1.5,0.1-2.9,0.3-4.4c0.1-0.9,0.4-1.7,0.8-2.5c0.4-0.7,1-1.3,1.8-1.7c0.9-0.4,1.8-0.5,2.7-0.5
	c0.9,0,1.9,0.1,2.7,0.5c0.7,0.4,1.4,1,1.8,1.7c0.5,0.8,0.8,1.6,0.9,2.5c0.2,1.4,0.3,2.9,0.3,4.4c0,1.5-0.1,2.9-0.3,4.4
	c-0.1,0.9-0.4,1.7-0.8,2.5c-0.4,0.7-1.1,1.3-1.8,1.7c-0.9,0.4-1.8,0.5-2.7,0.5c-0.9,0-1.9-0.1-2.7-0.5c-0.7-0.4-1.4-1-1.8-1.7
	c-0.4-0.8-0.7-1.6-0.8-2.5C42.1,65.2,42,63.8,42,62.3z M45.3,62.3c0,2.8,0.2,4.6,0.5,5.4c0.3,0.7,1.1,1.2,1.8,1.1
	c0.8,0.1,1.5-0.4,1.8-1.1c0.3-0.7,0.5-2.5,0.5-5.4s-0.2-4.7-0.5-5.4c-0.5-1-1.8-1.4-2.8-0.9c-0.4,0.2-0.7,0.5-0.9,0.9
	C45.5,57.6,45.3,59.4,45.3,62.3L45.3,62.3z"/>
<path class="st3" d="M58.3,70.9V56.5h-3.7v-2.8h10.6v2.8h-3.7v14.4H58.3z"/>
<path class="st3" d="M66.9,70.9V53.7h5.8c1.3-0.1,2.7,0.3,3.8,1.1c0.8,0.9,1.3,2.2,1.2,3.5c0,0.9-0.2,1.8-0.6,2.7
	c-0.4,0.7-1.1,1.1-1.8,1.2c1.5,0.4,2.3,1.7,2.4,3.9v0.2l0.1,2.3c0,0.5,0.1,1.1,0.3,1.6c0.1,0.4,0.3,0.7,0.6,1h-3.8
	c-0.1-0.3-0.2-0.7-0.2-1c0-0.4-0.1-0.9-0.1-1.7v-1.8V66c0.1-0.7-0.1-1.5-0.6-2.1c-0.8-0.5-1.7-0.7-2.6-0.6H70v7.6L66.9,70.9z M70,61
	h1.8c0.7,0.1,1.4-0.1,2-0.6c0.4-0.6,0.6-1.3,0.5-2c0.1-0.7-0.1-1.3-0.6-1.8c-0.6-0.4-1.4-0.6-2.2-0.5H70V61z"/>
<path class="st3" d="M79.8,62.3c0-1.5,0-2.9,0.2-4.4c0.1-0.9,0.4-1.7,0.8-2.5c0.4-0.7,1-1.3,1.8-1.7c1.8-0.7,3.7-0.7,5.5,0
	c0.7,0.4,1.4,1,1.8,1.7c0.4,0.8,0.7,1.6,0.8,2.5c0.2,1.4,0.3,2.9,0.3,4.4c0,1.5-0.1,2.9-0.3,4.4c-0.1,0.9-0.4,1.7-0.8,2.5
	c-0.4,0.7-1.1,1.3-1.8,1.7c-1.8,0.7-3.7,0.7-5.5,0c-0.7-0.4-1.4-1-1.8-1.7c-0.5-0.8-0.8-1.6-0.9-2.5C79.8,65.2,79.7,63.8,79.8,62.3z
	 M83.1,62.3c0,2.8,0.2,4.6,0.5,5.4c0.3,0.7,1.1,1.2,1.8,1.1c0.8,0.1,1.5-0.4,1.8-1.1c0.3-0.7,0.5-2.5,0.5-5.4s-0.2-4.7-0.5-5.4
	c-0.5-1-1.8-1.4-2.8-0.9c-0.4,0.2-0.7,0.5-0.9,0.9C83.2,57.6,83.1,59.4,83.1,62.3z"/>
<path class="st3" d="M93.3,64.9h3.2V66c-0.1,0.7,0.1,1.5,0.4,2.2c0.3,0.4,0.8,0.6,1.4,0.6c0.6,0,1.1-0.1,1.6-0.5
	c0.4-0.4,0.6-1,0.5-1.5c0-0.5-0.1-0.9-0.4-1.3c-0.5-0.6-1-1-1.6-1.4l-1.6-1.2c-1.1-0.6-2-1.5-2.7-2.5c-0.4-0.7-0.6-1.6-0.6-2.4
	c-0.1-1.3,0.4-2.5,1.3-3.4c2.1-1.7,5.1-1.7,7.2,0.1c0.9,1,1.4,2.4,1.3,3.8c0,0.2,0,0.3,0,0.4c0,0.1,0,0.2,0,0.2h-3v-0.5
	c0.1-0.7-0.1-1.4-0.5-2c-0.4-0.4-0.9-0.7-1.5-0.6c-0.5,0-0.9,0.1-1.2,0.5c-0.3,0.3-0.5,0.8-0.4,1.3c0,0.7,0.7,1.5,2,2.4l0,0l1.8,1.2
	c1,0.6,1.9,1.4,2.6,2.4c0.5,0.9,0.7,1.8,0.7,2.8c0.1,1.3-0.4,2.7-1.3,3.6c-1.1,0.9-2.5,1.4-3.8,1.3C97,71.5,95.6,71,94.5,70
	c-0.9-1.2-1.4-2.6-1.3-4.1C93.2,65.7,93.2,65.4,93.3,64.9L93.3,64.9z"/>
<path class="st4" d="M0.8,0h143.9c0.4,0,0.8,0.4,0.8,0.8v11c0,0.4-0.4,0.8-0.8,0.8H0.8c-0.4,0-0.8-0.4-0.8-0.8v-11
	C0,0.4,0.4,0,0.8,0z"/>
</svg>
