<svg xmlns="http://www.w3.org/2000/svg" viewBox="0 0 145.56 182.59"><defs><style>.cls-1{fill:#024a8c;}.cls-2{fill:#f89e3a;}.cls-3{fill:#373661;}.cls-4{fill:#fefefe;}.cls-5{fill:#024078;}</style></defs><title>Asset 9</title><g id="Layer_2" data-name="Layer 2"><g id="Layer_1-2" data-name="Layer 1"><path class="cls-1" d="M3.63,10.31C6,26.63,23.69,149.67,26.88,165.9c3.39,17.4,19.78,16.69,19.78,16.69H98.92s16.38.71,19.78-16.69C121.88,149.67,139.6,26.63,142,10.31Z"/><path class="cls-2" d="M4.09,13.52h0c0-.12,0-.23,0-.34,0,.11,0,.22,0,.34Zm137.4,0h0q.06-.46.12-.9h0C141.57,12.91,141.53,13.21,141.49,13.52Z"/><path class="cls-3" d="M141.49,13.52H4.09c0-.12,0-.23,0-.34s0-.38-.08-.56H141.61q-.06.44-.12.9"/><path class="cls-4" d="M72.83,104.84l.23.3c1,1.36,2,2.76,2.93,4.17.29.44.55.89.82,1.35-1,.46-2,.91-3,1.33h0c-.15.07-.29.15-.43.23a28.1,28.1,0,0,0,3,1.34c1.69.69,3.42,1.32,5.09,2.06s3.15,1.27,4.75,1.8h0l.27.06c.06-.16.1-.33.17-.5h0c.33-1,.68-2.09,1-3.13.42-1.21.82-2.41,1.24-3.61a5.48,5.48,0,0,1,.39-1.14c.24-.72.49-1.43.73-2.13l.57-1.59,0,0c.06-.14.1-.29.16-.43l0,0a7.07,7.07,0,0,1-1,.4c-.81.39-1.68.69-2.5,1-.79-1.09-1.56-2.19-2.33-3.28a27.82,27.82,0,0,0-2.56-3.26,16.74,16.74,0,0,0-1.41-1.06,2,2,0,0,0-1-.36c-2.53-.12-5.1.08-7.62.14-2.1.08-4.16-.13-6.26.11a4.35,4.35,0,0,0-2,.22,2.94,2.94,0,0,0-.77.55l0,0-.07.06a55.12,55.12,0,0,0-5.12,6l-1.7,2,.31.25,0,0c1.63,1,3.14,2.35,4.69,3.49a43.36,43.36,0,0,0,4.42,3.22h0c.25.15.46.29.67.44.08-.14.17-.29.25-.45.67-1.15,1.42-2.25,2.12-3.37l1.95-3.22a22.56,22.56,0,0,1,2-3m-6.22-5.2c-.46-.14-1.15-.48-1.63-.32-.31.1-.18.09-.48.07l0-.09c.37,0,.61-.29,1-.22s.61.1.91.17a5.3,5.3,0,0,1,2.06,1,20.58,20.58,0,0,1,4.09,4.09l-.18.19c-.59-.56-1-1.24-1.65-1.78s-1.3-1.19-2-1.75A6.72,6.72,0,0,0,66.61,99.64Z"/><path class="cls-4" d="M98,125.82l0-.06v-.09a56.23,56.23,0,0,0-2.45-7.47c-.3-.85-.57-1.68-.86-2.51l-.38.13v.05c-1.71.84-3.61,1.48-5.39,2.21a44,44,0,0,0-5.06,2.12h0c-.23.12-.48.22-.72.33.09.15.17.3.26.44.63,1.17,1.19,2.39,1.8,3.58s1.15,2.21,1.73,3.32a21.52,21.52,0,0,1,1.46,3.25l-.36,0c-1.68.16-3.38.26-5.07.35-.53,0-1.06,0-1.58,0,.13-1.09.26-2.17.41-3.25l0,0a4.15,4.15,0,0,0,0-.49,28,28,0,0,0-2.72,1.9c-1.45,1.11-2.89,2.25-4.39,3.29s-2.72,2.05-4,3.13l-.2.21c.12.13.23.26.34.4.74.82,1.44,1.65,2.15,2.49s1.64,1.95,2.45,2.93a4.28,4.28,0,0,1,.78.92c.47.58,1,1.16,1.45,1.73s.7.87,1.07,1.3v.05l.28.36h0a6.65,6.65,0,0,1,.19-1.1c.1-.88.29-1.78.46-2.67,1.32-.1,2.67-.2,4-.28a28.39,28.39,0,0,0,4.09-.51c.53-.12,1.1-.47,1.64-.64a1.9,1.9,0,0,0,.82-.68c1.41-2.1,2.58-4.39,3.83-6.6,1-1.82,2.26-3.48,3.15-5.4a4.53,4.53,0,0,0,.84-1.8,2.71,2.71,0,0,0-.09-.94m-.62,1.63a7.74,7.74,0,0,1-3.38,3,11,11,0,0,1-4.64.7c-.18,0-.11-.26,0-.29a25.47,25.47,0,0,0,4.49-.88,9.27,9.27,0,0,0,3.45-2.63Z"/><path class="cls-4" d="M69.61,131.8c0-.26,0-.53,0-.78l-.52,0c-1.3.12-2.64.14-4,.22l-3.74.26a21.31,21.31,0,0,1-3.57.05l.1-.36c.53-1.6,1.12-3.2,1.73-4.78.19-.5.41-1,.63-1.45l2.82,1.67v0a4.41,4.41,0,0,0,.43.22,25.28,25.28,0,0,0-.66-3.25c-.41-1.78-.88-3.55-1.23-5.36-.34-1.65-.78-3.29-1.27-4.92l-.12-.25-.49.15v0c-1.07.32-2.1.65-3.15,1l-3.67,1.07a4.49,4.49,0,0,1-1.15.34c-.73.21-1.44.43-2.18.63-.53.16-1.08.31-1.61.45h0l-.44.11,0,0a6.06,6.06,0,0,1,.94.61c.78.45,1.53,1,2.26,1.49-.43,1.26-.89,2.53-1.34,3.8a28.24,28.24,0,0,0-1.19,4c-.1.53,0,1.2-.06,1.75a1.82,1.82,0,0,0,.3,1c1.37,2.15,3,4.13,4.51,6.15,1.24,1.67,2.29,3.47,3.69,5.06a4.28,4.28,0,0,0,1.31,1.49,2.45,2.45,0,0,0,.89.29h.07l.07,0a57.43,57.43,0,0,0,7.86.74c.86.07,1.74.16,2.64.21,0-.13,0-.26,0-.39h0c-.1-1.92.09-3.92.13-5.84a38.42,38.42,0,0,0,.07-5.47Zm-12.3-.36a13.51,13.51,0,0,1-5.47-.48c-1.34-.4-3.17-.85-3.54-2.39l.06,0c.66,1.39,2.6,1.85,4,2.16a36.15,36.15,0,0,0,5,.45C57.54,131.16,57.46,131.42,57.31,131.44Z"/><path class="cls-4" d="M44.34,70.64V53.39h5.58a5,5,0,0,1,3.68,1.14,5.24,5.24,0,0,1,1.12,3.74,5.3,5.3,0,0,1-1.2,3.8,4.78,4.78,0,0,1-3.64,1.25H47.54v7.32Zm3.11-9.7h1.34a3,3,0,0,0,2.11-.59,2.74,2.74,0,0,0,.6-2,2.79,2.79,0,0,0-.55-2,3,3,0,0,0-2.11-.55H47.45Z"/><path class="cls-4" d="M54.55,70.64l3.88-17.25h4.32l3.92,17.25H63.2l-.85-4.34H58.66l-.83,4.34Zm4.61-6.93h2.73l-1.37-7.23Z"/><path class="cls-4" d="M68.36,70.64V53.39h5.57a5,5,0,0,1,3.68,1.14,5.2,5.2,0,0,1,1.12,3.74,5.34,5.34,0,0,1-1.19,3.8,4.81,4.81,0,0,1-3.65,1.25H71.55v7.32Zm3.1-9.7H72.8a3,3,0,0,0,2.11-.59,2.74,2.74,0,0,0,.6-2,2.79,2.79,0,0,0-.55-2,3,3,0,0,0-2.11-.55H71.46Z"/><path class="cls-4" d="M80.86,70.64V53.39h8.86v2.87H84.05v4h5.27V63H84.05v4.74h5.8v2.92Z"/><path class="cls-4" d="M92.21,70.64V53.39h3.22V67.7h5.8v2.94Z"/><rect class="cls-5" width="145.56" height="12.62" rx="0.81"/></g></g></svg>