<svg id="Layer_1" data-name="Layer 1" xmlns="http://www.w3.org/2000/svg" viewBox="0 0 281.16 78.12"><title>logo UNICEN</title><path d="M75.43,60.86A28,28,0,0,1,95.09,69a27.9,27.9,0,0,1,0,39.39,27.78,27.78,0,0,1-39.33,0,27.87,27.87,0,0,1,0-39.39,28,28,0,0,1,19.67-8.16Zm19.13,8.69A26.94,26.94,0,0,0,48.49,88.71a26.64,26.64,0,0,0,26.94,27A27.11,27.11,0,0,0,94.56,69.55Z" transform="translate(-33.08 -54.69)" style="fill:#004071"/><path d="M75.43,69a19.67,19.67,0,1,1-14,5.67,19.66,19.66,0,0,1,14-5.67ZM88.71,75.4A18.81,18.81,0,1,0,62.13,102,18.81,18.81,0,1,0,88.71,75.4Z" transform="translate(-33.08 -54.69)" style="fill:#004071"/><path d="M42.83,72.92c-.36-2-2.66-5.14-.36-8,1.41-1.95,6.91-6.57,7.79-9.76.54,3.37.54,5.5-1.59,7.62-2.13,2.31-3,3.38-3,3.38a9.62,9.62,0,0,0-1.95,5.15,40.87,40.87,0,0,1,5.67-7.63,9.28,9.28,0,0,0,1.42-1.25c.53-.53,1.06.18.53.54-.35.53-.89.88-1.24,1.41a28.8,28.8,0,0,0-5.67,7.45,3.66,3.66,0,0,0,2.48-2.12,48.91,48.91,0,0,1,3.36-4.26c1.78-1.6,2.31-3,7.45-1.24-4.08,1.06-6.2,5.15-8,7.1-2,2.13-3.73,1.24-6,1.77A34.07,34.07,0,0,0,40,87.82a5.53,5.53,0,0,0,1.6-3.37,27.48,27.48,0,0,1,.88-5.32c.36-1.6.88-3.55,6.2-4.44-3.19,2.84-3.36,7.81-4.07,10.47s-3,2.66-4.61,4.44a33.21,33.21,0,0,0,3.18,13.84,4.09,4.09,0,0,0,0-3.55,43,43,0,0,1-1.58-5.15c-.36-1.77-.9-3.54,3.54-6.92-1.42,4.09.53,8.52,1.06,11.18s-1.41,3.9-2.13,6a29.77,29.77,0,0,0,6,8,25.47,25.47,0,0,0,5.31,4.44,3.8,3.8,0,0,0-1.59-2.67,28,28,0,0,1-4.07-3.9c-1.07-1.24-2.67-2.66-.54-7.63.89,4.62,5,7.1,6.74,9,1.77,2.12.7,3.9,1.06,6a32.23,32.23,0,0,0,15.94,4.79,6,6,0,0,0-3.36-1.6,28.22,28.22,0,0,1-5.32-1.23c-1.59-.54-3-.9-3.55-6.22,3,3.55,7.09,3.55,9.58,4.44,2.47.71,3,2.66,4.24,4.26.36.35.36.35.9.35s.52,0,.87-.35c1.25-1.6,1.78-3.55,4.26-4.26,2.48-.89,6.55-.89,9.57-4.44-.54,5.32-1.95,5.68-3.55,6.22a28.3,28.3,0,0,1-5.31,1.23,6,6,0,0,0-3.37,1.6,32.16,32.16,0,0,0,15.94-4.79c.36-2.13-.69-3.91,1.07-6,1.77-2,5.85-4.43,6.74-9,2.12,5,.52,6.39-.54,7.63a41.67,41.67,0,0,1-4.07,3.9,3.84,3.84,0,0,0-1.6,2.67,25.79,25.79,0,0,0,5.32-4.44,29.73,29.73,0,0,0,6-8c-.71-2.13-2.65-3.36-2.13-6s2.48-7.09,1.06-11.18c4.44,3.38,3.9,5.15,3.55,6.92a41.31,41.31,0,0,1-1.6,5.15,4.16,4.16,0,0,0,0,3.55,33.06,33.06,0,0,0,3.19-13.84c-1.59-1.78-3.89-1.78-4.6-4.44s-.88-7.63-4.08-10.47c5.32.89,5.86,2.84,6.21,4.44a27.48,27.48,0,0,1,.88,5.32,5.46,5.46,0,0,0,1.59,3.37,33.93,33.93,0,0,0-3.72-14.72c-2.3-.53-4.07.36-6-1.77-1.77-2-3.89-6-8-7.1,5.13-1.78,5.66-.36,7.43,1.24a47.05,47.05,0,0,1,3.36,4.26,3.68,3.68,0,0,0,2.48,2.12,28.54,28.54,0,0,0-5.66-7.45c-.36-.53-.89-.88-1.24-1.41-.54-.36,0-.89.53-.54s.88.89,1.42,1.25a40.39,40.39,0,0,1,5.66,7.63,9.65,9.65,0,0,0-1.94-5.15s-.89-1.07-3-3.38c-2.12-2.12-2.12-4.25-1.59-7.62.89,3.19,6.38,7.81,7.8,9.76,2.3,2.84,0,6-.35,8a34.3,34.3,0,0,1,3.71,14,8.1,8.1,0,0,0,.35-5A43.3,43.3,0,0,0,111,77.53c-1.06-3.19-.35-3.9,2.13-7.8-.54,3.37,1.94,10.29,2.47,12.59.54,3.38-2.65,5-3.89,6.75a32,32,0,0,1-3.19,14.19A9.19,9.19,0,0,0,111.21,99a22,22,0,0,0,1.06-4.44c.53-3.36,1.43-3.72,5.49-5.85-2.13,2.49-2.83,9.76-3.54,12.25-1.06,3.19-4.61,3.19-6.56,4.07a37.08,37.08,0,0,1-6.19,8.7,33.72,33.72,0,0,1-5.67,4.43,9.18,9.18,0,0,0,5-2.48s.89-.89,3-3.37c2.12-2.66,3.19-2.49,7.62-2.31-3,1.25-7.09,6.93-8.68,8.52-2.48,2.49-5.86.53-8.15.53a37.25,37.25,0,0,1-16.48,5,10.36,10.36,0,0,0,5.84.18A32.91,32.91,0,0,0,88,122.78c3.19-1.07,4.43-.36,8,1.78-3.19-.36-9.75,2.47-12.23,3.18-3,.72-4.78-1.95-6.91-3.37a2.43,2.43,0,0,0-1.6-.35,2.39,2.39,0,0,0-1.41.35c-2,1.42-3.73,4.09-6.73,3.37-2.48-.71-9-3.54-12.23-3.18,3.54-2.14,4.78-2.85,8-1.78a32.91,32.91,0,0,0,4.08,1.42,10.36,10.36,0,0,0,5.84-.18,37.17,37.17,0,0,1-16.47-5c-2.3,0-5.67,2-8.15-.53-1.6-1.59-5.67-7.27-8.68-8.52,4.42-.18,5.49-.35,7.61,2.31,2.13,2.48,3,3.37,3,3.37a9.13,9.13,0,0,0,5,2.48,34.13,34.13,0,0,1-5.67-4.43,37.46,37.46,0,0,1-6.21-8.7c-1.94-.88-5.48-.88-6.55-4.07-.7-2.49-1.41-9.76-3.54-12.25,4.07,2.13,5,2.49,5.5,5.85A21.09,21.09,0,0,0,39.64,99a9.22,9.22,0,0,0,2.65,4.26A32.12,32.12,0,0,1,39.1,89.07c-1.24-1.78-4.43-3.37-3.89-6.75.53-2.3,3-9.22,2.48-12.59,2.48,3.9,3.19,4.61,2.12,7.8A43.3,43.3,0,0,0,38.75,82a8.1,8.1,0,0,0,.35,5,34.17,34.17,0,0,1,3.73-14Z" transform="translate(-33.08 -54.69)" style="fill:#004071;fill-rule:evenodd"/><path d="M51,85.34v-.53l1.23.35h.54s.18,0,.18-.17c.17,0,.17-.18.17-.18v-.36a.17.17,0,0,0-.17-.17c-.18,0-.18,0-.36-.18l-1.42-.18.18-.54,1.24.36h.53c.18.18.18.18.35.18v.36a.33.33,0,0,1,0,.53.67.67,0,0,1-.17.53l-.18.18c-.17,0-.17.18-.35.18a.89.89,0,0,1-.54-.18Zm2.83-2-2.48-.7.18-.54,1.94-.35-1.59-.53v-.35l2.48.53-.18.53-1.77.53,1.42.36Zm.7-2.3-2.3-.89.18-.52,2.3.88Zm.54-1.41-2.48-.37.18-.52,1.94.35-1.41-1.42.17-.36,1.78,1.78Zm.71-1.6-2.13-1.24,1.06-1.6.36.35-.71,1.06.35.36.71-1.06.36.18-.71,1.06.71.35.71-1.24.35.18ZM57,76.12l-2-1.43.53-.71c.18-.35.36-.35.53-.52h.36a.56.56,0,0,1,.35.17A.63.63,0,0,1,57,74a.66.66,0,0,1-.18.54.59.59,0,0,0,.35-.18h.54l.53.18-.36.35H56.64c0,.18,0,.18-.17.18v.18l.7.53Zm-.89-1.07.18-.36.35-.35v-.18L56.47,74h-.36a.64.64,0,0,0-.17.36l-.36.18Zm1.6-1.24.35-.35h.35c.18,0,.18,0,.36-.18.17,0,.17-.18.17-.36v-.18h-.35c-.18,0-.18.18-.35.18a1.38,1.38,0,0,1-.53.18c-.36.18-.54,0-.54-.18-.17,0-.17-.18-.17-.18v-.53a.6.6,0,0,0,.17-.36c.36-.17.54-.35.71-.35s.36.18.53.18l-.35.36h-.18c-.17,0-.17,0-.35.17a.63.63,0,0,0-.18.36h0l.18.17c.18,0,.35-.17.53-.17l.35-.36h.53a.18.18,0,0,1,.18.18l.36.35c0,.18,0,.36-.18.36a.63.63,0,0,1-.18.53,1.32,1.32,0,0,1-.71.35,1.36,1.36,0,0,1-.7-.17ZM60,72.57l-1.6-1.78.36-.35,1.59,1.77Zm-.89-2.49.71-.53c.18-.17.36-.36.53-.36h.35c.18,0,.36,0,.36.19.18,0,.36.17.53.35,0,.17.18.35.18.53s.18.35,0,.53v.36c-.18,0-.18.18-.35.18l-.72.52Zm.71,0,1.06,1.25.18-.18.18-.18c.18-.18.18-.18.18-.36v-.17l-.36-.36a.59.59,0,0,0-.18-.35h-.35c0-.18-.18,0-.18,0-.17,0-.17,0-.35.17Zm4.61-.89-.53.36-.35-.36-.89.54.17.53-.53.35L61.78,68l.53-.17ZM63.2,69l-.89-.71.36,1.07Zm.36-2.13.88-.36a.6.6,0,0,0,.35-.17h.53l.35.35a1.41,1.41,0,0,1,.36.53c0,.19,0,.36.18.36,0,.35,0,.35-.18.53,0,.18,0,.18-.18.36-.18,0-.18.17-.35.17l-.88.53Zm.7.17L65,68.49l.35-.18h.18a.17.17,0,0,1,.17-.18v-.35c0-.18,0-.18-.17-.35a.63.63,0,0,0-.18-.37l-.17-.17h-.36a.56.56,0,0,0-.35.17Zm3.54.72-.7-2.31.35-.18,1.42,1.24-.35-1.59.35-.18.71,2.48h-.53L67.63,66l.53,1.6Zm4.43-1.25-.53.18-.35-.53-.89.18-.17.7h-.36l.36-2.48.52-.18Zm-1.06-.7-.53-.89L70.46,66ZM74,65.64h.52c-.17.36-.17.54-.34.72-.18,0-.36.17-.72.17s-.53,0-.71-.35c-.35-.18-.35-.35-.35-.71a1,1,0,0,1,.17-1.07,1.42,1.42,0,0,1,.72-.35,1.61,1.61,0,0,1,.89.18c0,.17.17.17.17.53h-.53a.18.18,0,0,0-.18-.18c0-.18-.18-.18-.35-.18s-.18.18-.36.36c-.18,0-.18.18-.18.53a.91.91,0,0,0,.36.71.63.63,0,0,0,.35.18c.18,0,.18-.18.36-.18,0-.17.18-.17.18-.36Zm.88.72V64.05h.54v2.31Zm.88-1.25c0-.17.18-.35.18-.53l.35-.35.19-.18H77a1.39,1.39,0,0,1,.88.35,1.37,1.37,0,0,1,.36.89c-.18.54-.18.71-.54.89a1.29,1.29,0,0,1-.88.35.91.91,0,0,1-.71-.35,1.9,1.9,0,0,1-.36-1.07Zm.53.18a.65.65,0,0,0,.19.54c.17.17.35.17.53.35a.59.59,0,0,0,.35-.18.91.91,0,0,0,.35-.71c0-.35,0-.53-.17-.71-.18,0-.35-.18-.53-.18a.63.63,0,0,0-.53.18c0,.18-.19.36-.19.71Zm2.14,1.24.34-2.3h.54L80,66l.36-1.6.35.18-.35,2.31h-.54l-.7-1.78L79,66.71ZM83,67.78l-.54-.18v-.71l-1.06-.18-.35.35h-.35l1.59-2.12.36.17Zm-.71-1.25v-.89l-.53.72Zm.89,1.25.88-2.14.53.19-.71,1.77,1.07.53-.18.36Zm3.89-.89.89.54c.18,0,.18.17.36.17a.6.6,0,0,0,.17.35v.54c0,.17-.17.35-.17.53l-.36.36c-.17.17-.36.17-.53.35h-.36a.59.59,0,0,0-.35-.18L85.87,69Zm.18.71-.71,1.24.36.35h.7a.62.62,0,0,1,.19-.35.67.67,0,0,0,.17-.53v-.18c0-.18,0-.18-.17-.18,0-.17-.19-.17-.19-.35ZM88,70.26l1.41-2,1.43,1.07-.18.35L89.59,69l-.34.36,1.06.7-.18.36-1.07-.71-.35.53,1.07.89-.19.18Zm1.78,1.42,1.77-1.78.35.36-1.42,1.42.89.89-.36.35Zm3.89,2.66.17.53a1,1,0,0,1-.69.18c-.19-.18-.36-.18-.54-.53-.18-.18-.36-.54-.18-.71,0-.35.18-.53.53-.89a1.36,1.36,0,0,1,.88-.35,1.78,1.78,0,0,1,1.07,1.24c-.18.17-.18.35-.35.35L94.2,74c.18-.17.18-.17.18-.35s0-.17-.18-.35c0-.18-.18-.18-.36-.18a1.26,1.26,0,0,0-.69.18c-.19.18-.36.35-.36.53a.62.62,0,0,0,.53.71.54.54,0,0,0,.35-.18Zm-.18,1.42,2-1.42,1.07,1.42-.35.36-.72-1.07-.35.18.53,1.06-.18.18-.71-1.07-.53.54L94.91,77l-.35.18Zm1.24,1.77,2.12-1.06.19.36-.88,1.59,1.41-.71.17.36L95.62,79.3l-.18-.52.88-1.6-1.41.89Zm1.43,2.66,1.77-.71L97.74,79l.36-.18.71,1.77-.36.18L98.1,80l-1.94.71Zm.52,1.6,2.3-.71.18.89a1.33,1.33,0,0,1,.18.53.63.63,0,0,1-.18.36l-.35.35a.66.66,0,0,1-.53-.17l-.35-.36V83c-.19,0-.19.17-.36.34l-.35.36L97,83.21l.35-.53c.18-.18.35-.18.35-.36h0V82h0l-1.06.17Zm1.42,0v.35a.56.56,0,0,1,.18.36.17.17,0,0,0,.17.18h.18c.18,0,.18,0,.18-.18V82l-.18-.35Zm.35,1.95H99c.18,0,.36,0,.36.18a.63.63,0,0,1,.36.18c0,.18.17.35.17.53a1.38,1.38,0,0,1-.17.89,1,1,0,0,1-.89.53c-.36,0-.71,0-.88-.18-.36-.17-.54-.35-.54-.71s0-.71.18-.88a1,1,0,0,1,.88-.54Zm0,.54c-.17,0-.35.17-.52.17a.64.64,0,0,0-.19.54c.19.17.19.35.36.53h.71c.17,0,.35-.18.53-.18a.64.64,0,0,0,.18-.53c-.18-.18-.18-.36-.36-.53-.18,0-.35-.18-.71,0Z" transform="translate(-33.08 -54.69)" style="fill:#004071;fill-rule:evenodd"/><path d="M53.81,94.39l.18.89a.66.66,0,0,1,.17.53.54.54,0,0,1-.17.35c0,.18-.18.18-.18.35-.18,0-.36.18-.53.18a.64.64,0,0,1-.53.18c-.18,0-.36-.18-.54-.18s-.17-.18-.35-.35a.53.53,0,0,0-.18-.35l-.17-.89Zm-.18.71L52,95.45v.36c.17.18.17.18.17.35a.18.18,0,0,1,.18.18h.18a.63.63,0,0,0,.53-.18c.18,0,.35,0,.35-.17.18,0,.18,0,.18-.18V95.1Zm-1.42,2.49,2.3-1.08.72,1.78-.36.18-.53-1.24-.53.18.53,1.06-.35.18-.54-1.06-.52.17L53.45,99l-.35.18Zm1.42,3,2.13-1.24.18.36-1.6,1.06.53,1.06-.36.18Zm2.48,3.55-.35-.36.35-.53-.53-.71-.53.18-.36-.53,2.48-.72.36.54Zm.18-1.25.53-.88-.88.35Zm.71,2.31,1.77-1.77.53.71.35.35v.36a.64.64,0,0,1-.17.52c-.18,0-.18.19-.36.19h-.53l-.35-.36-.36-.35-.53.71Zm1.77-1.06-.53.53.17.18a.57.57,0,0,0,.36.17h.35a.17.17,0,0,1,.18-.17c0-.18-.18-.18-.18-.36l-.18-.17Zm-.18,2.66,1.6-1.78.7.72c.36.18.36.36.54.36v.34c0,.18,0,.36-.18.36-.18.17-.18.35-.36.35s-.35-.18-.53-.18v.72l-.17.53-.36-.35v-.54c.18-.36.18-.36.18-.53a.18.18,0,0,1-.18-.18l-.18-.18h0l-.71.71Zm1.24-.7.36.34a.63.63,0,0,1,.35.18h.35v-.52a.53.53,0,0,1-.35-.18l-.18-.18Zm1.42,1.41c0-.18.18-.36.35-.54.18,0,.18,0,.36-.17h.35c.18.17.36.17.53.35.36.18.54.36.54.72a1.56,1.56,0,0,1-.18.88,3.08,3.08,0,0,1-.89.71,1,1,0,0,1-.88-.35c-.36-.18-.54-.36-.54-.71a1,1,0,0,1,.36-.89Zm.35.18a1.38,1.38,0,0,0-.17.71.64.64,0,0,0,.17.35.65.65,0,0,0,.53.18c.18,0,.36-.18.54-.36a1.36,1.36,0,0,0,.17-.7c0-.18,0-.36-.17-.36a.66.66,0,0,0-.54-.18c-.17,0-.35.18-.53.36Zm1.78,2.66.53-2.48.35.17-.35,2,1.41-1.42.53.36-1.94,1.6Zm1.59.71L66,108.94l.36.18-1.07,2.3Zm.88.53.89-2.31.36.18.53,1.78.35-1.43.54.18-.72,2.31-.53-.18-.53-1.77-.35,1.42Zm4.25.35.36.36c-.17.18-.36.35-.53.35a.33.33,0,0,1-.53,0c-.35,0-.71-.17-.71-.35a2.34,2.34,0,0,1-.17-1.06c.17-.36.35-.71.53-.71.35-.18.53-.36.88-.18a.94.94,0,0,1,.71.35v.54h-.35c0-.18-.19-.18-.19-.36a.59.59,0,0,0-.35-.18c-.17,0-.17,0-.35.18-.18,0-.35.18-.35.53v.71a.59.59,0,0,0,.35.18h.35c.18,0,.18-.18.35-.36Zm.71,1.07.36-2.31h.53l-.35,2.49Zm3.2.35h-.54l-.17-.53-.89-.18-.18.54H71.7l1.06-2.31h.54Zm-.71-1.06-.36-.89-.36.89Zm1.94-1.24h1.42a.63.63,0,0,1,.36.18c.18.17.18.17.18.35.17.18.17.35.17.71v.35c-.17.18-.17.36-.35.54a.64.64,0,0,1-.36.17H75.43Zm.53.35V113h.72a.17.17,0,0,0,.17-.18.18.18,0,0,0,.18-.18v-.88a.18.18,0,0,0-.18-.18.17.17,0,0,0-.17-.18h-.72Zm2.13,2-.35-2.48,1.77-.18v.36l-1.24.18.18.53,1.06-.18.18.53-1.24.18v.53l1.42-.18V113Zm2.66-2.83.88-.36h.71a.18.18,0,0,1,.18.18c.17,0,.17,0,.17.18v.35s0,.18-.17.18a.67.67,0,0,1,.36.18c.17,0,.17.17.17.35.18,0,.18.18.18.35a.18.18,0,0,0-.18.18c-.17.18-.17.18-.36.36a1.38,1.38,0,0,0-.52.17l-.71.18Zm.53.17.18.54h.35c.18-.18.18-.18.36-.18v-.18c.17,0,.17,0,.17-.18a.17.17,0,0,1-.17-.17H81.8a.57.57,0,0,0-.36.17Zm.35.89.18.71.36-.18h.35c0-.18,0-.18.17-.18v-.17a.17.17,0,0,0-.17-.18.18.18,0,0,0-.18-.18.54.54,0,0,0-.35.18Zm1.25-1.78.53-.17.53,1.24v.36c.17,0,.17.17.35.17h.36a.17.17,0,0,1,.17-.17v-.71l-.53-1.25.36-.17.53,1.24a.64.64,0,0,1,.18.53v.36l-.18.17-.36.36c-.35,0-.53.17-.53,0h-.35c-.17,0-.17-.18-.35-.18,0-.18-.18-.35-.18-.53Zm3.36,1.25L85,108.94l1.59-.89.18.36-1.24.71.18.35,1.24-.53.17.35-1.24.53.36.72,1.24-.72.17.36ZM88.18,110l-1.42-2,.35-.35,1.77.88L88,107.16l.36-.18,1.42,2-.53.18-1.61-.71.89,1.41Zm1.23-2.3c-.16-.18-.35-.36-.35-.54v-.35c0-.18,0-.36.19-.36,0-.18.16-.34.34-.52a.78.78,0,0,1,.89-.18,1,1,0,0,1,.71.52c.36.18.36.54.36.89a1,1,0,0,1-.54.72,1.36,1.36,0,0,1-.7.35,1,1,0,0,1-.9-.53Zm.37-.36c.17.18.35.36.53.36a.65.65,0,0,0,.53-.18c.17,0,.17-.18.17-.36a1.4,1.4,0,0,0-.17-.71c-.18-.18-.36-.34-.53-.34a.68.68,0,0,0-.53.16.64.64,0,0,0-.19.54.63.63,0,0,0,.19.53Zm1.94-1.07.36-.34a.59.59,0,0,0,.35.18.63.63,0,0,1,.36-.18.64.64,0,0,1,.17-.36c0-.19,0-.19-.17-.36h-.36a.64.64,0,0,1-.35.17c-.18.19-.36.37-.53.37s-.36-.18-.54-.18a.6.6,0,0,0-.17-.36c0-.18,0-.35.17-.35a.63.63,0,0,1,.18-.53c.18-.18.53-.18.71-.36.18,0,.35.18.53.36l-.35.35c-.18-.18-.18-.18-.36-.18a.17.17,0,0,0-.17.18c-.18.18-.18.18-.18.35v.18h.18a.59.59,0,0,1,.35-.18,1.3,1.3,0,0,0,.53-.35h.36c.17.18.36.18.36.35.17,0,.17.18.17.35v.37a.38.38,0,0,1-.36.36c-.17.34-.35.34-.71.34a.65.65,0,0,1-.53-.18ZM96,102.55l-.36.54-.53-.19-.71.72.35.53-.35.35-1.23-2.13.17-.53Zm-1.42.18-.89-.18.53.71Zm1.6-.36L94,101l.36-.54,1.94,1.42Zm.52-1.06-2.12-1.06.53-.89c0-.36.17-.36.35-.53a.63.63,0,0,1,.36-.18.63.63,0,0,0,.36.18c.16,0,.16.17.16.35a.33.33,0,0,1,0,.54c.19,0,.19-.19.36-.19h1.06l-.35.54H96.32l-.16.18-.18.17h0l.87.54Zm-1.06-1.06.18-.36c.18-.17.18-.17.18-.36v-.17l-.18-.18h-.18a.18.18,0,0,1-.18.18.58.58,0,0,1-.18.36l-.17.35Zm2.31-1.07-2.31-1.07.7-1.6.36.18-.52,1.25.52.17.54-1.06.35.18L97,98.29l.7.18.54-1.24.35.18Zm0-2.31.17-.53h.35c.18-.18.18-.18.18-.35.18-.18.18-.36,0-.36,0-.18,0-.18-.18-.18h0c-.17,0-.17,0-.17.18-.18,0-.18.18-.35.36a.39.39,0,0,1-.36.35.67.67,0,0,1-.53.17c0-.17-.19-.17-.19-.35-.17,0-.17-.17-.17-.35v-.36c.17-.35.17-.53.36-.71h.7l-.17.54h-.35l-.18.17v.36c0,.18,0,.18.18.18h.17a.63.63,0,0,0,.18-.36c.17-.18.36-.35.36-.53.17,0,.17-.18.35-.18h.35a.38.38,0,0,1,.35.36c.18,0,.18.17.18.35v.53c-.18.18-.35.53-.53.53-.18.18-.35.18-.7.18Z" transform="translate(-33.08 -54.69)" style="fill:#004071;fill-rule:evenodd"/><path d="M65.15,102V76.83H71.7l3.9-4.26.35-.18.18.18,1.24,1.24,1.95-1.6L79.5,72l.18.17,3.9,3.73a2.79,2.79,0,0,1,1,1.59c.36.36.54.89.89,1.25l1.42,1.06.17.18a1.36,1.36,0,0,1-.17,1.77,2.48,2.48,0,0,0-.89,1.78v1.06c.18.18.36.53.53.71a2.91,2.91,0,0,0,1.6.89h.35v.18a20.13,20.13,0,0,1,.18,3c-.18.89-.35,1.6-.88,2a19.34,19.34,0,0,1-3.91,3.55,11.46,11.46,0,0,1-5.84,2.13,10.17,10.17,0,0,1-4.61-.54A16.8,16.8,0,0,1,69.05,94a.17.17,0,0,0-.18.17.64.64,0,0,0,.18.53l.88,1.42c.88.89.17,2-.53,3-.18.18-.18.35-.35.35a2.65,2.65,0,0,0-.18,1.25,2,2,0,0,0,0,1.06l1.06,1.42v.36c-.18.17-.18.53-.35.71-.36.17-.53.35-.71.35a.79.79,0,0,1-.89,0,.59.59,0,0,1-.35-.18l-2.31-2.3h-.17Zm.7-24.49v24.31L68,104h.18c.18.18.36.18.36,0a.65.65,0,0,0,.53-.18.17.17,0,0,1,.17-.17l-.88-1.25A4.35,4.35,0,0,1,68,100.6c.18-.53.18-1.07.54-1.42,0-.18.17-.35.35-.53.53-.71,1.06-1.6.53-2.14L68.34,95.1h0A2.22,2.22,0,0,1,68.16,94a1.37,1.37,0,0,1,.71-.71l.18-.18.17.18a17.51,17.51,0,0,0,4.43,2.48,9.68,9.68,0,0,0,4.43.53,10.27,10.27,0,0,0,5.5-2,23.69,23.69,0,0,0,3.71-3.55A3.52,3.52,0,0,0,88,89.42a15.94,15.94,0,0,0-.17-2.66,2.43,2.43,0,0,1-1.78-.89c-.18-.35-.53-.71-.53-1.06a4.1,4.1,0,0,1-.17-1.43,3.06,3.06,0,0,1,1.06-2.12c.17-.18.35-.71.17-.89h-.17L85.17,79.3a2.8,2.8,0,0,1-1.07-1.59,5.26,5.26,0,0,0-.88-1.24L79.5,73.1l-1.78,1.42-.35.17-.17-.17L76,73.28l-3.89,4.25H65.85Z" transform="translate(-33.08 -54.69)" style="fill:#004071"/><path d="M79.85,82.14V80.73c0-.54,0-.71.18-.89a1.37,1.37,0,0,1,.88-.17V79H78.08v.71c.53,0,.89,0,.89.17a1,1,0,0,1,.35.89v4.8l-4.08-2.6v-.72a1.83,1.83,0,0,1,2.66.47,4,4,0,0,1,.71,1.95H79V81.44h-.36l-.53.7a2.5,2.5,0,0,0-2.84-.78V79.67H76.3V79H71.7v.71h1.06v2.47H67.45v.54h2.13v6.74c0,.53-.18.53-.36.71a3.84,3.84,0,0,1-1.59.18h-.18v.53h5.13v-.53a4.4,4.4,0,0,1-1.77-.18c-.17-.18-.35-.18-.35-.71V83.21l2.3,1.58v.34a9.71,9.71,0,0,0-.18,1.8c0,1.78.54,4.09,2.14,5.15a2.47,2.47,0,0,0,3.36-.35l.53.53H79V90a2.34,2.34,0,0,0,.44-.58L81.8,91h.7V83.38c0-.34.19-.34.54-.52.18-.18.71-.18,1.59-.18h.18v-.54ZM77.9,91.2a1.69,1.69,0,0,1-3-.18s0-.13,0-.18a4.31,4.31,0,0,0,3.4-.29C78.14,90.74,78,90.93,77.9,91.2Zm1-2h-.32c0,.18-.06.33-.09.47a2.07,2.07,0,0,1-1.32.42c-1.25.18-2-.71-2-2.48V86.5L79,89.09C79,89.15,79,89.19,78.93,89.24Zm2.87-2.13-2-1.24V82.68c.77,0,1.25,0,1.42.18.35.18.53.18.53.52Z" transform="translate(-33.08 -54.69)" style="fill:#004071;fill-rule:evenodd"/><text x="-33.08" y="-54.69"/><rect x="91.54" width="3.43" height="72.53" style="fill:#004071"/><path d="M146.05,58.8V76.9c0,5.47,2.1,8.23,5.7,8.23,3.75,0,5.8-2.62,5.8-8.23V58.8h7.11V76.48c0,9.72-4.91,14.35-13.14,14.35-8,0-12.58-4.44-12.58-14.44V58.8Z" transform="translate(-33.08 -54.69)" style="fill:#004071"/><path d="M174.34,90.32V58.8h8.32l6.55,11.55a99.1,99.1,0,0,1,5.14,10.81h.09A130.47,130.47,0,0,1,193.89,68V58.8h6.54V90.32H193l-6.73-12.16A108.48,108.48,0,0,1,180.74,67h-.19c.25,4.21.33,8.65.33,13.8v9.49Z" transform="translate(-33.08 -54.69)" style="fill:#004071"/><path d="M217.27,58.8V90.32h-7.12V58.8Z" transform="translate(-33.08 -54.69)" style="fill:#004071"/><path d="M250,89.48a21.06,21.06,0,0,1-8,1.35c-10.89,0-16.51-6.82-16.51-15.8,0-10.76,7.67-16.69,17.21-16.69a17.87,17.87,0,0,1,7.76,1.4L249,65.35a15,15,0,0,0-6-1.17c-5.61,0-10,3.42-10,10.43,0,6.31,3.74,10.28,10.06,10.28a16.94,16.94,0,0,0,6-1Z" transform="translate(-33.08 -54.69)" style="fill:#004071"/><path d="M277,77h-11.6v7.47h13v5.85H258.31V58.8h19.42v5.85H265.42V71.2H277Z" transform="translate(-33.08 -54.69)" style="fill:#004071"/><path d="M286.74,90.32V58.8h8.33l6.55,11.55a101,101,0,0,1,5.14,10.81h.09A127.49,127.49,0,0,1,306.29,68V58.8h6.55V90.32h-7.49l-6.73-12.16A108.42,108.42,0,0,1,293.15,67H293c.22,4.21.32,8.65.32,13.8v9.49Z" transform="translate(-33.08 -54.69)" style="fill:#004071"/><path d="M141.2,103.38v4c0,1.2.46,1.81,1.26,1.81s1.27-.58,1.27-1.81v-4h1.57v3.89c0,2.14-1.09,3.16-2.9,3.16s-2.76-1-2.76-3.18v-3.87Z" transform="translate(-33.08 -54.69)" style="fill:#004071"/><path d="M146.65,110.32v-6.94h1.83l1.44,2.54a20.79,20.79,0,0,1,1.14,2.38h0a26.56,26.56,0,0,1-.13-2.9v-2h1.44v6.94h-1.64l-1.48-2.68a21.45,21.45,0,0,1-1.21-2.45h0c0,.93.07,1.91.07,3v2.09Z" transform="translate(-33.08 -54.69)" style="fill:#004071"/><path d="M155.32,103.38v6.94h-1.56v-6.94Z" transform="translate(-33.08 -54.69)" style="fill:#004071"/><path d="M158.32,110.32l-2.22-6.94h1.71l.85,2.93c.23.84.45,1.62.62,2.49h0c.17-.84.39-1.66.62-2.45l.89-3h1.67l-2.34,6.94Z" transform="translate(-33.08 -54.69)" style="fill:#004071"/><path d="M167.35,107.38H164.8V109h2.85v1.29h-4.42v-6.94h4.28v1.29H164.8v1.44h2.55Z" transform="translate(-33.08 -54.69)" style="fill:#004071"/><path d="M168.72,103.47a14,14,0,0,1,2.09-.14,3.46,3.46,0,0,1,2.24.55,1.76,1.76,0,0,1,.65,1.46,1.85,1.85,0,0,1-1.23,1.7v0a1.68,1.68,0,0,1,.93,1.28c.22.79.42,1.7.56,2h-1.61a9.2,9.2,0,0,1-.47-1.62c-.2-.87-.5-1.1-1.14-1.11h-.47v2.73h-1.55Zm1.55,3h.62c.78,0,1.24-.39,1.24-1s-.43-1-1.15-1a2.56,2.56,0,0,0-.71.06Z" transform="translate(-33.08 -54.69)" style="fill:#004071"/><path d="M174.87,108.7a3.9,3.9,0,0,0,1.74.44c.72,0,1.1-.3,1.1-.76s-.33-.67-1.16-1c-1.16-.42-1.92-1-1.92-2.06,0-1.19,1-2.08,2.63-2.08a4,4,0,0,1,1.77.35l-.35,1.25a3.32,3.32,0,0,0-1.44-.32c-.68,0-1,.31-1,.66s.38.64,1.28,1c1.23.45,1.8,1.09,1.8,2.07,0,1.16-.89,2.15-2.79,2.15a4.46,4.46,0,0,1-2-.43Z" transform="translate(-33.08 -54.69)" style="fill:#004071"/><path d="M182,103.38v6.94h-1.57v-6.94Z" transform="translate(-33.08 -54.69)" style="fill:#004071"/><path d="M183.31,103.48a14.05,14.05,0,0,1,2.1-.15,4.57,4.57,0,0,1,2.86.74,3.08,3.08,0,0,1,1.17,2.62,3.56,3.56,0,0,1-1.14,2.81,5.07,5.07,0,0,1-3.21.89,13.74,13.74,0,0,1-1.78-.1Zm1.56,5.66a3,3,0,0,0,.54,0,2.16,2.16,0,0,0,2.37-2.43,2,2,0,0,0-2.2-2.21,3.22,3.22,0,0,0-.71.07Z" transform="translate(-33.08 -54.69)" style="fill:#004071"/><path d="M191.92,108.54l-.5,1.78h-1.61l2.11-6.94H194l2.17,6.94h-1.7l-.54-1.78Zm1.76-1.17-.44-1.48c-.12-.41-.24-.92-.35-1.33h0c-.1.41-.2.93-.32,1.33l-.41,1.48Z" transform="translate(-33.08 -54.69)" style="fill:#004071"/><path d="M197.05,103.48a14.3,14.3,0,0,1,2.11-.15,4.54,4.54,0,0,1,2.85.74,3.08,3.08,0,0,1,1.17,2.62A3.56,3.56,0,0,1,202,109.5a5,5,0,0,1-3.21.89,13.86,13.86,0,0,1-1.78-.1Zm1.56,5.66a3.09,3.09,0,0,0,.55,0,2.17,2.17,0,0,0,2.37-2.43,2,2,0,0,0-2.21-2.21,3.29,3.29,0,0,0-.71.07Z" transform="translate(-33.08 -54.69)" style="fill:#004071"/><path d="M206.29,110.32v-6.94h1.83l1.44,2.54a22.54,22.54,0,0,1,1.13,2.38h0c-.09-.92-.12-1.85-.12-2.9v-2H212v6.94h-1.65l-1.48-2.68a23.2,23.2,0,0,1-1.2-2.45h0c.05.93.07,1.91.07,3v2.09Z" transform="translate(-33.08 -54.69)" style="fill:#004071"/><path d="M215,108.54l-.49,1.78h-1.62l2.11-6.94h2.06l2.16,6.94h-1.7l-.53-1.78Zm1.76-1.17-.43-1.48c-.12-.41-.25-.92-.35-1.33h0c-.1.41-.21.93-.32,1.33l-.41,1.48Z" transform="translate(-33.08 -54.69)" style="fill:#004071"/><path d="M225,110.13a4.5,4.5,0,0,1-1.77.3,3.3,3.3,0,0,1-3.63-3.48,3.53,3.53,0,0,1,3.79-3.67,3.78,3.78,0,0,1,1.7.31l-.33,1.23a3.34,3.34,0,0,0-1.31-.25,2.28,2.28,0,0,0,0,4.55,3.77,3.77,0,0,0,1.31-.22Z" transform="translate(-33.08 -54.69)" style="fill:#004071"/><path d="M227.57,103.38v6.94H226v-6.94Z" transform="translate(-33.08 -54.69)" style="fill:#004071"/><path d="M235.28,106.78c0,2.28-1.37,3.65-3.41,3.65a3.24,3.24,0,0,1-3.26-3.54,3.36,3.36,0,0,1,3.38-3.63A3.23,3.23,0,0,1,235.28,106.78Zm-5,.08c0,1.37.64,2.33,1.69,2.33s1.66-1,1.66-2.36S233,104.5,232,104.5,230.27,105.51,230.27,106.86Z" transform="translate(-33.08 -54.69)" style="fill:#004071"/><path d="M236.31,110.32v-6.94h1.83l1.44,2.54a22.54,22.54,0,0,1,1.13,2.38h0c-.09-.92-.12-1.85-.12-2.9v-2h1.44v6.94H240.4l-1.48-2.68a23.2,23.2,0,0,1-1.2-2.45h0c0,.93.07,1.91.07,3v2.09Z" transform="translate(-33.08 -54.69)" style="fill:#004071"/><path d="M245,108.54l-.49,1.78h-1.62l2.11-6.94h2.06l2.16,6.94h-1.7l-.53-1.78Zm1.76-1.17-.43-1.48c-.13-.41-.25-.92-.35-1.33h0c-.1.41-.21.93-.32,1.33l-.41,1.48Z" transform="translate(-33.08 -54.69)" style="fill:#004071"/><path d="M250.16,103.38h1.57V109h2.76v1.32h-4.33Z" transform="translate(-33.08 -54.69)" style="fill:#004071"/><path d="M257.49,103.48a14.2,14.2,0,0,1,2.11-.15,4.54,4.54,0,0,1,2.85.74,3.08,3.08,0,0,1,1.17,2.62,3.56,3.56,0,0,1-1.14,2.81,5,5,0,0,1-3.21.89,13.86,13.86,0,0,1-1.78-.1Zm1.56,5.66a3.09,3.09,0,0,0,.55,0,2.16,2.16,0,0,0,2.36-2.43,2,2,0,0,0-2.2-2.21,3.29,3.29,0,0,0-.71.07Z" transform="translate(-33.08 -54.69)" style="fill:#004071"/><path d="M268.78,107.38h-2.56V109h2.85v1.29h-4.41v-6.94h4.27v1.29h-2.71v1.44h2.56Z" transform="translate(-33.08 -54.69)" style="fill:#004071"/><path d="M270.15,103.38h1.57V109h2.76v1.32h-4.33Z" transform="translate(-33.08 -54.69)" style="fill:#004071"/><path d="M282.56,110.13a4.46,4.46,0,0,1-1.77.3,3.3,3.3,0,0,1-3.63-3.48,3.53,3.53,0,0,1,3.79-3.67,3.78,3.78,0,0,1,1.7.31l-.33,1.23a3.34,3.34,0,0,0-1.31-.25,2.28,2.28,0,0,0,0,4.55,3.77,3.77,0,0,0,1.31-.22Z" transform="translate(-33.08 -54.69)" style="fill:#004071"/><path d="M287.72,107.38h-2.55V109H288v1.29h-4.41v-6.94h4.27v1.29h-2.71v1.44h2.55Z" transform="translate(-33.08 -54.69)" style="fill:#004071"/><path d="M289.09,110.32v-6.94h1.83l1.45,2.54a22.54,22.54,0,0,1,1.13,2.38h0c-.09-.92-.13-1.85-.13-2.9v-2h1.44v6.94h-1.64l-1.48-2.68a21.45,21.45,0,0,1-1.21-2.45h0c.05.93.07,1.91.07,3v2.09Z" transform="translate(-33.08 -54.69)" style="fill:#004071"/><path d="M297.54,104.7h-1.87v-1.32H301v1.32h-1.9v5.62h-1.56Z" transform="translate(-33.08 -54.69)" style="fill:#004071"/><path d="M301.83,103.47a14,14,0,0,1,2.09-.14,3.46,3.46,0,0,1,2.24.55,1.76,1.76,0,0,1,.65,1.46,1.85,1.85,0,0,1-1.23,1.7v0a1.68,1.68,0,0,1,.93,1.28c.22.79.42,1.7.56,2h-1.61a9.2,9.2,0,0,1-.47-1.62c-.2-.87-.5-1.1-1.14-1.11h-.47v2.73h-1.55Zm1.55,3H304c.78,0,1.25-.39,1.25-1s-.44-1-1.16-1a2.56,2.56,0,0,0-.71.06Z" transform="translate(-33.08 -54.69)" style="fill:#004071"/><path d="M314.24,106.78c0,2.28-1.37,3.65-3.41,3.65a3.24,3.24,0,0,1-3.26-3.54,3.36,3.36,0,0,1,3.37-3.63A3.23,3.23,0,0,1,314.24,106.78Zm-5,.08c0,1.37.63,2.33,1.68,2.33s1.67-1,1.67-2.36-.59-2.33-1.67-2.33S309.23,105.51,309.23,106.86Z" transform="translate(-33.08 -54.69)" style="fill:#004071"/><path d="M139.64,115.83a14.09,14.09,0,0,1,2.11-.15,4.5,4.5,0,0,1,2.85.74,3.06,3.06,0,0,1,1.17,2.61,3.54,3.54,0,0,1-1.14,2.81,5,5,0,0,1-3.21.9,13.31,13.31,0,0,1-1.78-.11Zm1.56,5.65a3,3,0,0,0,.55,0,2.16,2.16,0,0,0,2.36-2.43,2,2,0,0,0-2.2-2.2,3.4,3.4,0,0,0-.71.06Z" transform="translate(-33.08 -54.69)" style="fill:#004071"/><path d="M151.23,119.73h-2.55v1.65h2.85v1.28h-4.42v-6.93h4.28V117h-2.71v1.45h2.55Z" transform="translate(-33.08 -54.69)" style="fill:#004071"/><path d="M155.3,115.73h1.57v5.62h2.76v1.31H155.3Z" transform="translate(-33.08 -54.69)" style="fill:#004071"/><path d="M162.54,120.88l-.5,1.78h-1.61l2.11-6.93h2.05l2.17,6.93h-1.7l-.54-1.78Zm1.76-1.17-.44-1.47c-.12-.41-.24-.93-.35-1.34h0c-.1.41-.2.94-.32,1.34l-.41,1.47Z" transform="translate(-33.08 -54.69)" style="fill:#004071"/><path d="M170.36,115.82a13.33,13.33,0,0,1,2.12-.14,3.32,3.32,0,0,1,2.12.55,2,2,0,0,1,.74,1.61,2.15,2.15,0,0,1-.63,1.64,3.25,3.25,0,0,1-2.26.73,2.72,2.72,0,0,1-.53,0v2.49h-1.56Zm1.56,3.15a2.37,2.37,0,0,0,.52,0c.84,0,1.35-.42,1.35-1.12s-.44-1-1.23-1a2.87,2.87,0,0,0-.64,0Z" transform="translate(-33.08 -54.69)" style="fill:#004071"/><path d="M176.65,115.82a14,14,0,0,1,2.09-.14,3.53,3.53,0,0,1,2.24.54,1.76,1.76,0,0,1,.65,1.46,1.83,1.83,0,0,1-1.22,1.7v0a1.73,1.73,0,0,1,.92,1.29,19.41,19.41,0,0,0,.56,2h-1.61a9,9,0,0,1-.47-1.61c-.2-.88-.5-1.1-1.14-1.11h-.47v2.72h-1.55Zm1.55,3h.62c.78,0,1.25-.39,1.25-1s-.44-1-1.16-1a3.26,3.26,0,0,0-.71.05Z" transform="translate(-33.08 -54.69)" style="fill:#004071"/><path d="M189.37,119.12c0,2.29-1.37,3.66-3.41,3.66a3.24,3.24,0,0,1-3.26-3.54,3.37,3.37,0,0,1,3.37-3.64A3.24,3.24,0,0,1,189.37,119.12Zm-5,.09c0,1.36.64,2.32,1.69,2.32s1.67-1,1.67-2.36-.59-2.32-1.67-2.32S184.35,117.86,184.35,119.21Z" transform="translate(-33.08 -54.69)" style="fill:#004071"/><path d="M192.27,122.66,190,115.73h1.72l.84,2.93c.24.83.46,1.62.62,2.48h0c.18-.83.39-1.66.63-2.45l.89-3h1.66l-2.33,6.93Z" transform="translate(-33.08 -54.69)" style="fill:#004071"/><path d="M199.06,115.73v6.93h-1.57v-6.93Z" transform="translate(-33.08 -54.69)" style="fill:#004071"/><path d="M200.72,122.66v-6.93h1.83l1.44,2.54a20,20,0,0,1,1.14,2.38h0a26.75,26.75,0,0,1-.13-2.91v-2h1.44v6.93h-1.64L203.34,120a22.3,22.3,0,0,1-1.21-2.45h0c0,.92.07,1.9.07,3v2.09Z" transform="translate(-33.08 -54.69)" style="fill:#004071"/><path d="M213.21,122.48a4.65,4.65,0,0,1-1.77.3,3.31,3.31,0,0,1-3.63-3.48,3.53,3.53,0,0,1,3.79-3.68,4,4,0,0,1,1.71.31l-.33,1.24a3.24,3.24,0,0,0-1.32-.26,2.28,2.28,0,0,0,0,4.56,3.63,3.63,0,0,0,1.32-.23Z" transform="translate(-33.08 -54.69)" style="fill:#004071"/><path d="M216.13,115.73v6.93h-1.56v-6.93Z" transform="translate(-33.08 -54.69)" style="fill:#004071"/><path d="M219.41,120.88l-.49,1.78H217.3l2.11-6.93h2.06l2.16,6.93h-1.69l-.54-1.78Zm1.76-1.17-.43-1.47c-.12-.41-.24-.93-.35-1.34h0c-.1.41-.2.94-.32,1.34l-.41,1.47Z" transform="translate(-33.08 -54.69)" style="fill:#004071"/><path d="M227.24,115.83a14.3,14.3,0,0,1,2.11-.15,4.48,4.48,0,0,1,2.85.74,3.07,3.07,0,0,1,1.18,2.61,3.55,3.55,0,0,1-1.15,2.81,5,5,0,0,1-3.21.9,13.44,13.44,0,0,1-1.78-.11Zm1.57,5.65a3,3,0,0,0,.54,0,2.16,2.16,0,0,0,2.37-2.43,2,2,0,0,0-2.2-2.2,3.4,3.4,0,0,0-.71.06Z" transform="translate(-33.08 -54.69)" style="fill:#004071"/><path d="M238.84,119.73h-2.55v1.65h2.85v1.28h-4.42v-6.93H239V117h-2.7v1.45h2.55Z" transform="translate(-33.08 -54.69)" style="fill:#004071"/><path d="M242.9,115.82a14.12,14.12,0,0,1,2-.14,3.92,3.92,0,0,1,2.06.39,1.5,1.5,0,0,1,.82,1.37,1.58,1.58,0,0,1-1.14,1.47v0a1.72,1.72,0,0,1,1.38,1.7,1.87,1.87,0,0,1-.72,1.48,4.4,4.4,0,0,1-2.73.63,12.16,12.16,0,0,1-1.7-.11Zm1.55,2.65H245c.83,0,1.26-.34,1.26-.85s-.4-.8-1.11-.8a4.28,4.28,0,0,0-.67,0Zm0,3.08a5.17,5.17,0,0,0,.61,0c.71,0,1.34-.28,1.34-1s-.63-1-1.41-1h-.54Z" transform="translate(-33.08 -54.69)" style="fill:#004071"/><path d="M251,115.73v4c0,1.2.46,1.81,1.25,1.81s1.28-.58,1.28-1.81v-4h1.56v3.89c0,2.14-1.08,3.16-2.89,3.16s-2.77-1-2.77-3.18v-3.87Z" transform="translate(-33.08 -54.69)" style="fill:#004071"/><path d="M260.87,119.73h-2.55v1.65h2.85v1.28h-4.41v-6.93H261V117h-2.71v1.45h2.55Z" transform="translate(-33.08 -54.69)" style="fill:#004071"/><path d="M262.55,122.66v-6.93h1.83l1.44,2.54a21.64,21.64,0,0,1,1.13,2.38h0c-.09-.92-.12-1.86-.12-2.91v-2h1.44v6.93h-1.65L265.16,120a24.19,24.19,0,0,1-1.2-2.45h0c.05.92.07,1.9.07,3v2.09Z" transform="translate(-33.08 -54.69)" style="fill:#004071"/><path d="M276.31,119.12c0,2.29-1.37,3.66-3.41,3.66a3.24,3.24,0,0,1-3.26-3.54A3.37,3.37,0,0,1,273,115.6,3.24,3.24,0,0,1,276.31,119.12Zm-5,.09c0,1.36.64,2.32,1.69,2.32s1.67-1,1.67-2.36-.59-2.32-1.67-2.32S271.29,117.86,271.29,119.21Z" transform="translate(-33.08 -54.69)" style="fill:#004071"/><path d="M277.69,121.05a4,4,0,0,0,1.74.43c.72,0,1.1-.3,1.1-.75s-.32-.68-1.16-1c-1.15-.41-1.91-1.05-1.91-2.06,0-1.18,1-2.08,2.62-2.08a4.14,4.14,0,0,1,1.77.35l-.35,1.26a3.3,3.3,0,0,0-1.44-.33c-.68,0-1,.32-1,.67s.38.64,1.29,1c1.22.45,1.79,1.09,1.79,2.07,0,1.16-.89,2.15-2.79,2.15a4.44,4.44,0,0,1-2-.44Z" transform="translate(-33.08 -54.69)" style="fill:#004071"/><path d="M287.51,120.88l-.5,1.78H285.4l2.11-6.93h2.06l2.16,6.93H290l-.54-1.78Zm1.76-1.17-.44-1.47c-.12-.41-.24-.93-.35-1.34h0c-.1.41-.2.94-.31,1.34l-.42,1.47Z" transform="translate(-33.08 -54.69)" style="fill:#004071"/><path d="M294.52,115.73v6.93H293v-6.93Z" transform="translate(-33.08 -54.69)" style="fill:#004071"/><path d="M296.19,115.82a14,14,0,0,1,2.09-.14,3.53,3.53,0,0,1,2.24.54,1.76,1.76,0,0,1,.65,1.46,1.83,1.83,0,0,1-1.22,1.7v0a1.73,1.73,0,0,1,.92,1.29,19.41,19.41,0,0,0,.56,2h-1.61a9,9,0,0,1-.47-1.61c-.2-.88-.5-1.1-1.14-1.11h-.47v2.72h-1.55Zm1.55,3h.62c.78,0,1.25-.39,1.25-1s-.44-1-1.16-1a3.26,3.26,0,0,0-.71.05Z" transform="translate(-33.08 -54.69)" style="fill:#004071"/><path d="M306.72,119.73h-2.55v1.65H307v1.28h-4.41v-6.93h4.27V117h-2.71v1.45h2.55Z" transform="translate(-33.08 -54.69)" style="fill:#004071"/><path d="M308.45,121.05a4,4,0,0,0,1.74.43c.72,0,1.1-.3,1.1-.75s-.33-.68-1.16-1c-1.15-.41-1.92-1.05-1.92-2.06,0-1.18,1-2.08,2.63-2.08a4.14,4.14,0,0,1,1.77.35l-.35,1.26a3.3,3.3,0,0,0-1.44-.33c-.68,0-1,.32-1,.67s.38.64,1.29,1c1.22.45,1.79,1.09,1.79,2.07,0,1.16-.89,2.15-2.79,2.15a4.48,4.48,0,0,1-2-.44Z" transform="translate(-33.08 -54.69)" style="fill:#004071"/></svg>