<svg xmlns="http://www.w3.org/2000/svg" viewBox="0 0 281.16 78.12"><defs><style>.cls-1,.cls-2{fill:#fff;}.cls-2{fill-rule:evenodd;}</style></defs><title>Asset 2</title><g id="Layer_2" data-name="Layer 2"><g id="Layer_1-2" data-name="Layer 1"><path class="cls-1" d="M42.35,6.16A28,28,0,0,1,62,14.33a27.88,27.88,0,0,1,0,39.38,27.78,27.78,0,0,1-39.33,0,27.86,27.86,0,0,1,0-39.38A28,28,0,0,1,42.35,6.16Zm19.13,8.69a27.35,27.35,0,0,0-38.27,0,27.44,27.44,0,0,0,0,38.33,27.35,27.35,0,0,0,38.27,0,27.47,27.47,0,0,0,0-38.33Z"/><path class="cls-1" d="M42.35,14.33a19.66,19.66,0,0,1,14,5.67,19.74,19.74,0,0,1,0,28A19.85,19.85,0,0,1,22.5,34a19.89,19.89,0,0,1,5.85-14,19.63,19.63,0,0,1,14-5.67Zm13.28,6.38a18.4,18.4,0,0,0-26.57,0,18.46,18.46,0,0,0,0,26.62,18.4,18.4,0,0,0,26.57,0,18.43,18.43,0,0,0,0-26.62Z"/><path class="cls-2" d="M9.75,18.23c-.36-1.95-2.66-5.15-.36-8,1.42-2,6.91-6.56,7.79-9.75.54,3.36.54,5.5-1.59,7.62-2.12,2.31-3,3.37-3,3.37a9.71,9.71,0,0,0-1.95,5.15A41.54,41.54,0,0,1,16.3,9a9.18,9.18,0,0,0,1.42-1.24c.53-.53,1.06.18.53.53-.35.54-.88.89-1.24,1.42a28.8,28.8,0,0,0-5.67,7.45A3.66,3.66,0,0,0,13.82,15a50.92,50.92,0,0,1,3.36-4.26c1.78-1.6,2.31-3,7.45-1.25-4.08,1.07-6.2,5.15-8,7.1-1.95,2.13-3.73,1.24-6,1.77A34.3,34.3,0,0,0,6.91,33.13a5.42,5.42,0,0,0,1.6-3.37,27.58,27.58,0,0,1,.88-5.33c.36-1.59.89-3.54,6.2-4.43-3.19,2.84-3.36,7.81-4.07,10.47s-3,2.66-4.61,4.43a33.22,33.22,0,0,0,3.18,13.85,4.09,4.09,0,0,0,0-3.55,43,43,0,0,1-1.58-5.15c-.36-1.77-.89-3.55,3.54-6.92-1.42,4.08.53,8.52,1.06,11.18s-1.41,3.9-2.13,6a29.56,29.56,0,0,0,6,8,25.12,25.12,0,0,0,5.31,4.44,3.8,3.8,0,0,0-1.59-2.66,28,28,0,0,1-4.07-3.9C15.59,55,14,53.54,16.12,48.57c.89,4.61,5,7.09,6.74,9,1.77,2.12.7,3.9,1.06,6a32.36,32.36,0,0,0,15.94,4.79,5.92,5.92,0,0,0-3.36-1.6,28.43,28.43,0,0,1-5.32-1.24c-1.59-.53-3-.89-3.54-6.21,3,3.55,7.08,3.55,9.57,4.44,2.48.71,3,2.66,4.25,4.25.35.36.35.36.89.36s.52,0,.88-.36c1.24-1.59,1.77-3.54,4.25-4.25,2.48-.89,6.55-.89,9.57-4.44-.53,5.32-1.95,5.68-3.54,6.21a28.43,28.43,0,0,1-5.32,1.24,5.94,5.94,0,0,0-3.37,1.6,32.27,32.27,0,0,0,15.94-4.79c.37-2.13-.69-3.91,1.07-6,1.77-2,5.85-4.44,6.74-9,2.12,5,.52,6.38-.54,7.63A41.67,41.67,0,0,1,64,60.1a3.84,3.84,0,0,0-1.6,2.66,25.17,25.17,0,0,0,5.32-4.44,29.53,29.53,0,0,0,6-8c-.71-2.13-2.65-3.37-2.13-6s2.49-7.1,1.06-11.18c4.44,3.37,3.9,5.15,3.55,6.92a41.31,41.31,0,0,1-1.6,5.15,4.23,4.23,0,0,0,0,3.55A33.07,33.07,0,0,0,77.77,34.9c-1.59-1.77-3.89-1.77-4.6-4.43S72.29,22.84,69.09,20c5.32.89,5.86,2.84,6.21,4.43a27.58,27.58,0,0,1,.88,5.33,5.46,5.46,0,0,0,1.59,3.37A34.15,34.15,0,0,0,74.06,18.4c-2.31-.53-4.07.36-6-1.77-1.77-1.95-3.89-6-8-7.1,5.13-1.77,5.66-.35,7.43,1.25A49.24,49.24,0,0,1,70.87,15a3.64,3.64,0,0,0,2.48,2.12,28.58,28.58,0,0,0-5.67-7.45c-.36-.53-.89-.88-1.24-1.42-.54-.35,0-.89.53-.53s.88.89,1.42,1.24a41.54,41.54,0,0,1,5.67,7.63,9.71,9.71,0,0,0-2-5.15s-.89-1.06-3-3.37C67,6,67,3.85,67.5.49c.89,3.19,6.38,7.8,7.8,9.75,2.3,2.84,0,6-.35,8a34.47,34.47,0,0,1,3.72,14,8.14,8.14,0,0,0,.34-5A44.31,44.31,0,0,0,78,22.84c-1.07-3.19-.36-3.9,2.12-7.8-.54,3.36,2,10.29,2.48,12.59.53,3.37-2.66,5-3.89,6.74a32.16,32.16,0,0,1-3.19,14.2,9.22,9.22,0,0,0,2.65-4.26,21.09,21.09,0,0,0,1.06-4.44c.53-3.37,1.43-3.72,5.49-5.85-2.12,2.48-2.83,9.76-3.54,12.24-1.06,3.19-4.61,3.19-6.56,4.08A37,37,0,0,1,68.39,59a34.78,34.78,0,0,1-5.67,4.43,9.18,9.18,0,0,0,5-2.48s.89-.89,3-3.37c2.13-2.67,3.19-2.49,7.62-2.31-3,1.24-7.09,6.92-8.68,8.52-2.48,2.48-5.86.53-8.15.53a37.47,37.47,0,0,1-16.48,5,10.4,10.4,0,0,0,5.85.18,32.14,32.14,0,0,0,4.07-1.43c3.19-1.06,4.43-.35,8,1.78-3.19-.35-9.75,2.48-12.23,3.19-3,.71-4.78-2-6.91-3.37a2.42,2.42,0,0,0-1.6-.35,2.4,2.4,0,0,0-1.41.35C38.8,71.1,37,73.76,34,73.05c-2.48-.71-9-3.54-12.23-3.19,3.54-2.13,4.78-2.84,8-1.78a32.43,32.43,0,0,0,4.08,1.43,10.39,10.39,0,0,0,5.85-.18,37.43,37.43,0,0,1-16.48-5c-2.3,0-5.67,2-8.15-.53-1.59-1.6-5.67-7.28-8.68-8.52,4.43-.18,5.49-.36,7.62,2.31C16.12,60.1,17,61,17,61a9.13,9.13,0,0,0,5,2.48A35.22,35.22,0,0,1,16.3,59a37.67,37.67,0,0,1-6.21-8.7c-1.94-.89-5.48-.89-6.55-4.08C2.84,43.78,2.13,36.5,0,34c4.07,2.13,5,2.48,5.5,5.85a21.09,21.09,0,0,0,1.06,4.44,9.22,9.22,0,0,0,2.65,4.26A32.16,32.16,0,0,1,6,34.37C4.78,32.6,1.59,31,2.13,27.63c.53-2.3,3-9.23,2.48-12.59,2.48,3.9,3.19,4.61,2.12,7.8a43.3,43.3,0,0,0-1.06,4.44,8.1,8.1,0,0,0,.35,5,34.32,34.32,0,0,1,3.73-14Z"/><path class="cls-2" d="M17.9,30.65v-.53l1.23.35h.54a.18.18,0,0,0,.18-.18.17.17,0,0,0,.17-.17v-.36a.17.17,0,0,0-.17-.18c-.18,0-.18,0-.36-.18l-1.42-.17.18-.54,1.24.36H20c.18.18.18.18.35.18v.35a.34.34,0,0,1,0,.54.68.68,0,0,1-.17.53l-.18.17c-.17,0-.17.18-.35.18a.89.89,0,0,1-.54-.18Zm2.83-2L18.25,28l.18-.54,1.94-.35-1.59-.53v-.36l2.48.53-.17.54-1.78.53,1.42.35Zm.71-2.31-2.31-.88.18-.53,2.3.89ZM22,25l-2.48-.36.18-.52,1.94.34L20.2,23l.17-.36,1.78,1.77Zm.71-1.6-2.13-1.24,1.06-1.59.36.35L21.26,22l.35.35.71-1.05.36.17L22,22.49l.71.35.71-1.24.35.18Zm1.24-1.95L22,20l.53-.71c.18-.35.36-.35.53-.53h.36a.54.54,0,0,1,.35.18.59.59,0,0,1,.18.35.66.66,0,0,1-.18.54.59.59,0,0,0,.35-.18h.54l.53.18-.35.35H23.56c0,.18,0,.18-.17.18v.18l.7.53ZM23,20.36l.18-.36c.18-.17.35-.35.35-.35v-.18l-.17-.18H23a.64.64,0,0,0-.17.36l-.36.18Zm1.6-1.25.35-.35h.35c.18,0,.18,0,.36-.18.18,0,.18-.18.18-.35v-.18h-.36c-.18,0-.18.18-.35.18a1.39,1.39,0,0,1-.53.17c-.36.18-.54,0-.54-.17-.17,0-.17-.18-.17-.18v-.53a.64.64,0,0,0,.17-.36c.36-.18.54-.35.72-.35s.35.17.52.17l-.35.36h-.17c-.18,0-.18,0-.36.18a.63.63,0,0,0-.18.35h0l.18.18c.18,0,.36-.18.53-.18.18-.17.35-.35.35-.35h.54a.17.17,0,0,1,.17.18l.36.35c0,.18,0,.35-.18.35a.66.66,0,0,1-.18.54,1.36,1.36,0,0,1-.71.35,1.3,1.3,0,0,1-.7-.18Zm2.3-1.24-1.6-1.77.36-.36,1.59,1.78ZM26,15.39l.71-.54c.18-.17.36-.35.53-.35h.36c.17,0,.36,0,.36.18.17,0,.35.17.53.36,0,.17.17.35.17.53s.18.35,0,.53v.35c-.17,0-.17.18-.35.18l-.71.53Zm.71,0,1.06,1.24.19-.18.17-.17c.18-.18.18-.18.18-.36v-.18L28,15.39a.58.58,0,0,0-.19-.35h-.35c0-.19-.18,0-.18,0-.17,0-.17,0-.35.17Zm4.61-.89-.53.35-.35-.35-.89.54.17.53-.53.35-.53-2.66.53-.18Zm-1.24-.17-.89-.72.36,1.07Zm.36-2.14.88-.35a.63.63,0,0,0,.36-.18h.53l.35.36a1.17,1.17,0,0,1,.35.53c0,.18,0,.36.18.36,0,.35,0,.35-.18.52,0,.18,0,.18-.17.37-.18,0-.18.17-.36.17l-.88.53Zm.7.18.71,1.43.36-.19h.17a.18.18,0,0,1,.18-.18v-.35c0-.17,0-.17-.18-.35a.64.64,0,0,0-.17-.36l-.18-.18h-.35a.56.56,0,0,0-.36.18Zm3.54.71-.7-2.3.35-.18,1.42,1.24-.35-1.6.35-.17.71,2.48H36l-1.42-1.24.54,1.6Zm4.43-1.24-.53.18-.35-.54-.88.18-.18.71h-.36l.36-2.48.53-.18Zm-1.06-.71-.53-.89-.17,1.07ZM40.93,11h.53c-.18.36-.18.53-.35.71-.18,0-.36.18-.72.18s-.53,0-.7-.36c-.36-.17-.36-.35-.36-.7a1,1,0,0,1,.17-1.07,1.38,1.38,0,0,1,.72-.35,1.69,1.69,0,0,1,.89.17c0,.18.17.18.17.54h-.53a.18.18,0,0,0-.18-.18c0-.18-.18-.18-.35-.18s-.18.18-.36.36c-.17,0-.17.17-.17.53a.92.92,0,0,0,.35.71.64.64,0,0,0,.35.17c.18,0,.18-.17.36-.17,0-.18.18-.18.18-.36Zm.88.71V9.36h.54v2.3Zm.89-1.24c0-.18.17-.35.17-.53l.36-.36.18-.17h.53a1.21,1.21,0,0,1,1.24,1.24c-.18.53-.18.71-.54.88a1.3,1.3,0,0,1-.88.36.93.93,0,0,1-.71-.36,1.86,1.86,0,0,1-.35-1.06Zm.53.18a.64.64,0,0,0,.18.53c.17.18.35.18.53.35a.6.6,0,0,0,.35-.17.92.92,0,0,0,.35-.71c0-.36,0-.53-.17-.71-.18,0-.35-.18-.53-.18a.63.63,0,0,0-.53.18c0,.18-.18.35-.18.71Zm2.13,1.24.35-2.31h.53L47,11.31l.36-1.6.35.18-.35,2.3h-.54l-.7-1.77L45.89,12ZM50,13.08l-.54-.17v-.72L48.36,12l-.35.35h-.35l1.59-2.13.36.18Zm-.71-1.24V11l-.53.71Zm.89,1.24L51,11l.53.18-.7,1.78,1.07.52-.18.37ZM54,12.19l.89.54c.18,0,.18.18.36.18a.63.63,0,0,0,.18.35v.54c0,.17-.18.35-.18.53l-.36.35c-.17.17-.36.17-.53.36H54a.58.58,0,0,0-.35-.19l-.89-.52Zm.18.72-.7,1.24.35.35h.7a.62.62,0,0,1,.19-.35.68.68,0,0,0,.17-.54v-.18c0-.17,0-.17-.17-.17,0-.18-.19-.18-.19-.35Zm.71,2.66,1.42-2,1.42,1.07-.18.36-1.06-.71-.35.35,1.06.71-.18.35L56,15l-.36.53,1.07.88-.18.18ZM56.7,17l1.77-1.77.35.36L57.41,17l.88.89-.36.36Zm3.89,2.67.17.53a1,1,0,0,1-.69.18c-.19-.18-.36-.18-.54-.53-.18-.18-.36-.54-.18-.72,0-.35.18-.53.53-.88a1.36,1.36,0,0,1,.88-.36,1,1,0,0,1,.72.53.92.92,0,0,1,.35.71c-.17.18-.17.36-.35.36l-.35-.18c.18-.18.18-.18.18-.35s0-.18-.18-.36c0-.18-.19-.18-.37-.18a1.26,1.26,0,0,0-.69.18c-.19.18-.36.36-.36.53a.69.69,0,0,0,.17.54.67.67,0,0,0,.36.18.54.54,0,0,0,.35-.18Zm-.18,1.42,2-1.42,1.07,1.42-.35.35-.72-1.06-.35.18.53,1.06-.18.18-.7-1.07-.53.54.7,1.05-.35.19Zm1.25,1.77,2.11-1.06.19.35-.88,1.6L64.49,23l.17.35-2.12,1.24-.18-.52.89-1.6-1.42.88Zm1.42,2.66,1.77-.71-.19-.53.36-.17.71,1.77-.35.18L65,25.33,63.08,26Zm.52,1.6,2.3-.72.18.9a1.33,1.33,0,0,1,.18.53.59.59,0,0,1-.18.35l-.35.36a.64.64,0,0,1-.53-.18L64.85,28v.35c-.19,0-.19.18-.36.35l-.35.36L64,28.52l.35-.53c.18-.18.35-.18.35-.36h0v-.35h0l-1.06.17Zm1.42,0v.35a.56.56,0,0,1,.18.36.18.18,0,0,0,.18.18h.17c.18,0,.18,0,.18-.18v-.53l-.18-.36Zm.36,1.95h.52c.18,0,.36,0,.36.18a.64.64,0,0,1,.36.17c0,.18.17.36.17.54a1.35,1.35,0,0,1-.17.88,1,1,0,0,1-.89.54c-.35,0-.71,0-.88-.18-.36-.18-.54-.36-.54-.71a1.33,1.33,0,0,1,.18-.89,1,1,0,0,1,.89-.53Zm0,.53c-.18,0-.36.18-.53.18a.63.63,0,0,0-.19.53c.19.18.19.36.36.53h.71c.17,0,.35-.17.53-.17a.65.65,0,0,0,.18-.53c-.18-.18-.18-.36-.36-.54-.18,0-.35-.18-.7,0Z"/><path class="cls-2" d="M20.73,39.7l.18.88a.66.66,0,0,1,.18.54.5.5,0,0,1-.18.34c0,.19-.18.19-.18.36-.18,0-.36.18-.53.18a.64.64,0,0,1-.53.18c-.18,0-.36-.18-.54-.18s-.17-.18-.35-.35a.52.52,0,0,0-.17-.35l-.18-.89Zm-.18.71L19,40.76v.36c.17.18.17.18.17.34a.18.18,0,0,1,.18.19h.18a.61.61,0,0,0,.53-.19c.18,0,.35,0,.35-.16.18,0,.18,0,.18-.18v-.71Zm-1.42,2.48,2.31-1.07.71,1.78-.36.18-.53-1.24-.53.17.53,1.07-.35.17-.54-1.06-.52.18.52,1.24-.35.18Zm1.42,3,2.13-1.25.18.36-1.6,1.06.53,1.07-.35.18ZM23,49.45l-.35-.35.35-.53-.53-.72L22,48l-.36-.53,2.48-.71.36.54Zm.18-1.24.53-.88-.88.35Zm.71,2.31,1.77-1.77.53.7.35.36v.35a.66.66,0,0,1-.17.53c-.18,0-.18.18-.36.18h-.53l-.35-.35-.35-.36-.54.71Zm1.77-1.07-.53.53.17.18a.56.56,0,0,0,.36.18H26a.18.18,0,0,1,.18-.18c0-.18-.18-.18-.18-.35l-.17-.18Zm-.18,2.67,1.6-1.78.7.71c.36.18.36.36.54.36v.35c0,.18,0,.36-.18.36-.17.17-.17.35-.36.35s-.35-.18-.53-.18V53l-.17.54-.36-.36v-.53c.18-.36.18-.36.18-.53a.18.18,0,0,1-.18-.18l-.18-.18h0l-.7.71Zm1.24-.71.36.35a.63.63,0,0,1,.35.18h.35v-.53a.54.54,0,0,1-.35-.18l-.18-.18Zm1.42,1.42c0-.18.18-.36.36-.54.17,0,.17,0,.35-.17h.35c.18.17.36.17.53.35.36.18.54.36.54.71a1.59,1.59,0,0,1-.18.89,3.08,3.08,0,0,1-.89.71,1,1,0,0,1-.88-.35c-.35-.18-.54-.36-.54-.72a1,1,0,0,1,.36-.88Zm.36.17a1.35,1.35,0,0,0-.18.71.63.63,0,0,0,.71.54c.17,0,.35-.18.53-.36a1.38,1.38,0,0,0,.17-.71c0-.18,0-.35-.17-.35a.65.65,0,0,0-.53-.18c-.18,0-.36.18-.53.35Zm1.77,2.66.53-2.48.35.18-.35,2,1.42-1.42.53.36-2,1.59Zm1.59.71L33,54.25l.36.18-1.06,2.29Zm.89.54.88-2.31.36.18.53,1.77.35-1.42.54.18-.72,2.31-.53-.18-.53-1.78-.35,1.43Zm4.25.35.36.36c-.18.17-.36.35-.54.35a.33.33,0,0,1-.53,0c-.35,0-.71-.18-.71-.35a2.36,2.36,0,0,1-.17-1.07c.17-.35.35-.71.53-.71.35-.18.53-.35.88-.18a.9.9,0,0,1,.71.36v.53h-.35c0-.18-.18-.18-.18-.35a.63.63,0,0,0-.36-.18c-.17,0-.17,0-.35.18-.18,0-.35.17-.35.52v.72a.59.59,0,0,0,.35.18h.35c.18,0,.18-.18.36-.36Zm.71,1.06.35-2.3h.53l-.35,2.48Zm3.19.36h-.54l-.17-.53L39.33,58l-.18.53h-.53l1.07-2.3h.53Zm-.71-1.06-.36-.9-.36.9Zm1.94-1.25h1.42a.63.63,0,0,1,.36.18c.18.17.18.17.18.36.17.18.17.35.17.71V58c-.17.18-.17.35-.35.53a.63.63,0,0,1-.36.18H42.35Zm.54.35v1.6h.71a.17.17,0,0,0,.17-.17.18.18,0,0,0,.18-.18v-.88a.18.18,0,0,0-.18-.18.17.17,0,0,0-.17-.19H42.7Zm2.12,2-.35-2.48L46.24,56v.35L45,56.55l.18.54,1.06-.18.18.53-1.24.18v.53L46.6,58v.35Zm2.66-2.84.88-.35h.71s.18,0,.18.17c.17,0,.17,0,.17.18v.36a.17.17,0,0,1-.17.17.67.67,0,0,1,.36.18c.17,0,.17.17.17.36.18,0,.18.18.18.35a.18.18,0,0,0-.18.18,4,4,0,0,1-.36.35,1.32,1.32,0,0,0-.52.18l-.71.18ZM48,56l.18.53h.35c.18-.18.18-.18.36-.18V56.2c.17,0,.17,0,.17-.18-.17,0-.17-.18-.17-.18h-.18a.56.56,0,0,0-.36.18Zm.35.89.18.71.36-.18h.35c0-.18,0-.18.17-.18v-.17a.17.17,0,0,0-.17-.18.18.18,0,0,0-.18-.19.53.53,0,0,0-.35.19Zm1.25-1.78.53-.18.53,1.25v.35c.18,0,.18.17.35.17h.36a.17.17,0,0,1,.17-.17v-.71L51,54.6l.36-.17.54,1.23a.69.69,0,0,1,.17.54v.35l-.17.17-.37.37c-.35,0-.53.17-.53,0h-.35c-.17,0-.17-.18-.35-.18,0-.19-.18-.36-.18-.54ZM53,56.37l-1-2.12,1.59-.89.17.35-1.24.72.18.35,1.24-.53.17.35-1.24.53.36.71,1.24-.71.17.36Zm2.13-1.06-1.42-2L54,53l1.77.89-.88-1.42.36-.18,1.42,2-.53.18-1.61-.72.9,1.42ZM56.34,53c-.17-.17-.35-.35-.35-.53v-.35c0-.18,0-.36.18-.36,0-.18.17-.35.35-.53a.78.78,0,0,1,.89-.18,1,1,0,0,1,.7.53c.36.18.36.54.36.89a1,1,0,0,1-.54.71,1.28,1.28,0,0,1-.7.36,1,1,0,0,1-.89-.54Zm.36-.35c.18.18.35.35.53.35a.67.67,0,0,0,.53-.17c.17,0,.17-.18.17-.36a1.4,1.4,0,0,0-.17-.71c-.18-.18-.35-.35-.53-.35a.62.62,0,0,0-.71.71.65.65,0,0,0,.18.53Zm1.95-1.07.35-.35a.59.59,0,0,0,.35.18.63.63,0,0,1,.36-.18.64.64,0,0,1,.17-.36c0-.18,0-.18-.17-.35h-.36a.64.64,0,0,1-.35.17c-.18.18-.35.36-.53.36s-.36-.18-.54-.18a.6.6,0,0,0-.17-.35c0-.18,0-.36.17-.36a.64.64,0,0,1,.18-.53c.18-.18.54-.18.71-.35.18,0,.35.17.53.35L59,50c-.18-.17-.18-.17-.35-.17,0,0-.18,0-.18.17-.18.18-.18.18-.18.36v.18h.18a.63.63,0,0,1,.35-.18,1.41,1.41,0,0,0,.53-.36h.36c.17.18.36.18.36.36.17,0,.17.18.17.35v.36a.38.38,0,0,1-.36.36c-.17.35-.35.35-.71.35a.62.62,0,0,1-.52-.18Zm4.25-3.73-.36.54L62,48.21l-.7.71.35.53-.35.36-1.24-2.13.17-.53ZM61.48,48l-.89-.18.54.72Zm1.6-.35-2.14-1.42.37-.53,1.94,1.42Zm.52-1.06-2.12-1.07.53-.89c0-.35.17-.35.35-.53a.63.63,0,0,1,.36-.18.63.63,0,0,0,.36.18c.17,0,.17.18.17.36a.33.33,0,0,1,0,.53c.18,0,.18-.18.35-.18h1.06l-.35.53H63.25l-.17.18-.18.18h0l.87.53Zm-1.06-1.07.18-.35c.18-.18.18-.18.18-.36v-.18l-.18-.17h-.18a.17.17,0,0,1-.18.17.56.56,0,0,1-.18.36l-.17.35Zm2.31-1.06-2.31-1.07.71-1.6.35.18-.52,1.24.52.18.54-1.06.35.18L64,43.6l.7.18.54-1.24.35.17Zm0-2.31.17-.53h.36c.17-.19.17-.19.17-.35.18-.18.18-.36,0-.36,0-.18,0-.18-.17-.18h0c-.18,0-.18,0-.18.18-.18,0-.18.18-.35.36a.4.4,0,0,1-.36.35.67.67,0,0,1-.53.17c0-.17-.19-.17-.19-.36-.17,0-.17-.16-.17-.34v-.36c.17-.35.17-.53.36-.71h.7l-.17.53h-.35l-.18.18v.36c0,.18,0,.18.18.18h.17a.63.63,0,0,0,.18-.36c.17-.18.36-.36.36-.53.17,0,.17-.18.35-.18h.35a.38.38,0,0,1,.35.35c.18,0,.18.18.18.36v.52c-.18.19-.35.54-.53.54-.17.18-.35.18-.7.18Z"/><path class="cls-1" d="M32.07,47.33V22.13h6.55l3.91-4.26.34-.17.18.17,1.24,1.24,2-1.59.18-.18.18.18,3.9,3.73a2.75,2.75,0,0,1,1,1.59c.37.36.54.89.89,1.25l1.42,1.05.17.19a1.36,1.36,0,0,1-.17,1.77A2.47,2.47,0,0,0,53,28.88v1.06c.18.18.36.53.54.71a2.85,2.85,0,0,0,1.59.89h.36v.17a21.43,21.43,0,0,1,.17,3,2.86,2.86,0,0,1-.88,2,19.55,19.55,0,0,1-3.9,3.55A11.53,11.53,0,0,1,45,42.36a10.17,10.17,0,0,1-4.61-.54A16.68,16.68,0,0,1,36,39.34a.18.18,0,0,0-.18.18.64.64,0,0,0,.18.53l.88,1.41c.89.9.18,2-.53,3-.18.17-.18.35-.35.35a2.6,2.6,0,0,0-.18,1.24,2,2,0,0,0,0,1.07l1.06,1.42v.35c-.18.18-.18.53-.35.71-.36.18-.53.35-.71.35a.79.79,0,0,1-.89,0,.6.6,0,0,1-.35-.17l-2.3-2.31h-.18Zm.71-24.49V47.15l2.12,2.13h.19c.17.17.35.17.35,0A.65.65,0,0,0,36,49.1s0-.18.17-.18l-.88-1.24a4.53,4.53,0,0,1-.36-1.77c.19-.54.19-1.07.54-1.42,0-.18.17-.36.35-.54.53-.71,1.06-1.59.53-2.13l-1.06-1.41h0a2.36,2.36,0,0,1-.17-1.07,1.33,1.33,0,0,1,.7-.7l.18-.19.17.19a17.51,17.51,0,0,0,4.43,2.48,9.68,9.68,0,0,0,4.43.53,10.35,10.35,0,0,0,5.5-1.95,23.26,23.26,0,0,0,3.71-3.55,3.59,3.59,0,0,0,.71-1.42,15.94,15.94,0,0,0-.17-2.66A2.48,2.48,0,0,1,53,31.18c-.18-.36-.53-.71-.53-1.06a4.13,4.13,0,0,1-.17-1.43,3.06,3.06,0,0,1,1.06-2.12c.18-.19.35-.71.18-.89h-.18l-1.24-1.07A2.8,2.8,0,0,1,51,23a4.81,4.81,0,0,0-.88-1.24L46.42,18.4l-1.78,1.43-.35.17-.17-.17-1.25-1.25L39,22.84h-6.2Z"/><path class="cls-2" d="M46.77,27.45V26c0-.54,0-.71.18-.9a1.37,1.37,0,0,1,.88-.17v-.71H45V25c.53,0,.89,0,.89.17a1.07,1.07,0,0,1,.35.9v4.8l-4.08-2.6v-.72a1.81,1.81,0,0,1,2.66.47,4,4,0,0,1,.71,2h.36v-3.2h-.36l-.53.71a2.51,2.51,0,0,0-2.84-.79V25h1.07v-.71H38.62V25h1.07v2.48H34.37V28H36.5v6.74c0,.53-.18.53-.36.71a3.84,3.84,0,0,1-1.59.18h-.18v.53H39.5v-.53a4.32,4.32,0,0,1-1.76-.18c-.18-.18-.35-.18-.35-.71V28.52l2.3,1.58v.33a10,10,0,0,0-.19,1.81c0,1.78.54,4.08,2.14,5.15A2.47,2.47,0,0,0,45,37l.53.52h.36V35.25a2.28,2.28,0,0,0,.44-.57l2.39,1.64h.7V28.69c0-.35.19-.35.54-.53.18-.17.71-.17,1.59-.17h.19v-.54Zm-2,9.05a1.68,1.68,0,0,1-3-.18s0-.12-.05-.18a4.27,4.27,0,0,0,3.4-.29Zm1-2h-.32c0,.18-.06.33-.09.46a2,2,0,0,1-1.32.43c-1.25.18-2-.71-2-2.49V31.8l3.77,2.6A1.09,1.09,0,0,0,45.85,34.55Zm2.87-2.13-1.95-1.24V28c.78,0,1.25,0,1.42.17.35.18.53.18.53.53Z"/><text/><rect class="cls-1" x="91.54" width="3.43" height="72.53"/><path class="cls-1" d="M113,4.11V22.2c0,5.48,2.11,8.24,5.71,8.24s5.8-2.62,5.8-8.24V4.11h7.11V21.78c0,9.73-4.91,14.36-13.15,14.36-8,0-12.58-4.44-12.58-14.45V4.11Z"/><path class="cls-1" d="M141.26,35.62V4.11h8.32l6.55,11.55a98,98,0,0,1,5.14,10.8h.09a130.34,130.34,0,0,1-.55-13.19V4.11h6.54V35.62h-7.48l-6.73-12.15a108.48,108.48,0,0,1-5.48-11.13h-.19c.25,4.2.34,8.65.34,13.79v9.49Z"/><path class="cls-1" d="M184.19,4.11V35.62h-7.11V4.11Z"/><path class="cls-1" d="M217,34.79a21.06,21.06,0,0,1-8,1.35c-10.89,0-16.51-6.83-16.51-15.8,0-10.76,7.67-16.7,17.21-16.7a17.69,17.69,0,0,1,7.76,1.41l-1.49,5.6a15.2,15.2,0,0,0-6-1.16c-5.61,0-10,3.41-10,10.42,0,6.32,3.74,10.29,10.06,10.29a16.94,16.94,0,0,0,6-1Z"/><path class="cls-1" d="M243.94,22.3H232.35v7.48h13v5.84H225.23V4.11h19.42V10h-12.3V16.5h11.59Z"/><path class="cls-1" d="M253.67,35.62V4.11H262l6.54,11.55a101.75,101.75,0,0,1,5.14,10.8h.09a130.22,130.22,0,0,1-.56-13.19V4.11h6.55V35.62h-7.48l-6.74-12.15a108.42,108.42,0,0,1-5.47-11.13h-.18c.23,4.2.33,8.65.33,13.79v9.49Z"/><path class="cls-1" d="M108.12,48.69v4c0,1.21.46,1.81,1.26,1.81s1.27-.57,1.27-1.81v-4h1.57v3.89c0,2.14-1.08,3.16-2.89,3.16s-2.77-1-2.77-3.18V48.69Z"/><path class="cls-1" d="M113.57,55.62V48.69h1.83l1.45,2.54A22.54,22.54,0,0,1,118,53.61h0c-.09-.92-.13-1.86-.13-2.9v-2h1.45v6.93h-1.65L116.19,53A22.3,22.3,0,0,1,115,50.5h0c0,.93.07,1.9.07,3v2.08Z"/><path class="cls-1" d="M122.25,48.69v6.93h-1.57V48.69Z"/><path class="cls-1" d="M125.24,55.62,123,48.69h1.71l.85,2.93c.24.84.45,1.62.62,2.48h0c.17-.83.39-1.65.62-2.45l.89-3h1.67l-2.34,6.93Z"/><path class="cls-1" d="M134.27,52.69h-2.55v1.65h2.85v1.28h-4.41V48.69h4.27V50h-2.71v1.44h2.55Z"/><path class="cls-1" d="M135.64,48.78a14,14,0,0,1,2.09-.14,3.53,3.53,0,0,1,2.24.54,1.77,1.77,0,0,1,.65,1.46,1.83,1.83,0,0,1-1.22,1.7v0a1.73,1.73,0,0,1,.92,1.29,19.41,19.41,0,0,0,.56,2h-1.61A9,9,0,0,1,138.8,54c-.2-.88-.5-1.1-1.14-1.11h-.47v2.72h-1.55Zm1.55,3h.62c.78,0,1.25-.4,1.25-1s-.44-1-1.16-1a3.26,3.26,0,0,0-.71,0Z"/><path class="cls-1" d="M141.79,54a3.91,3.91,0,0,0,1.74.43c.72,0,1.1-.3,1.1-.75s-.33-.68-1.16-1c-1.15-.41-1.92-1-1.92-2.06,0-1.18,1-2.07,2.63-2.07a4,4,0,0,1,1.77.35l-.35,1.25a3.3,3.3,0,0,0-1.44-.33c-.68,0-1,.32-1,.67s.38.64,1.29,1c1.22.45,1.79,1.09,1.79,2.07,0,1.16-.89,2.15-2.79,2.15a4.61,4.61,0,0,1-2-.43Z"/><path class="cls-1" d="M148.87,48.69v6.93h-1.56V48.69Z"/><path class="cls-1" d="M150.23,48.79a14.09,14.09,0,0,1,2.11-.15,4.5,4.5,0,0,1,2.85.74A3.06,3.06,0,0,1,156.36,52a3.53,3.53,0,0,1-1.14,2.81,5,5,0,0,1-3.21.9,11.79,11.79,0,0,1-1.78-.11Zm1.56,5.65a3,3,0,0,0,.55,0A2.16,2.16,0,0,0,154.7,52a2,2,0,0,0-2.2-2.2,3.4,3.4,0,0,0-.71.06Z"/><path class="cls-1" d="M158.84,53.84l-.5,1.78h-1.61l2.11-6.93h2.06l2.16,6.93h-1.7l-.54-1.78Zm1.76-1.17-.43-1.47c-.13-.41-.25-.93-.35-1.34h0c-.11.41-.21.94-.32,1.34l-.42,1.47Z"/><path class="cls-1" d="M164,48.79a14.3,14.3,0,0,1,2.11-.15,4.48,4.48,0,0,1,2.85.74A3.06,3.06,0,0,1,170.1,52,3.53,3.53,0,0,1,169,54.8a5,5,0,0,1-3.21.9,11.89,11.89,0,0,1-1.78-.11Zm1.56,5.65a3.09,3.09,0,0,0,.55,0A2.16,2.16,0,0,0,168.45,52a2,2,0,0,0-2.2-2.2,3.59,3.59,0,0,0-.72.06Z"/><path class="cls-1" d="M173.21,55.62V48.69H175l1.44,2.54a22.54,22.54,0,0,1,1.13,2.38h0c-.09-.92-.12-1.86-.12-2.9v-2H179v6.93h-1.64L175.82,53a24.19,24.19,0,0,1-1.2-2.45h0c0,.93.07,1.9.07,3v2.08Z"/><path class="cls-1" d="M181.92,53.84l-.49,1.78h-1.62l2.11-6.93H184l2.16,6.93h-1.7l-.53-1.78Zm1.76-1.17-.43-1.47c-.12-.41-.25-.93-.35-1.34h0c-.1.41-.21.94-.32,1.34l-.41,1.47Z"/><path class="cls-1" d="M191.88,55.44a4.65,4.65,0,0,1-1.77.3,3.3,3.3,0,0,1-3.63-3.48,3.53,3.53,0,0,1,3.79-3.67,4.05,4.05,0,0,1,1.71.3l-.33,1.24a3.41,3.41,0,0,0-1.32-.26,2.28,2.28,0,0,0,0,4.56,3.87,3.87,0,0,0,1.32-.22Z"/><path class="cls-1" d="M194.49,48.69v6.93h-1.56V48.69Z"/><path class="cls-1" d="M202.2,52.08c0,2.29-1.37,3.66-3.4,3.66a3.25,3.25,0,0,1-3.27-3.54,3.36,3.36,0,0,1,3.38-3.63A3.23,3.23,0,0,1,202.2,52.08Zm-5,.09c0,1.37.64,2.32,1.69,2.32s1.66-1,1.66-2.35-.58-2.33-1.66-2.33S197.19,50.82,197.19,52.17Z"/><path class="cls-1" d="M203.23,55.62V48.69h1.83l1.44,2.54a22.54,22.54,0,0,1,1.13,2.38h0c-.09-.92-.12-1.86-.12-2.9v-2H209v6.93h-1.65L205.84,53a24.19,24.19,0,0,1-1.2-2.45h0c.05.93.07,1.9.07,3v2.08Z"/><path class="cls-1" d="M211.94,53.84l-.49,1.78h-1.62l2.11-6.93H214l2.16,6.93h-1.7l-.53-1.78Zm1.76-1.17-.43-1.47c-.12-.41-.25-.93-.35-1.34h0c-.1.41-.21.94-.32,1.34l-.41,1.47Z"/><path class="cls-1" d="M217.08,48.69h1.57v5.62h2.76v1.31h-4.33Z"/><path class="cls-1" d="M224.41,48.79a14.3,14.3,0,0,1,2.11-.15,4.48,4.48,0,0,1,2.85.74A3.06,3.06,0,0,1,230.54,52a3.53,3.53,0,0,1-1.14,2.81,5,5,0,0,1-3.21.9,11.89,11.89,0,0,1-1.78-.11ZM226,54.44a3.09,3.09,0,0,0,.55,0A2.16,2.16,0,0,0,228.89,52a2,2,0,0,0-2.21-2.2,3.48,3.48,0,0,0-.71.06Z"/><path class="cls-1" d="M235.7,52.69h-2.56v1.65H236v1.28h-4.42V48.69h4.27V50h-2.71v1.44h2.56Z"/><path class="cls-1" d="M237.07,48.69h1.57v5.62h2.76v1.31h-4.33Z"/><path class="cls-1" d="M249.48,55.44a4.65,4.65,0,0,1-1.77.3,3.3,3.3,0,0,1-3.63-3.48,3.53,3.53,0,0,1,3.79-3.67,4,4,0,0,1,1.7.3l-.32,1.24a3.41,3.41,0,0,0-1.32-.26,2.28,2.28,0,0,0,0,4.56,3.87,3.87,0,0,0,1.32-.22Z"/><path class="cls-1" d="M254.65,52.69h-2.56v1.65h2.85v1.28h-4.41V48.69h4.27V50h-2.71v1.44h2.56Z"/><path class="cls-1" d="M256,55.62V48.69h1.84l1.44,2.54a22.54,22.54,0,0,1,1.13,2.38h0c-.09-.92-.12-1.86-.12-2.9v-2h1.44v6.93h-1.65L258.63,53a24.25,24.25,0,0,1-1.21-2.45h0c.05.93.07,1.9.07,3v2.08Z"/><path class="cls-1" d="M264.46,50h-1.87V48.69h5.33V50H266v5.61h-1.57Z"/><path class="cls-1" d="M268.75,48.78a14.08,14.08,0,0,1,2.09-.14,3.53,3.53,0,0,1,2.24.54,1.77,1.77,0,0,1,.65,1.46,1.83,1.83,0,0,1-1.22,1.7v0a1.73,1.73,0,0,1,.92,1.29,19.41,19.41,0,0,0,.56,2h-1.61a9,9,0,0,1-.47-1.61c-.2-.88-.49-1.1-1.14-1.11h-.47v2.72h-1.55Zm1.55,3h.62c.78,0,1.25-.4,1.25-1s-.44-1-1.16-1a3.26,3.26,0,0,0-.71,0Z"/><path class="cls-1" d="M281.16,52.08c0,2.29-1.37,3.66-3.41,3.66a3.24,3.24,0,0,1-3.26-3.54,3.36,3.36,0,0,1,3.38-3.63A3.23,3.23,0,0,1,281.16,52.08Zm-5,.09c0,1.37.64,2.32,1.68,2.32s1.67-1,1.67-2.35-.58-2.33-1.67-2.33S276.15,50.82,276.15,52.17Z"/><path class="cls-1" d="M106.56,61.14a12.78,12.78,0,0,1,2.11-.16,4.56,4.56,0,0,1,2.85.74,3.08,3.08,0,0,1,1.17,2.62,3.56,3.56,0,0,1-1.14,2.81,5,5,0,0,1-3.21.89,13.74,13.74,0,0,1-1.78-.1Zm1.56,5.65a3,3,0,0,0,.55,0A2.16,2.16,0,0,0,111,64.39a2,2,0,0,0-2.2-2.2,3.4,3.4,0,0,0-.71.06Z"/><path class="cls-1" d="M118.15,65H115.6v1.64h2.85V68H114V61h4.27v1.29H115.6v1.44h2.55Z"/><path class="cls-1" d="M122.22,61h1.57v5.62h2.76V68h-4.33Z"/><path class="cls-1" d="M129.46,66.19,129,68h-1.61L129.46,61h2.06L133.68,68H132l-.54-1.78ZM131.22,65l-.44-1.48c-.12-.41-.24-.92-.34-1.33h0c-.1.41-.2.93-.31,1.33L129.68,65Z"/><path class="cls-1" d="M137.28,61.13A12,12,0,0,1,139.4,61a3.37,3.37,0,0,1,2.13.56,2,2,0,0,1,.74,1.6,2.18,2.18,0,0,1-.64,1.65,3.3,3.3,0,0,1-2.26.73,2.72,2.72,0,0,1-.53,0V68h-1.56Zm1.56,3.15a2.37,2.37,0,0,0,.52,0c.84,0,1.35-.43,1.35-1.12s-.44-1-1.23-1a2.87,2.87,0,0,0-.64,0Z"/><path class="cls-1" d="M143.57,61.13a12.67,12.67,0,0,1,2.09-.15,3.52,3.52,0,0,1,2.24.55,1.73,1.73,0,0,1,.65,1.46,1.86,1.86,0,0,1-1.22,1.7v0a1.71,1.71,0,0,1,.92,1.28,19.81,19.81,0,0,0,.56,2H147.2a10.23,10.23,0,0,1-.47-1.62c-.2-.87-.49-1.1-1.14-1.11h-.47V68h-1.55Zm1.55,3h.62c.78,0,1.25-.39,1.25-1s-.44-1-1.16-1a3.26,3.26,0,0,0-.71.05Z"/><path class="cls-1" d="M156.29,64.43c0,2.28-1.37,3.65-3.41,3.65a3.24,3.24,0,0,1-3.26-3.54A3.36,3.36,0,0,1,153,60.91,3.24,3.24,0,0,1,156.29,64.43Zm-5,.08c0,1.37.63,2.33,1.68,2.33s1.67-1,1.67-2.36S154,62.16,153,62.16,151.28,63.16,151.28,64.51Z"/><path class="cls-1" d="M159.19,68,157,61h1.72l.85,2.94c.23.83.45,1.61.61,2.48h0c.17-.84.39-1.66.62-2.45l.89-3h1.66L161,68Z"/><path class="cls-1" d="M166,61V68h-1.57V61Z"/><path class="cls-1" d="M167.64,68V61h1.83l1.45,2.55A22.38,22.38,0,0,1,172.05,66h0c-.09-.91-.13-1.85-.13-2.9V61h1.45V68h-1.65l-1.48-2.68a23.24,23.24,0,0,1-1.21-2.45h0c.05.93.07,1.91.07,3V68Z"/><path class="cls-1" d="M180.13,67.78a4.42,4.42,0,0,1-1.77.3,3.31,3.31,0,0,1-3.63-3.48,3.53,3.53,0,0,1,3.79-3.67,3.87,3.87,0,0,1,1.71.31l-.33,1.23a3.39,3.39,0,0,0-1.32-.25,2.28,2.28,0,0,0,0,4.56,3.85,3.85,0,0,0,1.32-.23Z"/><path class="cls-1" d="M183.05,61V68h-1.56V61Z"/><path class="cls-1" d="M186.34,66.19l-.5,1.78h-1.61L186.34,61h2L190.56,68h-1.7l-.54-1.78ZM188.1,65l-.44-1.48c-.12-.41-.24-.92-.35-1.33h0c-.1.41-.2.93-.32,1.33L186.56,65Z"/><path class="cls-1" d="M194.16,61.14a13,13,0,0,1,2.11-.16,4.52,4.52,0,0,1,2.85.74,3.06,3.06,0,0,1,1.18,2.62,3.59,3.59,0,0,1-1.14,2.81,5.08,5.08,0,0,1-3.22.89,13.86,13.86,0,0,1-1.78-.1Zm1.57,5.65a3,3,0,0,0,.54,0,2.16,2.16,0,0,0,2.37-2.43,2,2,0,0,0-2.2-2.2,3.4,3.4,0,0,0-.71.06Z"/><path class="cls-1" d="M205.76,65h-2.55v1.64h2.85V68h-4.42V61h4.27v1.29h-2.7v1.44h2.55Z"/><path class="cls-1" d="M209.82,61.13a12.59,12.59,0,0,1,2-.15,4,4,0,0,1,2.06.39,1.51,1.51,0,0,1,.82,1.37,1.57,1.57,0,0,1-1.14,1.47v0a1.74,1.74,0,0,1,1.38,1.7,1.85,1.85,0,0,1-.72,1.48,4.34,4.34,0,0,1-2.73.63,12.54,12.54,0,0,1-1.7-.1Zm1.56,2.65h.51c.83,0,1.27-.34,1.27-.85s-.41-.81-1.12-.81a3.66,3.66,0,0,0-.66.05Zm0,3.08a5,5,0,0,0,.6,0c.71,0,1.34-.28,1.34-1s-.63-1-1.41-1h-.53Z"/><path class="cls-1" d="M217.91,61v4c0,1.2.46,1.81,1.25,1.81s1.28-.58,1.28-1.81V61H222v3.89c0,2.14-1.08,3.16-2.89,3.16s-2.77-1-2.77-3.18V61Z"/><path class="cls-1" d="M227.79,65h-2.55v1.64h2.85V68h-4.41V61H228v1.29h-2.71v1.44h2.55Z"/><path class="cls-1" d="M229.47,68V61h1.83l1.44,2.55A20.58,20.58,0,0,1,233.87,66h0a26.45,26.45,0,0,1-.13-2.9V61h1.44V68h-1.64l-1.49-2.68a23.2,23.2,0,0,1-1.2-2.45h0c0,.93.07,1.91.07,3V68Z"/><path class="cls-1" d="M243.23,64.43c0,2.28-1.37,3.65-3.41,3.65a3.24,3.24,0,0,1-3.26-3.54,3.36,3.36,0,0,1,3.38-3.63A3.24,3.24,0,0,1,243.23,64.43Zm-5,.08c0,1.37.63,2.33,1.68,2.33s1.67-1,1.67-2.36-.59-2.32-1.67-2.32S238.22,63.16,238.22,64.51Z"/><path class="cls-1" d="M244.61,66.35a4,4,0,0,0,1.74.44c.72,0,1.11-.3,1.11-.75s-.33-.68-1.17-1c-1.15-.41-1.91-1-1.91-2.06,0-1.18,1-2.08,2.62-2.08a4,4,0,0,1,1.77.35l-.35,1.26a3.16,3.16,0,0,0-1.44-.33c-.68,0-1,.32-1,.67s.38.63,1.29,1c1.22.46,1.79,1.09,1.79,2.07,0,1.16-.88,2.15-2.79,2.15a4.45,4.45,0,0,1-2-.43Z"/><path class="cls-1" d="M254.43,66.19l-.5,1.78h-1.61L254.43,61h2.06L258.65,68H257l-.54-1.78ZM256.19,65l-.43-1.48c-.13-.41-.25-.92-.35-1.33h0c-.11.41-.21.93-.32,1.33L254.65,65Z"/><path class="cls-1" d="M261.44,61V68h-1.56V61Z"/><path class="cls-1" d="M263.11,61.13A12.67,12.67,0,0,1,265.2,61a3.52,3.52,0,0,1,2.24.55,1.73,1.73,0,0,1,.65,1.46,1.86,1.86,0,0,1-1.22,1.7v0a1.71,1.71,0,0,1,.92,1.28c.22.8.43,1.7.56,2h-1.61a10.23,10.23,0,0,1-.47-1.62c-.2-.87-.49-1.1-1.14-1.11h-.47V68h-1.55Zm1.55,3h.62c.78,0,1.25-.39,1.25-1s-.43-1-1.16-1a3.26,3.26,0,0,0-.71.05Z"/><path class="cls-1" d="M273.65,65h-2.56v1.64h2.85V68h-4.41V61h4.27v1.29h-2.71v1.44h2.56Z"/><path class="cls-1" d="M275.37,66.35a3.9,3.9,0,0,0,1.74.44c.72,0,1.1-.3,1.1-.75s-.33-.68-1.16-1c-1.15-.41-1.91-1-1.91-2.06,0-1.18,1-2.08,2.62-2.08a4,4,0,0,1,1.77.35l-.35,1.26a3.16,3.16,0,0,0-1.44-.33c-.68,0-1,.32-1,.67s.38.63,1.29,1c1.22.46,1.79,1.09,1.79,2.07,0,1.16-.89,2.15-2.79,2.15a4.5,4.5,0,0,1-2-.43Z"/></g></g></svg>